SplineFontDB: 3.2
FontName: Chalkboard-Regular
FullName: Chalkboard Regular
FamilyName: Chalkboard
Weight: Book
Copyright: 
Version: 001.001
ItalicAngle: 0
UnderlinePosition: -102.4
UnderlineWidth: 51.2
Ascent: 819
Descent: 205
InvalidEm: 0
sfntRevision: 0x00010000
LayerCount: 2
Layer: 0 1 "Warstwa t+AUIA-a" 1
Layer: 1 1 "Plan pierwszy" 0
XUID: [1021 1010 526239070 23338]
StyleMap: 0x0040
FSType: 0
OS2Version: 4
OS2_WeightWidthSlopeOnly: 0
OS2_UseTypoMetrics: 0
CreationTime: 1627146287
ModificationTime: 1710405399
PfmFamily: 17
TTFWeight: 400
TTFWidth: 5
LineGap: 92
VLineGap: 0
Panose: 2 0 5 3 0 0 0 0 0 0
OS2TypoAscent: 819
OS2TypoAOffset: 0
OS2TypoDescent: -205
OS2TypoDOffset: 0
OS2TypoLinegap: 92
OS2WinAscent: 750
OS2WinAOffset: 0
OS2WinDescent: 178
OS2WinDOffset: 0
HheadAscent: 750
HheadAOffset: 0
HheadDescent: -178
HheadDOffset: 0
OS2SubXSize: 666
OS2SubYSize: 717
OS2SubXOff: 0
OS2SubYOff: 143
OS2SupXSize: 666
OS2SupYSize: 717
OS2SupXOff: 0
OS2SupYOff: 492
OS2StrikeYSize: 50
OS2StrikeYPos: 264
OS2CapHeight: 681
OS2XHeight: 570
OS2Vendor: 'CLGR'
OS2CodePages: 00000001.00000000
OS2UnicodeRanges: 00000003.00000000.00000000.00000000
MarkAttachClasses: 1
DEI: 91125
TtTable: prep
PUSHW_1
 511
SCANCTRL
PUSHB_1
 4
SCANTYPE
EndTTInstrs
ShortTable: cvt  2
  33
  633
EndShort
ShortTable: maxp 16
  1
  0
  80
  191
  6
  0
  0
  2
  0
  1
  1
  0
  64
  0
  0
  0
EndShort
LangName: 1033 "" "" "" "Calligraphr : Chalkboard Regular : 24-07-2021" "" "Version 001.001" "" "" "" "" "Created with Calligraphr.com" "" "" "" "" "" "Chalkboard" "Regular"
GaspTable: 1 65535 15 1
Encoding: UnicodeBmp
UnicodeInterp: none
NameList: AGL For New Fonts
DisplaySize: -48
AntiAlias: 1
FitToEm: 0
WinInfo: 39 39 14
BeginPrivate: 0
EndPrivate
BeginChars: 65538 86

StartChar: .notdef
Encoding: 65536 -1 0
Width: 372
GlyphClass: 1
Flags: W
LayerCount: 2
Fore
SplineSet
34 0 m 1,0,-1
 34 682 l 1,1,-1
 305 682 l 1,2,-1
 305 0 l 1,3,-1
 34 0 l 1,0,-1
68 34 m 1,4,-1
 271 34 l 1,5,-1
 271 648 l 1,6,-1
 68 648 l 1,7,-1
 68 34 l 1,4,-1
EndSplineSet
Validated: 1
EndChar

StartChar: exclam
Encoding: 33 33 5
Width: 222
GlyphClass: 1
Flags: W
LayerCount: 2
Fore
SplineSet
73 720 m 0,0,1
 80 728 80 728 92 728 c 0,2,3
 100 728 100 728 106 727 c 0,4,5
 160 719 160 719 161 709 c 2,6,-1
 161 698 l 2,7,8
 161 667 161 667 164 607 c 0,9,10
 169 525 169 525 169 418 c 0,11,12
 169 300 169 300 161 285 c 0,13,14
 156 275 156 275 151 272.5 c 128,-1,15
 146 270 146 270 136 272 c 0,16,17
 116 277 116 277 82 281 c 0,18,19
 73 282 73 282 66.5 292.5 c 128,-1,20
 60 303 60 303 60 318 c 0,21,22
 60 327 60 327 61 332 c 0,23,24
 63 343 63 343 67 402 c 128,-1,25
 71 461 71 461 71 485 c 2,26,-1
 71 492 l 1,27,28
 66 635 66 635 66 665 c 0,29,30
 66 713 66 713 73 720 c 0,0,1
90 208 m 0,31,32
 93 214 93 214 98 214 c 128,-1,33
 103 214 103 214 121 207 c 0,34,35
 143 198 143 198 148.5 190.5 c 128,-1,36
 154 183 154 183 154 164 c 0,37,38
 154 138 154 138 139.5 121.5 c 128,-1,39
 125 105 125 105 103 105 c 0,40,41
 94 105 94 105 85 109 c 0,42,43
 69 114 69 114 63.5 119.5 c 128,-1,44
 58 125 58 125 53 143 c 0,45,46
 51 153 51 153 51 161 c 0,47,48
 51 180 51 180 58 196 c 128,-1,49
 65 212 65 212 73 212 c 0,50,51
 78 212 78 212 81 207 c 0,52,53
 86 200 86 200 90 208 c 0,31,32
EndSplineSet
Validated: 1
EndChar

StartChar: quotedbl
Encoding: 34 34 6
AltUni2: 00201e.ffffffff.0 00201d.ffffffff.0 00201c.ffffffff.0 00201e.ffffffff.0 00201d.ffffffff.0 00201c.ffffffff.0
Width: 358
GlyphClass: 1
Flags: W
LayerCount: 2
Fore
SplineSet
145 439 m 0,0,1
 138 439 138 439 121.5 428.5 c 128,-1,2
 105 418 105 418 99 418 c 0,3,4
 85 418 85 418 73.5 438 c 128,-1,5
 62 458 62 458 58 490 c 0,6,7
 57 499 57 499 55 509 c 128,-1,8
 53 519 53 519 53 522 c 0,9,10
 53 555 53 555 65 606 c 0,11,12
 66 615 66 615 76.5 621 c 128,-1,13
 87 627 87 627 99 627 c 2,14,-1
 104 627 l 1,15,16
 159 621 159 621 163 614 c 0,17,18
 165 606 165 606 165 552 c 0,19,20
 165 453 165 453 161 446 c 0,21,22
 155 439 155 439 145 439 c 0,0,1
249 618.5 m 128,-1,24
 252 624 252 624 269 624 c 0,25,26
 287 624 287 624 294 618 c 0,27,28
 300 614 300 614 301.5 604 c 128,-1,29
 303 594 303 594 304 537 c 0,30,31
 305 512 305 512 305 478 c 0,32,33
 305 436 305 436 298 426 c 0,34,35
 287 412 287 412 237 412 c 0,36,37
 224 412 224 412 220 414 c 0,38,39
 205 421 205 421 196 487 c 0,40,41
 196 488 196 488 195.5 492 c 128,-1,42
 195 496 195 496 195 498 c 0,43,44
 195 554 195 554 208 604 c 0,45,46
 211 613 211 613 228.5 613 c 128,-1,23
 246 613 246 613 249 618.5 c 128,-1,24
EndSplineSet
Validated: 1
EndChar

StartChar: ampersand
Encoding: 38 38 7
Width: 620
GlyphClass: 1
Flags: W
LayerCount: 2
Fore
SplineSet
82 215 m 0,0,1
 82 217 82 217 80 217 c 0,2,3
 77 217 77 217 77 215 c 0,4,5
 77 212 77 212 80 212 c 0,6,7
 82 212 82 212 82 215 c 0,0,1
288 260 m 0,8,9
 288 265 288 265 263.5 292 c 128,-1,10
 239 319 239 319 233 324 c 1,11,-1
 232 324 l 2,12,13
 223 324 223 324 200 302 c 0,14,15
 173 278 173 278 162 246 c 0,16,17
 155 224 155 224 155 214 c 0,18,19
 155 207 155 207 158 201 c 0,20,21
 163 189 163 189 177 184.5 c 128,-1,22
 191 180 191 180 229 179 c 2,23,-1
 240 179 l 2,24,25
 265 179 265 179 294 197 c 0,26,27
 300 201 300 201 307.5 206 c 128,-1,28
 315 211 315 211 319 213 c 2,29,-1
 325 216 l 2,30,31
 326 217 326 217 307 236 c 0,32,33
 288 253 288 253 288 260 c 0,8,9
314 526 m 0,34,35
 319 528 319 528 319 538 c 0,36,37
 319 550 319 550 307.5 566 c 128,-1,38
 296 582 296 582 287 582 c 0,39,40
 279 582 279 582 265 562.5 c 128,-1,41
 251 543 251 543 246 522 c 0,42,43
 243 511 243 511 243 498 c 0,44,45
 243 471 243 471 250 471 c 128,-1,46
 257 471 257 471 283 490 c 128,-1,47
 309 509 309 509 309 514 c 0,48,49
 309 523 309 523 314 526 c 0,34,35
319 381 m 0,50,51
 319 379 319 379 340 356 c 128,-1,52
 361 333 361 333 361 330 c 128,-1,53
 361 327 361 327 384 302 c 0,54,55
 399 285 399 285 404 285 c 0,56,57
 411 285 411 285 436 338 c 0,58,59
 440 349 440 349 443 355 c 0,60,61
 477 432 477 432 498 432 c 0,62,63
 501 432 501 432 507 430 c 0,64,65
 519 423 519 423 530 423 c 0,66,67
 544 423 544 423 553 411 c 128,-1,68
 562 399 562 399 562 381 c 0,69,70
 562 369 562 369 559 358 c 0,71,72
 555 344 555 344 531 294.5 c 128,-1,73
 507 245 507 245 499 232 c 0,74,75
 490 220 490 220 489 212 c 0,76,77
 489 202 489 202 510 185 c 0,78,79
 532 168 532 168 531 152 c 0,80,81
 531 144 531 144 523 133 c 0,82,83
 515 124 515 124 520 110 c 0,84,85
 526 98 526 98 513 88 c 0,86,87
 505 83 505 83 495 83 c 0,88,89
 468 83 468 83 430 113 c 0,90,91
 405 131 405 131 395 131 c 0,92,93
 391 131 391 131 388 130 c 0,94,95
 373 127 373 127 370 122 c 0,96,97
 363 110 363 110 298 87 c 0,98,99
 264 76 264 76 218 76 c 0,100,101
 135 76 135 76 104 101 c 0,102,103
 71 127 71 127 72 157 c 0,104,105
 72 168 72 168 67 173 c 0,106,107
 56 184 56 184 55 218 c 0,108,109
 55 249 55 249 64.5 280 c 128,-1,110
 74 311 74 311 88 323 c 0,111,112
 90 325 90 325 94 339 c 0,113,114
 98 355 98 355 130 379 c 0,115,116
 162 406 162 406 162 414 c 0,117,118
 162 421 162 421 151 443 c 0,119,120
 141 465 141 465 140 504 c 0,121,122
 140 550 140 550 149.5 571 c 128,-1,123
 159 592 159 592 202 644 c 0,124,125
 218 664 218 664 243 675 c 0,126,127
 269 687 269 687 299 687 c 0,128,129
 328 687 328 687 345 677 c 0,130,131
 361 666 361 666 361 662 c 0,132,133
 361 659 361 659 388 630 c 0,134,135
 421 594 421 594 421 552 c 0,136,137
 421 536 421 536 420 525 c 0,138,139
 417 492 417 492 407 476.5 c 128,-1,140
 397 461 397 461 355 420 c 0,141,142
 319 386 319 386 319 381 c 0,50,51
EndSplineSet
Validated: 33
EndChar

StartChar: quotesingle
Encoding: 39 39 8
AltUni2: 00201a.ffffffff.0 002019.ffffffff.0 002018.ffffffff.0 00201a.ffffffff.0 002019.ffffffff.0 002018.ffffffff.0
Width: 214
GlyphClass: 1
Flags: W
LayerCount: 2
Fore
SplineSet
79 638 m 0,0,1
 80 637 80 637 82 637 c 0,2,3
 86 637 86 637 91.5 645.5 c 128,-1,4
 97 654 97 654 101 654 c 0,5,6
 107 654 107 654 113.5 645 c 128,-1,7
 120 636 120 636 136 634 c 0,8,9
 146 632 146 632 150 628 c 128,-1,10
 154 624 154 624 156 610 c 0,11,12
 161 581 161 581 161 500 c 0,13,14
 161 451 161 451 158 445 c 0,15,16
 154 439 154 439 141 439 c 0,17,18
 128 439 128 439 128 434 c 0,19,20
 128 428 128 428 109 431 c 0,21,22
 77 436 77 436 71.5 439.5 c 128,-1,23
 66 443 66 443 61 463 c 0,24,25
 55 487 55 487 61 486 c 0,26,27
 66 486 66 486 62 502 c 0,28,29
 54 533 54 533 52 599 c 2,30,-1
 52 606 l 2,31,32
 52 625 52 625 62.5 632.5 c 128,-1,33
 73 640 73 640 79 638 c 0,0,1
EndSplineSet
Validated: 1
EndChar

StartChar: parenleft
Encoding: 40 40 9
Width: 332
GlyphClass: 1
Flags: W
LayerCount: 2
Fore
SplineSet
245 41 m 0,0,1
 245 43 245 43 242 43 c 0,2,3
 240 43 240 43 240 41 c 0,4,5
 240 38 240 38 242 38 c 0,6,7
 245 38 245 38 245 41 c 0,0,1
170 649 m 0,8,9
 204 686 204 686 217 686 c 0,10,11
 223 686 223 686 226 679 c 128,-1,12
 229 672 229 672 239 669 c 0,13,14
 246 668 246 668 261 648 c 2,15,-1
 275 630 l 1,16,-1
 266 609 l 2,17,18
 254 587 254 587 245 580 c 0,19,20
 234 569 234 569 237 560 c 0,21,22
 240 553 240 553 228 540 c 0,23,24
 222 534 222 534 205 497.5 c 128,-1,25
 188 461 188 461 184 456 c 0,26,27
 159 428 159 428 160 327 c 0,28,29
 160 293 160 293 164 272 c 0,30,31
 178 199 178 199 204 159 c 0,32,33
 218 135 218 135 218 128 c 0,34,35
 218 123 218 123 223 123 c 0,36,37
 229 123 229 123 242 92 c 128,-1,38
 255 61 255 61 255 47 c 0,39,40
 255 35 255 35 252.5 31 c 128,-1,41
 250 27 250 27 241 25 c 0,42,43
 224 21 224 21 218 16 c 0,44,45
 196 2 196 2 182 2 c 0,46,47
 179 2 179 2 178 3 c 0,48,49
 168 7 168 7 137 56 c 128,-1,50
 106 105 106 105 100 127 c 0,51,52
 95 149 95 149 91 148 c 0,53,54
 88 148 88 148 84 164 c 0,55,56
 79 183 79 183 67 207 c 0,57,58
 54 233 54 233 53 272 c 2,59,-1
 53 298 l 2,60,61
 56 428 56 428 83 487 c 0,62,63
 97 520 97 520 97 523 c 0,64,65
 97 530 97 530 113 553 c 0,66,67
 128 573 128 573 132 593 c 0,68,69
 135 611 135 611 170 649 c 0,8,9
EndSplineSet
Validated: 33
EndChar

StartChar: parenright
Encoding: 41 41 10
Width: 306
GlyphClass: 1
Flags: W
LayerCount: 2
Fore
SplineSet
102 649 m 0,0,1
 120 660 120 660 126 660 c 0,2,3
 138 660 138 660 210 548 c 0,4,5
 228 518 228 518 237 488 c 128,-1,6
 246 458 246 458 253 394 c 0,7,8
 254 384 254 384 254 303 c 0,9,10
 254 195 254 195 252 180 c 0,11,12
 246 107 246 107 236 82 c 0,13,14
 210 23 210 23 198 -3 c 0,15,16
 190 -19 190 -19 171 -30.5 c 128,-1,17
 152 -42 152 -42 136 -42 c 0,18,19
 119 -42 119 -42 119 -28 c 0,20,21
 119 -15 119 -15 123 -14 c 0,22,23
 128 -14 128 -14 128 -9 c 128,-1,24
 128 -4 128 -4 121 -4 c 0,25,26
 106 -4 106 -4 105 27 c 0,27,28
 105 61 105 61 122 87 c 0,29,30
 135 110 135 110 147 178 c 0,31,32
 149 190 149 190 150 292 c 0,33,34
 148 456 148 456 126 481 c 0,35,36
 121 486 121 486 116 501 c 0,37,38
 113 511 113 511 89 546 c 0,39,40
 56 594 56 594 56 605 c 0,41,42
 56 611 56 611 69 624 c 0,43,44
 82 636 82 636 102 649 c 0,0,1
EndSplineSet
Validated: 1
EndChar

StartChar: comma
Encoding: 44 44 11
Width: 276
GlyphClass: 1
Flags: W
LayerCount: 2
Fore
SplineSet
141 216 m 0,0,1
 149 227 149 227 167 225 c 0,2,3
 200 221 200 221 200 214 c 0,4,5
 200 212 200 212 196 212 c 0,6,7
 191 211 191 211 200 207 c 0,8,9
 211 202 211 202 211 191 c 0,10,11
 211 178 211 178 217 170 c 0,12,13
 221 162 221 162 221 153 c 0,14,15
 221 118 221 118 195.5 60.5 c 128,-1,16
 170 3 170 3 145 -15 c 0,17,18
 119 -32 119 -32 113 -35 c 0,19,20
 110 -36 110 -36 102 -36 c 0,21,22
 93 -36 93 -36 85 -33 c 128,-1,23
 77 -30 77 -30 77 -27 c 0,24,25
 77 -21 77 -21 74 -19 c 0,26,27
 70 -18 70 -18 62 12 c 0,28,29
 58 35 58 35 58 36 c 0,30,31
 58 44 58 44 72 60 c 0,32,33
 86 77 86 77 98.5 107 c 128,-1,34
 111 137 111 137 112 160 c 0,35,36
 113 172 113 172 117 181 c 128,-1,37
 121 190 121 190 130 201 c 128,-1,38
 139 212 139 212 141 216 c 0,0,1
EndSplineSet
Validated: 1
EndChar

StartChar: period
Encoding: 46 46 12
Width: 236
GlyphClass: 1
Flags: W
LayerCount: 2
Fore
SplineSet
125 227 m 0,0,1
 130 228 130 228 135.5 229 c 128,-1,2
 141 230 141 230 144.5 231 c 128,-1,3
 148 232 148 232 150 232 c 0,4,5
 151 233 151 233 155.5 228.5 c 128,-1,6
 160 224 160 224 166 216 c 0,7,8
 182 193 182 193 182 159 c 0,9,10
 182 113 182 113 159 104 c 0,11,12
 149 101 149 101 148 95 c 0,13,14
 148 91 148 91 121 91 c 0,15,16
 63 91 63 91 55 141 c 0,17,18
 54 147 54 147 54 158 c 0,19,20
 54 172 54 172 63 189 c 0,21,22
 71 205 71 205 83.5 212.5 c 128,-1,23
 96 220 96 220 125 227 c 0,0,1
EndSplineSet
Validated: 1
EndChar

StartChar: slash
Encoding: 47 47 13
Width: 367
GlyphClass: 1
Flags: W
LayerCount: 2
Fore
SplineSet
304 579 m 0,0,1
 304 582 304 582 301 582 c 0,2,3
 299 582 299 582 299 579 c 0,4,5
 299 577 299 577 301 577 c 0,6,7
 304 577 304 577 304 579 c 0,0,1
227 604 m 0,8,9
 236 618 236 618 247 618 c 0,10,11
 254 618 254 618 283 604 c 0,12,13
 302 594 302 594 306.5 590 c 128,-1,14
 311 586 311 586 311 574 c 2,15,-1
 311 566 l 2,16,17
 309 541 309 541 305 537.5 c 128,-1,18
 301 534 301 534 296 513 c 128,-1,19
 291 492 291 492 293 486 c 0,20,21
 293 483 293 483 283 473 c 0,22,23
 273 465 273 465 272.5 457 c 128,-1,24
 272 449 272 449 251.5 399.5 c 128,-1,25
 231 350 231 350 230 344 c 0,26,27
 226 321 226 321 212 286.5 c 128,-1,28
 198 252 198 252 188 240 c 0,29,30
 177 224 177 224 177 216 c 0,31,32
 177 207 177 207 173 204 c 0,33,34
 171 203 171 203 154.5 172.5 c 128,-1,35
 138 142 138 142 135 141 c 0,36,37
 134 140 134 140 130 140 c 0,38,39
 118 140 118 140 92.5 148.5 c 128,-1,40
 67 157 67 157 62 163 c 0,41,42
 56 170 56 170 56 184 c 0,43,44
 56 202 56 202 67 223 c 0,45,46
 71 231 71 231 78.5 251.5 c 128,-1,47
 86 272 86 272 95 283.5 c 128,-1,48
 104 295 104 295 110.5 310.5 c 128,-1,49
 117 326 117 326 124.5 351.5 c 128,-1,50
 132 377 132 377 135 384 c 0,51,52
 148 422 148 422 159 442 c 0,53,54
 172 471 172 471 172 476 c 0,55,56
 172 482 172 482 185 507 c 0,57,58
 191 518 191 518 204.5 554.5 c 128,-1,59
 218 591 218 591 227 604 c 0,8,9
EndSplineSet
Validated: 1
EndChar

StartChar: zero
Encoding: 48 48 14
Width: 466
GlyphClass: 1
Flags: W
LayerCount: 2
Fore
SplineSet
251 540 m 0,0,1
 231 550 231 550 219 550 c 0,2,3
 202 549 202 549 188.5 529.5 c 128,-1,4
 175 510 175 510 173 481 c 0,5,6
 168 445 168 445 163 421 c 0,7,8
 156 392 156 392 156 343 c 0,9,10
 156 291 156 291 164 259 c 0,11,12
 169 235 169 235 173.5 226.5 c 128,-1,13
 178 218 178 218 188 212 c 0,14,15
 202 202 202 202 217 202 c 0,16,17
 230 202 230 202 245 209 c 0,18,19
 272 220 272 220 284.5 240.5 c 128,-1,20
 297 261 297 261 301 302 c 0,21,22
 307 334 307 334 308 336 c 0,23,24
 313 353 313 353 313 376 c 0,25,26
 313 412 313 412 304 447 c 0,27,28
 300 466 300 466 297 474 c 128,-1,29
 294 482 294 482 290 490 c 128,-1,30
 286 498 286 498 282 510 c 0,31,32
 277 522 277 522 270.5 528.5 c 128,-1,33
 264 535 264 535 251 540 c 0,0,1
123 585 m 0,34,35
 123 587 123 587 121 587 c 0,36,37
 118 587 118 587 118 585 c 0,38,39
 118 582 118 582 121 582 c 0,40,41
 123 582 123 582 123 585 c 0,34,35
194 650 m 0,42,43
 218 653 218 653 223 653 c 0,44,45
 230 653 230 653 263 645 c 0,46,47
 300 637 300 637 330 613.5 c 128,-1,48
 360 590 360 590 371 560 c 0,49,50
 381 533 381 533 388 521 c 0,51,52
 406 482 406 482 412 402 c 0,53,54
 413 390 413 390 413 368 c 0,55,56
 413 333 413 333 409 315 c 0,57,58
 402 276 402 276 400 268 c 0,59,60
 398 244 398 244 384 212.5 c 128,-1,61
 370 181 370 181 352 161 c 0,62,63
 326 132 326 132 290 114 c 128,-1,64
 254 96 254 96 220 96 c 0,65,66
 212 96 212 96 200 98 c 0,67,68
 192 100 192 100 187.5 102 c 128,-1,69
 183 104 183 104 184 106 c 0,70,71
 186 108 186 108 182 109 c 0,72,73
 180 110 180 110 177 109 c 2,74,-1
 175 109 l 2,75,76
 173 108 173 108 172 108 c 0,77,78
 161 108 161 108 143.5 117.5 c 128,-1,79
 126 127 126 127 116 140 c 0,80,81
 103 157 103 157 109 160 c 0,82,83
 113 161 113 161 105 163 c 0,84,85
 104 163 104 163 102 164 c 0,86,87
 79 171 79 171 65.5 218.5 c 128,-1,88
 52 266 52 266 52 335 c 0,89,90
 52 389 52 389 61 444 c 0,91,92
 72 507 72 507 84 532 c 0,93,94
 97 559 97 559 97 570.5 c 128,-1,95
 97 582 97 582 101 582 c 128,-1,96
 105 582 105 582 121 603 c 0,97,98
 153 645 153 645 194 650 c 0,42,43
EndSplineSet
Validated: 1
EndChar

StartChar: one
Encoding: 49 49 15
Width: 332
GlyphClass: 1
Flags: W
LayerCount: 2
Fore
SplineSet
251 635 m 128,-1,1
 251 641 251 641 241 635 c 0,2,3
 230 629 230 629 242 629 c 0,4,0
 251 629 251 629 251 635 c 128,-1,1
198 666 m 0,5,6
 213 671 213 671 218 671 c 0,7,8
 229 671 229 671 237 658 c 0,9,10
 245 645 245 645 259 645 c 0,11,12
 267 645 267 645 269.5 641.5 c 128,-1,13
 272 638 272 638 272 625 c 0,14,15
 272 603 272 603 278 600 c 0,16,17
 281 597 281 597 281 567 c 0,18,19
 281 471 281 471 270 454 c 0,20,21
 264 443 264 443 262.5 279.5 c 128,-1,22
 261 116 261 116 256 112 c 0,23,24
 242 104 242 104 197 103 c 0,25,26
 187 103 187 103 184 104 c 0,27,28
 154 115 154 115 155 259 c 0,29,30
 155 332 155 332 164 422 c 0,31,32
 171 487 171 487 171 505 c 2,33,-1
 170 511 l 2,34,35
 169 512 169 512 142 492 c 0,36,37
 116 472 116 472 109 471 c 0,38,39
 101 472 101 472 94 477 c 128,-1,40
 87 482 87 482 83.5 487 c 128,-1,41
 80 492 80 492 74.5 502 c 128,-1,42
 69 512 69 512 67 516 c 0,43,44
 57 533 57 533 56 542 c 0,45,46
 56 554 56 554 82 575 c 0,47,48
 111 598 111 598 115 598 c 0,49,50
 120 598 120 598 134 612 c 0,51,52
 181 659 181 659 198 666 c 0,5,6
EndSplineSet
Validated: 33
EndChar

StartChar: two
Encoding: 50 50 16
Width: 504
GlyphClass: 1
Flags: W
LayerCount: 2
Fore
SplineSet
271 263 m 0,0,1
 271 269 271 269 264 261 c 0,2,3
 264 260 264 260 263 259 c 0,4,5
 262 256 262 256 262 256 c 129,-1,6
 262 256 262 256 265 257 c 0,7,8
 271 260 271 260 271 263 c 0,0,1
82 579 m 0,9,10
 82 582 82 582 79 582 c 0,11,12
 77 582 77 582 77 579 c 0,13,14
 77 577 77 577 79 577 c 0,15,16
 82 577 82 577 82 579 c 0,9,10
156 655 m 128,-1,18
 156 658 156 658 170 664 c 128,-1,19
 184 670 184 670 208.5 677 c 128,-1,20
 233 684 233 684 238 685 c 0,21,22
 240 686 240 686 248 686 c 0,23,24
 293 686 293 686 331 673 c 0,25,26
 357 664 357 664 372 645 c 0,27,28
 379 635 379 635 397 616 c 0,29,30
 422 591 422 591 422 559 c 0,31,32
 422 554 422 554 420 550 c 0,33,34
 414 539 414 539 419 527 c 0,35,36
 425 512 425 512 425 494 c 0,37,38
 425 468 425 468 412 441 c 0,39,40
 377 373 377 373 341 349 c 0,41,42
 323 338 323 338 323 330 c 0,43,44
 323 320 323 320 301.5 281 c 128,-1,45
 280 242 280 242 264 224 c 0,46,47
 257 217 257 217 257 211 c 128,-1,48
 257 205 257 205 267 205 c 0,49,50
 276 205 276 205 282 207 c 0,51,52
 298 212 298 212 329 212 c 0,53,54
 359 212 359 212 380 210 c 0,55,56
 415 207 415 207 425 207 c 0,57,58
 429 207 429 207 438 193 c 0,59,60
 448 176 448 176 449 143 c 0,61,62
 449 116 449 116 440 114 c 0,63,64
 435 111 435 111 371.5 107.5 c 128,-1,65
 308 104 308 104 304 103 c 0,66,67
 296 101 296 101 284 101 c 0,68,69
 245 101 245 101 183 113 c 0,70,71
 161 117 161 117 148 117 c 0,72,73
 138 117 138 117 120 111 c 0,74,75
 95 102 95 102 90 106 c 0,76,77
 84 111 84 111 69.5 139.5 c 128,-1,78
 55 168 55 168 55 175 c 0,79,80
 55 181 55 181 108 233 c 0,81,82
 179 305 179 305 210 352 c 0,83,84
 227 378 227 378 249 399 c 128,-1,85
 271 420 271 420 280 420 c 0,86,87
 291 420 291 420 296 446 c 0,88,89
 298 455 298 455 312 477 c 0,90,91
 325 497 325 497 326 522 c 0,92,93
 326 538 326 538 319 554 c 0,94,95
 308 581 308 581 270 581 c 0,96,97
 246 581 246 581 222 568 c 0,98,99
 197 555 197 555 193 555 c 0,100,101
 189 555 189 555 158 538 c 0,102,103
 133 524 133 524 124 523 c 0,104,105
 118 523 118 523 109 526 c 0,106,107
 96 531 96 531 81 535 c 0,108,109
 73 535 73 535 71 544 c 0,110,111
 71 548 71 548 70 558.5 c 128,-1,112
 69 569 69 569 69 574 c 0,113,114
 69 583 69 583 72 592 c 0,115,116
 75 602 75 602 97.5 619 c 128,-1,117
 120 636 120 636 141 645 c 0,118,17
 156 652 156 652 156 655 c 128,-1,18
EndSplineSet
Validated: 1
EndChar

StartChar: three
Encoding: 51 51 17
Width: 487
GlyphClass: 1
Flags: W
LayerCount: 2
Fore
SplineSet
199 647 m 0,0,1
 221 653 221 653 255 653 c 0,2,3
 315 653 315 653 349 638 c 0,4,5
 378 626 378 626 378 616 c 0,6,7
 378 609 378 609 388 605 c 0,8,9
 400 601 400 601 410.5 570 c 128,-1,10
 421 539 421 539 421 504 c 0,11,12
 421 490 421 490 414.5 462 c 128,-1,13
 408 434 408 434 401 426 c 0,14,15
 379 398 379 398 380 391 c 0,16,17
 380 386 380 386 394 369 c 0,18,19
 434 320 434 320 434 268 c 2,20,-1
 434 258 l 1,21,22
 429 193 429 193 413 169 c 0,23,24
 405 156 405 156 385 144 c 128,-1,25
 365 132 365 132 350 132 c 2,26,-1
 349 132 l 2,27,28
 331 134 331 134 329 124 c 0,29,30
 327 116 327 116 303 108.5 c 128,-1,31
 279 101 279 101 253 101 c 0,32,33
 200 101 200 101 138.5 128 c 128,-1,34
 77 155 77 155 63 183 c 0,35,36
 57 196 57 196 57 200.5 c 128,-1,37
 57 205 57 205 63 212 c 0,38,39
 72 223 72 223 93 232.5 c 128,-1,40
 114 242 114 242 133 242 c 0,41,42
 155 242 155 242 167 230 c 0,43,44
 200 202 200 202 257 203 c 0,45,46
 282 203 282 203 293 210 c 0,47,48
 301 214 301 214 319 217 c 0,49,50
 329 218 329 218 329 220 c 0,51,52
 326 223 326 223 333 241 c 0,53,54
 338 253 338 253 338 261 c 0,55,56
 338 268 338 268 335 280 c 0,57,58
 328 307 328 307 308 315 c 128,-1,59
 288 323 288 323 223 326 c 0,60,61
 180 328 180 328 166 333 c 128,-1,62
 152 338 152 338 152 351 c 0,63,64
 152 352 152 352 152.5 354.5 c 128,-1,65
 153 357 153 357 153 359 c 0,66,67
 156 372 156 372 156 392 c 2,68,-1
 156 398 l 2,69,70
 156 417 156 417 160 420 c 0,71,72
 162 421 162 421 217 431 c 0,73,74
 273 441 273 441 283.5 445.5 c 128,-1,75
 294 450 294 450 309.5 476.5 c 128,-1,76
 325 503 325 503 325 517 c 0,77,78
 325 532 325 532 305.5 544.5 c 128,-1,79
 286 557 286 557 264 557 c 0,80,81
 259 557 259 557 251 555 c 0,82,83
 246 553 246 553 215 551 c 0,84,85
 191 550 191 550 173 536 c 2,86,-1
 155 522 l 1,87,-1
 137 542 l 2,88,89
 119 562 119 562 119 571 c 0,90,91
 119 581 119 581 114 581.5 c 128,-1,92
 109 582 109 582 109 576.5 c 128,-1,93
 109 571 109 571 100 571 c 0,94,95
 93 572 93 572 93 575.5 c 128,-1,96
 93 579 93 579 101 595 c 0,97,98
 109 612 109 612 127 626 c 128,-1,99
 145 640 145 640 160 640 c 0,100,101
 175 640 175 640 199 647 c 0,0,1
EndSplineSet
Validated: 33
EndChar

StartChar: four
Encoding: 52 52 18
Width: 591
GlyphClass: 1
Flags: W
LayerCount: 2
Fore
SplineSet
394 252 m 0,0,1
 394 254 394 254 391 254 c 0,2,3
 389 254 389 254 389 252 c 0,4,5
 389 249 389 249 391 249 c 0,6,7
 394 249 394 249 394 252 c 0,0,1
225 368 m 0,8,9
 225 371 225 371 222 371 c 0,10,11
 220 371 220 371 220 368 c 0,12,13
 220 366 220 366 222 366 c 0,14,15
 225 366 225 366 225 368 c 0,8,9
317 459 m 0,16,17
 314 476 314 476 307 476 c 128,-1,18
 300 476 300 476 300 460 c 0,19,20
 300 436 300 436 280 403 c 0,21,22
 264 378 264 378 253 369 c 1,23,-1
 254 368 l 2,24,25
 256 369 256 369 257 369 c 0,26,27
 259 370 259 370 262.5 370.5 c 128,-1,28
 266 371 266 371 272.5 372 c 128,-1,29
 279 373 279 373 282 374 c 0,30,31
 297 377 297 377 307 387 c 0,32,33
 319 401 319 401 319 437 c 0,34,35
 319 445 319 445 317 459 c 0,16,17
273 575 m 2,36,-1
 295 613 l 1,37,-1
 341 610 l 2,38,39
 402 607 402 607 415.5 602.5 c 128,-1,40
 429 598 429 598 429 575 c 0,41,42
 429 559 429 559 428 548 c 0,43,44
 422 465 422 465 420 449 c 0,45,46
 417 422 417 422 417 403 c 0,47,48
 417 393 417 393 418 392 c 0,49,50
 422 386 422 386 452 386 c 0,51,52
 498 385 498 385 523 355 c 0,53,54
 537 338 537 338 531 331 c 0,55,56
 523 323 523 323 527 315 c 0,57,58
 528 313 528 313 528 310 c 0,59,60
 528 303 528 303 523 297.5 c 128,-1,61
 518 292 518 292 511 292 c 0,62,63
 510 292 510 292 508.5 292.5 c 128,-1,64
 507 293 507 293 506 293 c 0,65,66
 495 296 495 296 495 288 c 0,67,68
 495 282 495 282 471 282 c 2,69,-1
 452 282 l 1,70,-1
 408 284 l 1,71,-1
 407 217 l 2,72,73
 406 149 406 149 395 125 c 0,74,75
 389 111 389 111 385.5 105 c 128,-1,76
 382 99 382 99 378 100 c 0,77,78
 305 114 305 114 303 119 c 0,79,80
 298 126 298 126 298 152 c 0,81,82
 298 161 298 161 299 165 c 0,83,84
 302 190 302 190 302 229.5 c 128,-1,85
 302 269 302 269 299 272 c 2,86,-1
 297 272 l 2,87,88
 283 272 283 272 217.5 253 c 128,-1,89
 152 234 152 234 143 227 c 0,90,91
 139 223 139 223 125 221 c 2,92,-1
 123 221 l 2,93,94
 112 221 112 221 93.5 226.5 c 128,-1,95
 75 232 75 232 75 237 c 0,96,97
 75 244 75 244 67 258 c 2,98,-1
 55 276 l 1,99,-1
 70 305 l 2,100,101
 85 336 85 336 121 372 c 0,102,103
 152 404 152 404 193 454 c 0,104,105
 229 499 229 499 238 502 c 0,106,107
 248 507 248 507 250 521 c 0,108,109
 251 539 251 539 273 575 c 2,36,-1
EndSplineSet
Validated: 1
EndChar

StartChar: five
Encoding: 53 53 19
Width: 502
GlyphClass: 1
Flags: W
LayerCount: 2
Fore
SplineSet
81 272 m 0,0,1
 81 275 81 275 78 275 c 0,2,3
 76 275 76 275 76 272 c 0,4,5
 76 270 76 270 78 270 c 0,6,7
 81 270 81 270 81 272 c 0,0,1
245 663 m 0,8,9
 267 665 267 665 316.5 672.5 c 128,-1,10
 366 680 366 680 394 680 c 0,11,12
 420 679 420 679 424 674.5 c 128,-1,13
 428 670 428 670 432 640 c 0,14,15
 432 639 432 639 432.5 636 c 128,-1,16
 433 633 433 633 433 632 c 0,17,18
 433 578 433 578 340 569 c 0,19,20
 321 567 321 567 287.5 562 c 128,-1,21
 254 557 254 557 239 556 c 0,22,23
 228 555 228 555 225.5 550.5 c 128,-1,24
 223 546 223 546 223 522 c 2,25,-1
 223 488 l 1,26,-1
 293 481 l 2,27,28
 361 475 361 475 369 468 c 0,29,30
 377 460 377 460 382 460 c 128,-1,31
 387 460 387 460 390 452.5 c 128,-1,32
 393 445 393 445 403 442 c 0,33,34
 411 439 411 439 411 431.5 c 128,-1,35
 411 424 411 424 418 421 c 0,36,37
 450 411 450 411 450 322 c 0,38,39
 450 291 450 291 443 258 c 0,40,41
 436 222 436 222 436 212 c 2,42,-1
 437 208 l 2,43,44
 439 204 439 204 421.5 177 c 128,-1,45
 404 150 404 150 388 132 c 0,46,47
 359 100 359 100 286 83 c 0,48,49
 269 79 269 79 238 79 c 0,50,51
 193 79 193 79 188 86 c 0,52,53
 185 91 185 91 174 91 c 0,54,55
 158 91 158 91 119.5 120.5 c 128,-1,56
 81 150 81 150 81 162 c 0,57,58
 81 168 81 168 74 175 c 0,59,60
 67 184 67 184 59 213 c 0,61,62
 55 228 55 228 55 242 c 0,63,64
 55 256 55 256 59 272 c 0,65,66
 67 302 67 302 71 302 c 0,67,68
 76 302 76 302 76 298 c 0,69,70
 76 295 76 295 82 295 c 0,71,72
 84 295 84 295 90 295.5 c 128,-1,73
 96 296 96 296 99 296 c 0,74,75
 107 296 107 296 108 292 c 0,76,77
 108 285 108 285 123 288 c 0,78,79
 124 288 124 288 126.5 288.5 c 128,-1,80
 129 289 129 289 130 289 c 0,81,82
 155 289 155 289 155 256 c 0,83,84
 155 242 155 242 166 224 c 128,-1,85
 177 206 177 206 194 195 c 0,86,87
 208 184 208 184 236 183 c 0,88,89
 295 183 295 183 326 217 c 0,90,91
 345 239 345 239 345 308 c 0,92,93
 345 356 345 356 333 369 c 0,94,95
 325 377 325 377 244 377 c 0,96,97
 209 377 209 377 189 376 c 2,98,-1
 180 376 l 2,99,100
 148 376 148 376 134.5 385 c 128,-1,101
 121 394 121 394 121 416 c 0,102,103
 121 424 121 424 122 428 c 0,104,105
 126 456 126 456 129 459 c 0,106,107
 135 465 135 465 129 480 c 0,108,109
 126 488 126 488 126 511 c 0,110,111
 126 526 126 526 127 534 c 0,112,113
 128 543 128 543 128 556 c 0,114,115
 128 573 128 573 122 581 c 0,116,117
 115 590 115 590 115 600 c 0,118,119
 115 624 115 624 136 639 c 0,120,121
 165 659 165 659 245 663 c 0,8,9
EndSplineSet
Validated: 33
EndChar

StartChar: six
Encoding: 54 54 20
Width: 493
GlyphClass: 1
Flags: W
LayerCount: 2
Fore
SplineSet
309 362 m 0,0,1
 293 378 293 378 270 379 c 0,2,3
 236 379 236 379 193 340 c 0,4,5
 170 318 170 318 164 308.5 c 128,-1,6
 158 299 158 299 158 281 c 0,7,8
 158 262 158 262 177 243 c 0,9,10
 208 214 208 214 243 214 c 0,11,12
 252 214 252 214 257 215 c 0,13,14
 302 223 302 223 315 246 c 0,15,16
 322 256 322 256 323 303 c 2,17,-1
 323 319 l 2,18,19
 322 349 322 349 309 362 c 0,0,1
336 610 m 0,20,21
 336 613 336 613 334 613 c 0,22,23
 331 613 331 613 331 610 c 0,24,25
 331 608 331 608 334 608 c 0,26,27
 336 608 336 608 336 610 c 0,20,21
284 637 m 0,28,29
 284 640 284 640 281 640 c 0,30,31
 279 640 279 640 279 637 c 0,32,33
 279 635 279 635 281 635 c 0,34,35
 284 635 284 635 284 637 c 0,28,29
240 662 m 0,36,37
 250 664 250 664 268 664 c 0,38,39
 313 664 313 664 329 657 c 0,40,41
 338 654 338 654 343 609 c 0,42,43
 344 605 344 605 344 597 c 0,44,45
 344 582 344 582 335.5 575.5 c 128,-1,46
 327 569 327 569 306 569 c 0,47,48
 284 569 284 569 263.5 559 c 128,-1,49
 243 549 243 549 236 535 c 0,50,51
 231 525 231 525 217 520 c 0,52,53
 204 517 204 517 204 507 c 0,54,55
 204 496 204 496 199 485 c 0,56,57
 193 474 193 474 197 473 c 0,58,59
 200 473 200 473 212 479 c 0,60,61
 225 486 225 486 262 486 c 0,62,63
 292 486 292 486 313 480 c 0,64,65
 329 476 329 476 361 454.5 c 128,-1,66
 393 433 393 433 394 427 c 0,67,68
 394 423 394 423 408 402 c 0,69,70
 419 385 419 385 429 340 c 0,71,72
 438 302 438 302 438 294 c 0,73,74
 438 260 438 260 421 213 c 0,75,76
 397 154 397 154 379 146 c 0,77,78
 368 140 368 140 352 130 c 0,79,80
 319 105 319 105 249 105 c 0,81,82
 208 105 208 105 182 117 c 0,83,84
 121 147 121 147 117 159 c 0,85,86
 116 165 116 165 99 177 c 0,87,88
 87 185 87 185 80.5 197.5 c 128,-1,89
 74 210 74 210 62 249 c 0,90,91
 53 276 53 276 53 309 c 0,92,93
 53 331 53 331 54 344 c 0,94,95
 57 426 57 426 73 463 c 0,96,97
 103 534 103 534 120 534 c 0,98,99
 124 534 124 534 130 530 c 0,100,101
 137 526 137 526 139 526 c 128,-1,102
 141 526 141 526 141 531 c 0,103,104
 141 539 141 539 135 539.5 c 128,-1,105
 129 540 129 540 129 547 c 0,106,107
 129 558 129 558 142 576 c 128,-1,108
 155 594 155 594 167 598 c 0,109,110
 181 603 181 603 188 620 c 0,111,112
 202 650 202 650 240 662 c 0,36,37
EndSplineSet
Validated: 1
EndChar

StartChar: seven
Encoding: 55 55 21
Width: 496
GlyphClass: 1
Flags: W
LayerCount: 2
Fore
SplineSet
209 422 m 128,-1,1
 209 424 209 424 233 462.5 c 128,-1,2
 257 501 257 501 257 503 c 128,-1,3
 257 505 257 505 265 513 c 0,4,5
 272 520 272 520 272 528 c 0,6,7
 272 540 272 540 291 566 c 0,8,9
 307 591 307 591 307 595 c 0,10,11
 307 596 307 596 305 596 c 0,12,13
 302 596 302 596 296 593 c 0,14,15
 259 573 259 573 177 562 c 0,16,17
 100 553 100 553 97 552 c 0,18,19
 78 548 78 548 78 557 c 128,-1,20
 78 566 78 566 73 566 c 128,-1,21
 68 566 68 566 62 581 c 128,-1,22
 56 596 56 596 56 611 c 0,23,24
 56 622 56 622 57.5 625.5 c 128,-1,25
 59 629 59 629 65 628 c 0,26,27
 72 625 72 625 75 630 c 128,-1,28
 78 635 78 635 96 642 c 0,29,30
 111 649 111 649 167.5 660.5 c 128,-1,31
 224 672 224 672 241 672 c 0,32,33
 255 672 255 672 259 676 c 0,34,35
 263 681 263 681 341 697 c 0,36,37
 356 700 356 700 374 700 c 2,38,-1
 382 700 l 2,39,40
 399 698 399 698 415 686 c 128,-1,41
 431 674 431 674 431 663 c 0,42,43
 431 651 431 651 436 650 c 0,44,45
 439 650 439 650 439 639 c 0,46,47
 439 603 439 603 429 595 c 0,48,49
 415 584 415 584 347 452 c 0,50,51
 311 384 311 384 297 364 c 0,52,53
 252 296 252 296 252 285 c 0,54,55
 252 281 252 281 225.5 225.5 c 128,-1,56
 199 170 199 170 199 158 c 0,57,58
 199 134 199 134 171 88 c 0,59,60
 164 76 164 76 154 83 c 0,61,62
 144 91 144 91 137 91 c 0,63,64
 127 91 127 91 106 101 c 2,65,-1
 84 112 l 1,66,-1
 97 171 l 2,67,68
 110 232 110 232 119 244 c 0,69,70
 126 254 126 254 145 302.5 c 128,-1,71
 164 351 164 351 171 361 c 0,72,73
 183 380 183 380 183 385 c 0,74,75
 183 388 183 388 196 404 c 128,-1,0
 209 420 209 420 209 422 c 128,-1,1
EndSplineSet
Validated: 1
EndChar

StartChar: eight
Encoding: 56 56 22
Width: 528
GlyphClass: 1
Flags: W
LayerCount: 2
Fore
SplineSet
329 338 m 0,0,1
 318 351 318 351 304 349 c 0,2,3
 288 348 288 348 246 332 c 128,-1,4
 204 316 204 316 194 306 c 0,5,6
 153 268 153 268 153 255 c 0,7,8
 153 250 153 250 158 240 c 0,9,10
 174 211 174 211 229 185 c 0,11,12
 243 178 243 178 302 178 c 0,13,14
 334 178 334 178 352 182 c 0,15,16
 374 188 374 188 374 247 c 0,17,18
 374 287 374 287 329 338 c 0,0,1
172 505 m 0,19,20
 172 508 172 508 169 508 c 0,21,22
 167 508 167 508 167 505 c 0,23,24
 167 503 167 503 169 503 c 0,25,26
 172 503 172 503 172 505 c 0,19,20
314 566 m 0,27,28
 298 575 298 575 292 568 c 0,29,30
 291 567 291 567 256 565 c 0,31,32
 222 565 222 565 210 554 c 0,33,34
 199 544 199 544 199 528 c 0,35,36
 199 512 199 512 210 507 c 0,37,38
 222 500 222 500 228 494 c 0,39,40
 233 489 233 489 260.5 480 c 128,-1,41
 288 471 288 471 299 471 c 0,42,43
 307 471 307 471 318.5 484.5 c 128,-1,44
 330 498 330 498 333 511 c 0,45,46
 334 513 334 513 334 519 c 0,47,48
 334 532 334 532 327.5 547 c 128,-1,49
 321 562 321 562 314 566 c 0,27,28
245 672 m 0,50,51
 248 674 248 674 259 674 c 0,52,53
 299 674 299 674 357 658 c 0,54,55
 366 656 366 656 376 647 c 128,-1,56
 386 638 386 638 399 621 c 128,-1,57
 412 604 412 604 413 603 c 0,58,59
 436 576 436 576 435 517 c 0,60,61
 435 497 435 497 428.5 474.5 c 128,-1,62
 422 452 422 452 415 447 c 0,63,64
 410 444 410 444 401.5 427.5 c 128,-1,65
 393 411 393 411 393 403 c 0,66,67
 393 399 393 399 395 397 c 2,68,-1
 397 398 l 2,69,70
 400 401 400 401 410 393 c 128,-1,71
 420 385 420 385 420 380 c 0,72,73
 420 377 420 377 434.5 363 c 128,-1,74
 449 349 449 349 449 345 c 0,75,76
 449 339 449 339 454 334 c 0,77,78
 474 317 474 317 474 249 c 2,79,-1
 474 241 l 2,80,81
 472 155 472 155 450 128 c 0,82,83
 425 98 425 98 392 86.5 c 128,-1,84
 359 75 359 75 303 75 c 0,85,86
 200 75 200 75 109 140 c 0,87,88
 83 156 83 156 69 189 c 0,89,90
 55 218 55 218 54 246 c 2,91,-1
 54 259 l 2,92,93
 55 296 55 296 67 317 c 0,94,95
 75 334 75 334 102.5 360.5 c 128,-1,96
 130 387 130 387 153 398 c 2,97,-1
 173 409 l 1,98,-1
 142 439 l 2,99,100
 99 479 99 479 99 517 c 0,101,102
 99 535 99 535 113 567 c 0,103,104
 122 586 122 586 128 587 c 0,105,106
 131 587 131 587 131 599 c 0,107,108
 131 608 131 608 164 637 c 0,109,110
 205 671 205 671 224 671 c 0,111,112
 229 671 229 671 231 670 c 0,113,114
 238 667 238 667 245 672 c 0,50,51
EndSplineSet
Validated: 33
EndChar

StartChar: nine
Encoding: 57 57 23
Width: 459
GlyphClass: 1
Flags: W
LayerCount: 2
Fore
SplineSet
293 586 m 128,-1,1
 291 592 291 592 279 592 c 0,2,3
 263 592 263 592 235.5 582.5 c 128,-1,4
 208 573 208 573 205 570 c 0,5,6
 181 550 181 550 165 480 c 0,7,8
 155 436 155 436 155 418 c 0,9,10
 155 388 155 388 171 384 c 0,11,12
 172 384 172 384 173.5 383.5 c 128,-1,13
 175 383 175 383 176 383 c 0,14,15
 194 383 194 383 224.5 410.5 c 128,-1,16
 255 438 255 438 274 473 c 0,17,18
 293 509 293 509 295 544 c 2,19,-1
 295 555 l 2,20,0
 295 580 295 580 293 586 c 128,-1,1
194 676 m 0,21,22
 222 687 222 687 269 687 c 0,23,24
 295 687 295 687 300 682 c 0,25,26
 309 673 309 673 348 673 c 0,27,28
 360 673 360 673 360 676 c 0,29,30
 360 681 360 681 365 681 c 0,31,32
 373 681 373 681 390 664 c 2,33,-1
 409 645 l 1,34,-1
 404 572 l 2,35,36
 401 523 401 523 401 417 c 2,37,-1
 401 379 l 1,38,-1
 401 356 l 2,39,40
 401 259 401 259 394 213 c 128,-1,41
 387 167 387 167 368 146 c 0,42,43
 356 134 356 134 346 134 c 0,44,45
 338 134 338 134 332 135 c 0,46,47
 317 137 317 137 311 141.5 c 128,-1,48
 305 146 305 146 297 162 c 0,49,50
 288 184 288 184 288 198 c 0,51,52
 288 210 288 210 289 218 c 0,53,54
 290 228 290 228 292 258 c 128,-1,55
 294 288 294 288 295 296 c 2,56,-1
 298 340 l 1,57,-1
 281 327 l 2,58,59
 274 321 274 321 240 303 c 0,60,61
 203 281 203 281 174 282 c 0,62,63
 148 282 148 282 120 297 c 0,64,65
 102 306 102 306 93 315.5 c 128,-1,66
 84 325 84 325 70 349 c 0,67,68
 55 377 55 377 54 422 c 0,69,70
 54 509 54 509 100 589 c 0,71,72
 139 654 139 654 194 676 c 0,21,22
EndSplineSet
Validated: 33
EndChar

StartChar: colon
Encoding: 58 58 24
Width: 244
GlyphClass: 1
Flags: W
LayerCount: 2
Fore
SplineSet
102 524 m 0,0,1
 107 525 107 525 134 528 c 2,2,-1
 135 528 l 2,3,4
 160 528 160 528 175 510 c 128,-1,5
 190 492 190 492 190 464 c 0,6,7
 190 449 190 449 186 436 c 0,8,9
 180 419 180 419 161 408 c 128,-1,10
 142 397 142 397 122 397 c 0,11,12
 104 397 104 397 92 406 c 0,13,14
 82 414 82 414 73.5 430.5 c 128,-1,15
 65 447 65 447 65 462 c 0,16,17
 65 477 65 477 78 499 c 128,-1,18
 91 521 91 521 102 524 c 0,0,1
94 217 m 0,19,20
 98 223 98 223 126 223 c 128,-1,21
 154 223 154 223 172 208 c 0,22,23
 188 193 188 193 188 171 c 2,24,-1
 188 158 l 2,25,26
 187 124 187 124 175 110 c 128,-1,27
 163 96 163 96 128 92 c 0,28,29
 127 92 127 92 124.5 91.5 c 128,-1,30
 122 91 122 91 121 91 c 0,31,32
 91 91 91 91 65 118 c 0,33,34
 55 128 55 128 54 153 c 0,35,36
 54 176 54 176 62.5 194 c 128,-1,37
 71 212 71 212 82 212 c 0,38,39
 91 212 91 212 94 217 c 0,19,20
EndSplineSet
Validated: 1
EndChar

StartChar: question
Encoding: 63 63 25
Width: 408
GlyphClass: 1
Flags: W
LayerCount: 2
Fore
SplineSet
133 651 m 0,0,1
 156 659 156 659 197 659 c 0,2,3
 239 659 239 659 258 651 c 0,4,5
 270 646 270 646 298.5 621.5 c 128,-1,6
 327 597 327 597 333 586 c 0,7,8
 338 577 338 577 351 490 c 1,9,-1
 351 483 l 2,10,11
 351 464 351 464 343 432 c 128,-1,12
 335 400 335 400 325 380 c 0,13,14
 316 362 316 362 291 339.5 c 128,-1,15
 266 317 266 317 251 314 c 0,16,17
 223 309 223 309 223 280 c 0,18,19
 223 273 223 273 224 269 c 0,20,21
 225 264 225 264 225 258 c 0,22,23
 225 249 225 249 217.5 245 c 128,-1,24
 210 241 210 241 183 231 c 0,25,26
 168 225 168 225 158 225 c 0,27,28
 145 225 145 225 131 248 c 0,29,30
 121 265 121 265 121 284 c 0,31,32
 121 286 121 286 121.5 292 c 128,-1,33
 122 298 122 298 122 302 c 0,34,35
 124 327 124 327 127.5 336.5 c 128,-1,36
 131 346 131 346 144 361 c 0,37,38
 166 387 166 387 195 401 c 0,39,40
 228 418 228 418 236.5 431 c 128,-1,41
 245 444 245 444 247 480 c 2,42,-1
 247 495 l 2,43,44
 247 527 247 527 239 540.5 c 128,-1,45
 231 554 231 554 212 557 c 0,46,47
 208 558 208 558 198 558 c 0,48,49
 168 558 168 558 143 545 c 0,50,51
 137 542 137 542 117 542 c 0,52,53
 65 542 65 542 59 551 c 0,54,55
 56 555 56 555 56 578 c 0,56,57
 57 591 57 591 61.5 598.5 c 128,-1,58
 66 606 66 606 82 621 c 0,59,60
 108 643 108 643 133 651 c 0,0,1
146 195 m 0,61,62
 161 210 161 210 185 211 c 2,63,-1
 195 211 l 2,64,65
 211 211 211 211 228 191 c 0,66,67
 248 167 248 167 249 140 c 0,68,69
 249 129 249 129 248 123 c 0,70,71
 246 115 246 115 231 99 c 128,-1,72
 216 83 216 83 209 83 c 2,73,-1
 208 83 l 2,74,75
 201 86 201 86 198 81 c 128,-1,76
 195 76 195 76 187 76 c 0,77,78
 173 76 173 76 150.5 93 c 128,-1,79
 128 110 128 110 126 120 c 0,80,81
 126 129 126 129 124 143 c 2,82,-1
 124 150 l 2,83,84
 123 171 123 171 146 195 c 0,61,62
EndSplineSet
Validated: 33
EndChar

StartChar: at
Encoding: 64 64 26
Width: 721
GlyphClass: 1
Flags: W
LayerCount: 2
Fore
SplineSet
375 409 m 0,0,1
 377 417 377 417 374 417 c 0,2,3
 370 418 370 418 354 411 c 0,4,5
 334 402 334 402 317 348 c 0,6,7
 311 330 311 330 311 318 c 0,8,9
 311 302 311 302 325 302 c 0,10,11
 333 302 333 302 342 306 c 0,12,13
 360 314 360 314 369 373 c 0,14,15
 373 405 373 405 375 409 c 0,0,1
308 468 m 0,16,17
 308 471 308 471 306 471 c 0,18,19
 303 471 303 471 303 468 c 0,20,21
 303 466 303 466 306 466 c 0,22,23
 308 466 308 466 308 468 c 0,16,17
92 174 m 0,24,25
 92 180 92 180 81.5 196.5 c 128,-1,26
 71 213 71 213 71 218 c 0,27,28
 71 227 71 227 63 232 c 0,29,30
 53 241 53 241 53 289 c 0,31,32
 53 339 53 339 64 400 c 128,-1,33
 75 461 75 461 89 486 c 0,34,35
 111 524 111 524 152.5 570 c 128,-1,36
 194 616 194 616 216 628 c 0,37,38
 224 633 224 633 231.5 638 c 128,-1,39
 239 643 239 643 244.5 646 c 128,-1,40
 250 649 250 649 264 655 c 0,41,42
 289 665 289 665 303 666 c 0,43,44
 313 666 313 666 316 658 c 0,45,46
 320 650 320 650 325 650 c 0,47,48
 330 650 330 650 330 658 c 0,49,50
 330 664 330 664 336.5 666 c 128,-1,51
 343 668 343 668 347 662 c 0,52,53
 352 657 352 657 377 659 c 0,54,55
 379 659 379 659 383 659.5 c 128,-1,56
 387 660 387 660 388 660 c 0,57,58
 402 660 402 660 438 644 c 0,59,60
 550 588 550 588 548 561 c 0,61,62
 548 550 548 550 553 550 c 0,63,64
 561 550 561 550 587.5 523 c 128,-1,65
 614 496 614 496 622 481 c 0,66,67
 635 454 635 454 643 439 c 2,68,-1
 651 423 l 2,69,70
 665 400 665 400 666 348 c 0,71,72
 666 297 666 297 651 276 c 0,73,74
 642 264 642 264 625 234 c 0,75,76
 597 191 597 191 559 183 c 0,77,78
 541 180 541 180 522 180 c 0,79,80
 461 180 461 180 429 214 c 2,81,-1
 410 234 l 1,82,-1
 395 223 l 2,83,84
 384 215 384 215 351 204 c 0,85,86
 332 198 332 198 319 198 c 0,87,88
 308 198 308 198 292 202 c 0,89,90
 260 209 260 209 242 229 c 0,91,92
 225 248 225 248 224 260 c 0,93,94
 224 269 224 269 218 282 c 0,95,96
 210 298 210 298 210 326 c 0,97,98
 210 340 210 340 213 342 c 0,99,100
 219 346 219 346 219 360 c 0,101,102
 219 370 219 370 224 378.5 c 128,-1,103
 229 387 229 387 229 396 c 0,104,105
 229 418 229 418 252.5 451.5 c 128,-1,106
 276 485 276 485 292 486 c 0,107,108
 297 486 297 486 312 498 c 0,109,110
 325 507 325 507 361 510 c 0,111,112
 367 511 367 511 379 511 c 0,113,114
 423 511 423 511 461 481 c 0,115,116
 472 471 472 471 475 461.5 c 128,-1,117
 478 452 478 452 482 415 c 0,118,119
 493 314 493 314 502 288 c 0,120,121
 504 281 504 281 522 281 c 0,122,123
 535 281 535 281 540 285 c 128,-1,124
 545 289 545 289 552 305 c 0,125,126
 565 335 565 335 565 354 c 0,127,128
 565 369 565 369 557 389 c 0,129,130
 546 414 546 414 546 419 c 128,-1,131
 546 424 546 424 528.5 448 c 128,-1,132
 511 472 511 472 499 483 c 0,133,134
 483 497 483 497 482.5 501.5 c 128,-1,135
 482 506 482 506 464 515 c 0,136,137
 436 528 436 528 415 544 c 0,138,139
 383 563 383 563 350 567 c 0,140,141
 347 567 347 567 341.5 567.5 c 128,-1,142
 336 568 336 568 334 568 c 0,143,144
 307 568 307 568 287 556.5 c 128,-1,145
 267 545 267 545 242 515 c 0,146,147
 233 504 233 504 216.5 486 c 128,-1,148
 200 468 200 468 199 467 c 0,149,150
 188 456 188 456 187 452 c 0,151,152
 187 450 187 450 179 439 c 0,153,154
 172 432 172 432 168 415 c 0,155,156
 155 345 155 345 155 311 c 0,157,158
 155 278 155 278 170 237 c 0,159,160
 184 201 184 201 211 166 c 128,-1,161
 238 131 238 131 260 120 c 0,162,163
 278 112 278 112 309 112 c 0,164,165
 313 112 313 112 323 112.5 c 128,-1,166
 333 113 333 113 340 113 c 0,167,168
 398 115 398 115 412 121 c 0,169,170
 422 126 422 126 449 128 c 2,171,-1
 475 130 l 1,172,173
 477 118 477 118 481.5 94 c 128,-1,174
 486 70 486 70 489 57 c 1,175,-1
 476 45 l 2,176,177
 439 13 439 13 335 13 c 0,178,179
 304 13 304 13 261 18 c 0,180,181
 231 22 231 22 222 26 c 128,-1,182
 213 30 213 30 202 41 c 0,183,184
 188 58 188 58 181 56 c 2,185,-1
 180 56 l 2,186,187
 175 56 175 56 147 82 c 0,188,189
 125 102 125 102 108.5 131 c 128,-1,190
 92 160 92 160 92 174 c 0,24,25
EndSplineSet
Validated: 33
EndChar

StartChar: A
Encoding: 65 65 27
Width: 609
GlyphClass: 1
Flags: W
LayerCount: 2
Fore
SplineSet
345 445 m 0,0,1
 345 450 345 450 329 484 c 128,-1,2
 313 518 313 518 309 520 c 2,3,-1
 308 520 l 1,4,-1
 307 521 l 1,5,6
 301 521 301 521 294 512 c 128,-1,7
 287 503 287 503 287 494.5 c 128,-1,8
 287 486 287 486 276 454.5 c 128,-1,9
 265 423 265 423 257 408 c 0,10,11
 252 399 252 399 253.5 396 c 128,-1,12
 255 393 255 393 267 390 c 0,13,14
 279 388 279 388 299 388 c 0,15,16
 317 388 317 388 326 389 c 0,17,18
 364 391 364 391 364 399 c 0,19,20
 364 402 364 402 362 404 c 0,21,22
 357 418 357 418 352 427 c 0,23,24
 345 438 345 438 345 445 c 0,0,1
283 686 m 0,25,26
 294 692 294 692 302 679 c 0,27,28
 311 666 311 666 328 663 c 0,29,30
 343 660 343 660 367.5 636 c 128,-1,31
 392 612 392 612 392 601 c 0,32,33
 392 594 392 594 398 582 c 0,34,35
 400 578 400 578 410 544.5 c 128,-1,36
 420 511 420 511 423 506 c 0,37,38
 429 500 429 500 455 421 c 0,39,40
 483 338 483 338 493 312.5 c 128,-1,41
 503 287 503 287 503 274 c 0,42,43
 503 265 503 265 516 245 c 0,44,45
 527 230 527 230 535.5 202 c 128,-1,46
 544 174 544 174 549 167 c 0,47,48
 554 159 554 159 554 139 c 0,49,50
 554 121 554 121 549 113 c 0,51,52
 537 96 537 96 505 95 c 0,53,54
 498 95 498 95 494 96 c 0,55,56
 479 99 479 99 464 107.5 c 128,-1,57
 449 116 449 116 449 121 c 0,58,59
 449 130 449 130 444 146 c 0,60,61
 437 172 437 172 436 182 c 0,62,63
 434 198 434 198 424 211 c 0,64,65
 413 223 413 223 408 246 c 0,66,67
 401 276 401 276 392 282 c 128,-1,68
 383 288 383 288 342 288 c 2,69,-1
 299 288 l 1,70,-1
 210 287 l 1,71,-1
 199 262 l 2,72,73
 195 254 195 254 189.5 244 c 128,-1,74
 184 234 184 234 182 231 c 128,-1,75
 180 228 180 228 177 220.5 c 128,-1,76
 174 213 174 213 171.5 205 c 128,-1,77
 169 197 169 197 165 182 c 0,78,79
 145 113 145 113 96 111 c 0,80,81
 83 110 83 110 78.5 111.5 c 128,-1,82
 74 113 74 113 75 117 c 0,83,84
 76 123 76 123 65 132 c 0,85,86
 56 139 56 139 55 148 c 0,87,88
 55 150 55 150 57 167 c 0,89,90
 59 182 59 182 61 189.5 c 128,-1,91
 63 197 63 197 68 206.5 c 128,-1,92
 73 216 73 216 76 225 c 0,93,94
 94 283 94 283 150 404 c 0,95,96
 176 460 176 460 177 481 c 0,97,98
 179 500 179 500 201 554.5 c 128,-1,99
 223 609 223 609 234 622 c 0,100,101
 244 632 244 632 245 638 c 0,102,103
 245 645 245 645 259.5 663 c 128,-1,104
 274 681 274 681 283 686 c 0,25,26
118 104 m 0,105,106
 118 106 118 106 121 106 c 0,107,108
 123 106 123 106 123 104 c 0,109,110
 123 101 123 101 121 101 c 0,111,112
 118 101 118 101 118 104 c 0,105,106
EndSplineSet
Validated: 1
EndChar

StartChar: B
Encoding: 66 66 28
Width: 596
GlyphClass: 1
Flags: W
LayerCount: 2
Fore
SplineSet
387 295 m 0,0,1
 352 314 352 314 338 314 c 0,2,3
 332 314 332 314 324 311 c 0,4,5
 278 292 278 292 239 286 c 0,6,7
 194 279 194 279 185.5 272.5 c 128,-1,8
 177 266 177 266 174 236 c 0,9,10
 172 213 172 213 172 211 c 0,11,12
 172 200 172 200 178 194 c 0,13,14
 186 184 186 184 186 173 c 0,15,16
 186 150 186 150 216 151 c 0,17,18
 228 151 228 151 236 152 c 0,19,20
 281 156 281 156 357.5 179.5 c 128,-1,21
 434 203 434 203 441 214 c 0,22,23
 445 221 445 221 445 229 c 0,24,25
 445 262 445 262 387 295 c 0,0,1
234 588 m 0,26,27
 229 588 229 588 218 588.5 c 128,-1,28
 207 589 207 589 201 589 c 0,29,30
 173 589 173 589 169 580 c 1,31,-1
 169 572 l 2,32,33
 169 564 169 564 171 523 c 0,34,35
 173 501 173 501 177 445 c 0,36,37
 179 417 179 417 184 415 c 0,38,39
 186 414 186 414 190 414 c 0,40,41
 197 414 197 414 211 417 c 0,42,43
 235 422 235 422 281 426 c 0,44,45
 316 428 316 428 327.5 434 c 128,-1,46
 339 440 339 440 340 456 c 0,47,48
 340 463 340 463 347.5 470 c 128,-1,49
 355 477 355 477 355 483 c 2,50,-1
 354 485 l 2,51,52
 354 486 354 486 354 487 c 0,53,54
 349 510 349 510 302.5 548.5 c 128,-1,55
 256 587 256 587 234 588 c 0,26,27
147 689 m 0,56,57
 159 691 159 691 186 691 c 0,58,59
 192 691 192 691 205 690.5 c 128,-1,60
 218 690 218 690 224 690 c 0,61,62
 273 689 273 689 295 680 c 128,-1,63
 317 671 317 671 364 633 c 0,64,65
 417 590 417 590 432 562.5 c 128,-1,66
 447 535 447 535 447 481 c 2,67,-1
 447 464 l 2,68,69
 447 429 447 429 436 413 c 2,70,-1
 425 394 l 1,71,-1
 454 378 l 2,72,73
 477 366 477 366 506 335 c 128,-1,74
 535 304 535 304 535 293 c 0,75,76
 536 288 536 288 540 245 c 0,77,78
 543 227 543 227 543 216 c 0,79,80
 543 200 543 200 523 157 c 0,81,82
 517 143 517 143 483.5 121 c 128,-1,83
 450 99 450 99 419 89 c 0,84,85
 295 48 295 48 237 48 c 0,86,87
 233 48 233 48 225 48.5 c 128,-1,88
 217 49 217 49 212 49 c 0,89,90
 168 51 168 51 138.5 66.5 c 128,-1,91
 109 82 109 82 104.5 91 c 128,-1,92
 100 100 100 100 82 105 c 0,93,94
 53 114 53 114 53 135 c 0,95,96
 53 150 53 150 66 178 c 0,97,98
 77 206 77 206 77 246 c 0,99,100
 77 257 77 257 73 329 c 0,101,102
 71 354 71 354 71 495 c 0,103,104
 71 605 71 605 72 625 c 0,105,106
 74 654 74 654 81 665 c 128,-1,107
 88 676 88 676 105 677 c 0,108,109
 116 677 116 677 121 681 c 0,110,111
 127 687 127 687 147 689 c 0,56,57
EndSplineSet
Validated: 33
EndChar

StartChar: C
Encoding: 67 67 29
Width: 687
GlyphClass: 1
Flags: W
LayerCount: 2
Fore
SplineSet
509 550 m 0,0,1
 506 550 506 550 488 536.5 c 128,-1,2
 470 523 470 523 465 523 c 0,3,4
 459 523 459 523 428 543 c 0,5,6
 368 582 368 582 321 582 c 0,7,8
 297 582 297 582 281 571 c 0,9,10
 263 559 263 559 245 537 c 0,11,12
 225 510 225 510 215 504 c 0,13,14
 205 496 205 496 191.5 452.5 c 128,-1,15
 178 409 178 409 177 379 c 2,16,-1
 177 373 l 2,17,18
 177 322 177 322 208 263 c 0,19,20
 255 173 255 173 333 173 c 0,21,22
 335 173 335 173 338.5 173.5 c 128,-1,23
 342 174 342 174 344 174 c 0,24,25
 359 175 359 175 383.5 184 c 128,-1,26
 408 193 408 193 416 199 c 0,27,28
 421 204 421 204 441 212 c 0,29,30
 465 221 465 221 492.5 241 c 128,-1,31
 520 261 520 261 527 274 c 0,32,33
 538 291 538 291 546 292 c 2,34,-1
 556 292 l 2,35,36
 594 292 594 292 617 282 c 0,37,38
 627 278 627 278 629.5 272 c 128,-1,39
 632 266 632 266 632 244 c 0,40,41
 632 211 632 211 623 198 c 0,42,43
 615 184 615 184 585.5 156 c 128,-1,44
 556 128 556 128 549 128 c 128,-1,45
 542 128 542 128 542 123 c 128,-1,46
 542 118 542 118 522 112 c 0,47,48
 502 105 502 105 458 84 c 0,49,50
 424 68 424 68 410.5 64.5 c 128,-1,51
 397 61 397 61 357 61 c 0,52,53
 277 61 277 61 222 93 c 128,-1,54
 167 125 167 125 118 199 c 0,55,56
 98 229 98 229 71 299 c 0,57,58
 56 341 56 341 55 403 c 2,59,-1
 55 410 l 2,60,61
 57 443 57 443 88 508.5 c 128,-1,62
 119 574 119 574 151 611 c 0,63,64
 175 639 175 639 204 662 c 128,-1,65
 233 685 233 685 253 690 c 0,66,67
 273 695 273 695 294 695 c 0,68,69
 312 695 312 695 317 691 c 0,70,71
 320 689 320 689 351 685 c 0,72,73
 379 681 379 681 412 667.5 c 128,-1,74
 445 654 445 654 464 640 c 0,75,76
 482 624 482 624 489 624 c 0,77,78
 503 624 503 624 519 594 c 0,79,80
 522 588 522 588 522 580 c 0,81,82
 522 569 522 569 518 559.5 c 128,-1,83
 514 550 514 550 509 550 c 0,0,1
EndSplineSet
Validated: 1
EndChar

StartChar: D
Encoding: 68 68 30
Width: 606
GlyphClass: 1
Flags: W
LayerCount: 2
Fore
SplineSet
73 505 m 0,0,1
 73 508 73 508 70 508 c 128,-1,2
 67 508 67 508 67 505 c 0,3,4
 67 503 67 503 70 503 c 128,-1,5
 73 503 73 503 73 505 c 0,0,1
261 588 m 0,6,7
 250 594 250 594 207 594 c 0,8,9
 188 594 188 594 180 593 c 0,10,11
 162 590 162 590 162 557 c 0,12,13
 162 545 162 545 154 545 c 0,14,15
 147 545 147 545 150 539 c 0,16,17
 157 529 157 529 160 445 c 128,-1,18
 163 361 163 361 164 282.5 c 128,-1,19
 165 204 165 204 166 203 c 2,20,-1
 169 201 l 2,21,22
 172 200 172 200 177 198 c 128,-1,23
 182 196 182 196 187 194 c 0,24,25
 202 187 202 187 245 186 c 0,26,27
 314 186 314 186 339 202 c 0,28,29
 401 238 401 238 429 339 c 0,30,31
 438 374 438 374 438 379 c 2,32,-1
 438 384 l 2,33,34
 438 402 438 402 432.5 441 c 128,-1,35
 427 480 427 480 423 487 c 0,36,37
 417 498 417 498 384.5 526.5 c 128,-1,38
 352 555 352 555 345 555 c 0,39,40
 339 555 339 555 319.5 568.5 c 128,-1,41
 300 582 300 582 286 582 c 0,42,43
 273 582 273 582 261 588 c 0,6,7
214 700 m 0,44,45
 216 702 216 702 219 702 c 0,46,47
 224 702 224 702 240 697.5 c 128,-1,48
 256 693 256 693 257 693 c 0,49,50
 324 679 324 679 363 661 c 128,-1,51
 402 643 402 643 462 599 c 0,52,53
 499 570 499 570 513.5 549 c 128,-1,54
 528 528 528 528 543 484 c 0,55,56
 554 445 554 445 554 397 c 2,57,-1
 554 384 l 2,58,59
 553 329 553 329 547 316.5 c 128,-1,60
 541 304 541 304 541 291 c 0,61,62
 539 275 539 275 536 272 c 0,63,64
 532 268 532 268 531 262 c 0,65,66
 531 255 531 255 522 241 c 0,67,68
 516 233 516 233 513 219 c 0,69,70
 511 205 511 205 471.5 163 c 128,-1,71
 432 121 432 121 408 108 c 0,72,73
 382 93 382 93 343 82 c 128,-1,74
 304 71 304 71 275 71 c 0,75,76
 273 71 273 71 269 71.5 c 128,-1,77
 265 72 265 72 263 72 c 0,78,79
 172 82 172 82 155 94 c 0,80,81
 143 102 143 102 117 112 c 0,82,83
 99 118 99 118 88.5 129 c 128,-1,84
 78 140 78 140 65 168 c 2,85,-1
 51 196 l 1,86,-1
 53 350 l 2,87,88
 55 506 55 506 56 510 c 0,89,90
 56 527 56 527 54 542 c 0,91,92
 53 547 53 547 53 563.5 c 128,-1,93
 53 580 53 580 55 602.5 c 128,-1,94
 57 625 57 625 61.5 633.5 c 128,-1,95
 66 642 66 642 80 657 c 0,96,97
 100 679 100 679 118 686.5 c 128,-1,98
 136 694 136 694 172 695 c 0,99,100
 211 697 211 697 214 700 c 0,44,45
EndSplineSet
Validated: 1
EndChar

StartChar: E
Encoding: 69 69 31
Width: 531
GlyphClass: 1
Flags: W
LayerCount: 2
Fore
SplineSet
69 638 m 1,0,-1
 70 638 l 2,1,2
 76 638 76 638 99.5 648 c 128,-1,3
 123 658 123 658 123 660 c 1,4,-1
 151 655 l 2,5,6
 164 652 164 652 176 652 c 0,7,8
 190 652 190 652 200 656 c 0,9,10
 210 659 210 659 216 659 c 0,11,12
 220 659 220 659 227 656.5 c 128,-1,13
 234 654 234 654 242 654 c 0,14,15
 248 654 248 654 253 655 c 0,16,17
 269 658 269 658 328 658 c 0,18,19
 438 658 438 658 440 652 c 0,20,21
 444 646 444 646 457 646 c 0,22,23
 471 645 471 645 471 639 c 0,24,25
 471 634 471 634 468 618 c 0,26,27
 465 606 465 606 465 592 c 0,28,29
 465 584 465 584 466 581 c 0,30,31
 469 567 469 567 461 566 c 0,32,33
 457 566 457 566 455 564.5 c 128,-1,34
 453 563 453 563 454 561 c 0,35,36
 455 560 455 560 455 558 c 0,37,38
 455 551 455 551 443 541.5 c 128,-1,39
 431 532 431 532 419 531 c 0,40,41
 414 530 414 530 313 526 c 128,-1,42
 212 522 212 522 203 520 c 128,-1,43
 194 518 194 518 191 515 c 128,-1,44
 188 512 188 512 188 500 c 2,45,-1
 188 487 l 2,46,47
 190 448 190 448 193 441 c 0,48,49
 195 430 195 430 200.5 428 c 128,-1,50
 206 426 206 426 236 425 c 2,51,-1
 243 425 l 2,52,53
 279 425 279 425 316 432 c 0,54,55
 352 439 352 439 396 439 c 0,56,57
 435 439 435 439 450.5 433 c 128,-1,58
 466 427 466 427 455 423 c 0,59,60
 453 419 453 419 458 419 c 0,61,62
 470 418 470 418 474 410.5 c 128,-1,63
 478 403 478 403 478 380 c 2,64,-1
 478 371 l 2,65,66
 477 323 477 323 455 323 c 0,67,68
 439 323 439 323 429.5 318.5 c 128,-1,69
 420 314 420 314 385 312 c 0,70,71
 352 310 352 310 348 306 c 0,72,73
 345 303 345 303 291 303 c 2,74,-1
 269 303 l 2,75,76
 249 304 249 304 223 304 c 0,77,78
 205 304 205 304 200.5 302 c 128,-1,79
 196 300 196 300 193 293 c 0,80,81
 189 284 189 284 188 242 c 2,82,-1
 188 202 l 1,83,-1
 206 201 l 1,84,-1
 216 201 l 2,85,86
 229 201 229 201 264 203 c 0,87,88
 280 205 280 205 325 205 c 0,89,90
 411 205 411 205 425 197 c 0,91,92
 436 192 436 192 443 176 c 0,93,94
 450 162 450 162 443 152 c 0,95,96
 435 140 435 140 438 131 c 0,97,98
 442 122 442 122 432 111.5 c 128,-1,99
 422 101 422 101 383.5 96.5 c 128,-1,100
 345 92 345 92 239 89 c 0,101,102
 137 85 137 85 128 83 c 0,103,104
 127 83 127 83 125 82.5 c 128,-1,105
 123 82 123 82 122 82 c 0,106,107
 112 82 112 82 93 100 c 0,108,109
 84 109 84 109 79 116 c 128,-1,110
 74 123 74 123 75 124 c 0,111,112
 77 128 77 128 63 141 c 0,113,114
 51 153 51 153 51 174 c 0,115,116
 51 178 51 178 53 217 c 0,117,118
 59 312 59 312 67 343 c 0,119,120
 69 353 69 353 69 361 c 0,121,122
 69 367 69 367 67 378 c 0,123,124
 64 390 64 390 63 417 c 0,125,126
 63 453 63 453 68 491.5 c 128,-1,127
 73 530 73 530 78 538 c 0,128,129
 84 545 84 545 78 545 c 128,-1,130
 72 545 72 545 72 540 c 128,-1,131
 72 535 72 535 67 535 c 0,132,133
 63 535 63 535 62 566 c 0,134,135
 62 596 62 596 56 606 c 0,136,137
 53 609 53 609 53 615 c 0,138,139
 53 623 53 623 57 630.5 c 128,-1,140
 61 638 61 638 67 638 c 2,141,-1
 69 638 l 1,0,-1
EndSplineSet
Validated: 1
EndChar

StartChar: F
Encoding: 70 70 32
Width: 684
GlyphClass: 1
Flags: W
LayerCount: 2
Fore
SplineSet
388 682 m 0,0,1
 467 694 467 694 532 696 c 2,2,-1
 549 696 l 2,3,4
 582 696 582 696 601 683 c 0,5,6
 625 667 625 667 625 665 c 0,7,8
 625 664 625 664 621 659 c 0,9,10
 614 652 614 652 622 644 c 0,11,12
 630 635 630 635 625 621 c 0,13,14
 621 612 621 612 618.5 610 c 128,-1,15
 616 608 616 608 610 612 c 0,16,17
 604 617 604 617 603 616.5 c 128,-1,18
 602 616 602 616 604 609 c 0,19,20
 607 598 607 598 598 590 c 0,21,22
 584 578 584 578 567 578 c 0,23,24
 563 578 563 578 563 580 c 0,25,26
 564 581 564 581 564 582 c 0,27,28
 565 584 565 584 565 586 c 0,29,30
 565 596 565 596 534 596 c 0,31,32
 499 596 499 596 441 586 c 0,33,34
 385 576 385 576 325 569 c 0,35,36
 220 559 220 559 211 552 c 0,37,38
 207 549 207 549 205 539 c 0,39,40
 203 527 203 527 203 514.5 c 128,-1,41
 203 502 203 502 204 497 c 0,42,43
 207 461 207 461 208 434 c 0,44,45
 208 427 208 427 208.5 415.5 c 128,-1,46
 209 404 209 404 209.5 398.5 c 128,-1,47
 210 393 210 393 210 392 c 0,48,49
 210 390 210 390 223 390 c 0,50,51
 275 390 275 390 326 406 c 0,52,53
 359 416 359 416 361 416 c 2,54,-1
 362 416 l 2,55,56
 367 414 367 414 375 418 c 0,57,58
 421 436 421 436 458 436 c 2,59,-1
 466 436 l 2,60,61
 497 435 497 435 497 422 c 0,62,63
 497 416 497 416 493 409 c 0,64,65
 489 401 489 401 488 386 c 0,66,67
 488 371 488 371 494 365 c 0,68,69
 499 358 499 358 494.5 352.5 c 128,-1,70
 490 347 490 347 480 347 c 0,71,72
 472 347 472 347 454 339 c 0,73,74
 430 329 430 329 366 314.5 c 128,-1,75
 302 300 302 300 265 297 c 0,76,77
 217 293 217 293 213 284 c 0,78,79
 211 278 211 278 211 246 c 0,80,81
 211 239 211 239 211.5 223 c 128,-1,82
 212 207 212 207 212 198 c 2,83,-1
 212 158 l 2,84,85
 212 118 212 118 204 106 c 0,86,87
 193 92 193 92 181 92 c 0,88,89
 172 92 172 92 147 98 c 0,90,91
 119 104 119 104 111.5 118 c 128,-1,92
 104 132 104 132 104 181 c 2,93,-1
 104 200 l 2,94,95
 104 230 104 230 107.5 314.5 c 128,-1,96
 111 399 111 399 111 439 c 0,97,98
 111 498 111 498 105 523 c 0,99,100
 100 553 100 553 79 574 c 0,101,102
 71 583 71 583 78 603 c 0,103,104
 83 616 83 616 75 619.5 c 128,-1,105
 67 623 67 623 71 637 c 0,106,107
 75 652 75 652 76 653 c 0,108,109
 79 657 79 657 195 663 c 0,110,111
 284 667 284 667 388 682 c 0,0,1
57 609 m 0,112,113
 56 615 56 615 58 616 c 128,-1,114
 60 617 60 617 61 613.5 c 128,-1,115
 62 610 62 610 60 606 c 0,116,117
 57 600 57 600 57 609 c 0,112,113
EndSplineSet
Validated: 1
EndChar

StartChar: G
Encoding: 71 71 33
Width: 809
GlyphClass: 1
Flags: W
LayerCount: 2
Fore
SplineSet
214 689 m 0,0,1
 243 709 243 709 295 710 c 0,2,3
 332 710 332 710 359 699 c 0,4,5
 403 684 403 684 463.5 649 c 128,-1,6
 524 614 524 614 524 604 c 0,7,8
 524 601 524 601 536 592 c 0,9,10
 544 586 544 586 544.5 582.5 c 128,-1,11
 545 579 545 579 537 566 c 0,12,13
 515 531 515 531 509 523 c 128,-1,14
 503 515 503 515 495 515 c 0,15,16
 494 515 494 515 490.5 515.5 c 128,-1,17
 487 516 487 516 485 516 c 0,18,19
 465 519 465 519 455 535 c 0,20,21
 431 568 431 568 414 569 c 0,22,23
 405 569 405 569 380 581 c 128,-1,24
 355 593 355 593 351 594 c 0,25,26
 323 604 323 604 297 604 c 0,27,28
 267 604 267 604 251 592 c 0,29,30
 227 576 227 576 199 509 c 128,-1,31
 171 442 171 442 161 379 c 0,32,33
 158 361 158 361 158 335 c 0,34,35
 158 285 158 285 167 245 c 0,36,37
 173 222 173 222 173 207 c 0,38,39
 173 202 173 202 172 201 c 0,40,41
 170 195 170 195 173 195 c 0,42,43
 177 197 177 197 202 181 c 0,44,45
 237 161 237 161 283 161 c 0,46,47
 302 161 302 161 311 165 c 0,48,49
 327 172 327 172 339 172 c 0,50,51
 347 172 347 172 380 188 c 128,-1,52
 413 204 413 204 438 220 c 0,53,54
 449 226 449 226 459 257 c 0,55,56
 468 287 468 287 472 292 c 0,57,58
 478 299 478 299 473 316 c 2,59,-1
 468 334 l 1,60,-1
 424 334 l 2,61,62
 392 334 392 334 385.5 335.5 c 128,-1,63
 379 337 379 337 375 346 c 0,64,65
 368 361 368 361 359 368 c 0,66,67
 353 372 353 372 351.5 373.5 c 128,-1,68
 350 375 350 375 351 377 c 128,-1,69
 352 379 352 379 357 382 c 0,70,71
 366 388 366 388 364 400 c 0,72,73
 364 401 364 401 362 403 c 2,74,-1
 362 404 l 2,75,76
 362 411 362 411 373.5 416.5 c 128,-1,77
 385 422 385 422 387 424 c 0,78,79
 400 434 400 434 517 443 c 0,80,81
 677 455 677 455 723 456 c 0,82,83
 739 456 739 456 739 454 c 0,84,85
 739 450 739 450 744 443 c 0,86,87
 754 431 754 431 755 400 c 0,88,89
 755 389 755 389 752 381 c 0,90,91
 747 368 747 368 719.5 361.5 c 128,-1,92
 692 355 692 355 616 349 c 0,93,94
 585 347 585 347 584 345 c 0,95,96
 581 342 581 342 581 329 c 0,97,98
 581 317 581 317 588 254 c 0,99,100
 598 165 598 165 598 142 c 0,101,102
 598 118 598 118 592.5 110.5 c 128,-1,103
 587 103 587 103 572 103 c 0,104,105
 559 103 559 103 551 95 c 0,106,107
 546 87 546 87 534 87 c 0,108,109
 523 87 523 87 513.5 94 c 128,-1,110
 504 101 504 101 504 113 c 0,111,112
 504 130 504 130 492 130 c 0,113,114
 483 130 483 130 468 119 c 0,115,116
 450 104 450 104 433 99 c 0,117,118
 420 96 420 96 416 92 c 0,119,120
 413 87 413 87 402.5 87 c 128,-1,121
 392 87 392 87 392 83 c 0,122,123
 392 75 392 75 346.5 67.5 c 128,-1,124
 301 60 301 60 252 60 c 0,125,126
 187 60 187 60 136 109 c 0,127,128
 120 125 120 125 108 131 c 0,129,130
 101 135 101 135 100 141 c 0,131,132
 100 150 100 150 93 156 c 0,133,134
 87 161 87 161 76.5 195.5 c 128,-1,135
 66 230 66 230 61 257 c 0,136,137
 54 311 54 311 54 361 c 0,138,139
 54 393 54 393 57 402.5 c 128,-1,140
 60 412 60 412 66 437 c 0,141,142
 70 457 70 457 82 489 c 0,143,144
 95 525 95 525 95 532 c 0,145,146
 95 540 95 540 102 548 c 0,147,148
 107 554 107 554 145 617 c 0,149,150
 155 634 155 634 160.5 643 c 128,-1,151
 166 652 166 652 173 660 c 128,-1,152
 180 668 180 668 182 669.5 c 128,-1,153
 184 671 184 671 196 678 c 128,-1,154
 208 685 208 685 214 689 c 0,0,1
EndSplineSet
Validated: 33
EndChar

StartChar: H
Encoding: 72 72 34
Width: 606
GlyphClass: 1
Flags: W
LayerCount: 2
Fore
SplineSet
420 666 m 0,0,1
 429 674 429 674 447 674 c 2,2,-1
 456 674 l 2,3,4
 479 673 479 673 494 658.5 c 128,-1,5
 509 644 509 644 512 624 c 0,6,7
 516 599 516 599 524 569 c 0,8,9
 532 536 532 536 532 430 c 2,10,-1
 532 346 l 1,11,-1
 532 275 l 2,12,13
 532 232 532 232 533 209 c 128,-1,14
 534 186 534 186 535 174 c 128,-1,15
 536 162 536 162 538 159 c 128,-1,16
 540 156 540 156 543 155 c 0,17,18
 553 152 553 152 553 136 c 0,19,20
 553 108 553 108 540.5 88 c 128,-1,21
 528 68 528 68 512 68 c 0,22,23
 507 68 507 68 505 69 c 0,24,25
 495 72 495 72 495 67 c 0,26,27
 495 61 495 61 479 60 c 0,28,29
 449 60 449 60 437.5 92 c 128,-1,30
 426 124 426 124 426 208 c 2,31,-1
 426 246 l 1,32,-1
 428 349 l 1,33,-1
 401 349 l 2,34,35
 220 347 220 347 182 335 c 0,36,37
 151 326 151 326 152 312 c 0,38,39
 152 309 152 309 153 308 c 0,40,41
 155 301 155 301 157 262 c 0,42,43
 158 251 158 251 160 222 c 128,-1,44
 162 193 162 193 163 181.5 c 128,-1,45
 164 170 164 170 164 155 c 0,46,47
 164 135 164 135 157 129 c 128,-1,48
 150 123 150 123 125 121 c 0,49,50
 91 119 91 119 87 118 c 0,51,52
 79 116 79 116 70 130 c 0,53,54
 59 142 59 142 58 189 c 0,55,56
 58 194 58 194 58.5 208.5 c 128,-1,57
 59 223 59 223 59 232 c 2,58,-1
 59 242 l 2,59,60
 59 284 59 284 56 357 c 0,61,62
 55 384 55 384 54.5 420.5 c 128,-1,63
 54 457 54 457 53 494.5 c 128,-1,64
 52 532 52 532 52 547 c 2,65,-1
 51 628 l 1,66,-1
 67 643 l 2,67,68
 82 659 82 659 90 653 c 0,69,70
 103 644 103 644 125 635 c 2,71,-1
 152 624 l 1,72,-1
 153 540 l 2,73,74
 154 479 154 479 157.5 456.5 c 128,-1,75
 161 434 161 434 170 434 c 0,76,77
 173 434 173 434 175 435 c 0,78,79
 204 446 204 446 333 450 c 0,80,81
 421 452 421 452 425 456 c 0,82,83
 427 458 427 458 427 470 c 0,84,85
 427 490 427 490 422 519 c 128,-1,86
 417 548 417 548 412 552 c 0,87,88
 405 558 405 558 398 575 c 0,89,90
 393 593 393 593 393 607 c 0,91,92
 393 642 393 642 420 666 c 0,0,1
EndSplineSet
Validated: 33
EndChar

StartChar: I
Encoding: 73 73 35
Width: 242
GlyphClass: 1
Flags: W
LayerCount: 2
Fore
SplineSet
136 662 m 0,0,1
 140 666 140 666 144 666 c 0,2,3
 161 666 161 666 173 474 c 0,4,5
 174 457 174 457 179 398.5 c 128,-1,6
 184 340 184 340 187 289 c 128,-1,7
 190 238 190 238 190 204 c 0,8,9
 190 166 190 166 186 154 c 0,10,11
 181 139 181 139 174 133 c 128,-1,12
 167 127 167 127 148 127 c 0,13,14
 135 127 135 127 127 128 c 0,15,16
 102 130 102 130 96 132.5 c 128,-1,17
 90 135 90 135 86 144 c 0,18,19
 80 160 80 160 80 236 c 0,20,21
 80 244 80 244 80.5 257.5 c 128,-1,22
 81 271 81 271 81 278 c 0,23,24
 81 323 81 323 72 419 c 0,25,26
 71 426 71 426 69.5 448.5 c 128,-1,27
 68 471 68 471 67 477 c 0,28,29
 56 574 56 574 55 611 c 0,30,31
 55 622 55 622 56 624 c 0,32,33
 60 629 60 629 62 638 c 0,34,35
 65 656 65 656 103 657 c 0,36,37
 134 660 134 660 136 662 c 0,0,1
EndSplineSet
Validated: 1
EndChar

StartChar: J
Encoding: 74 74 36
Width: 652
GlyphClass: 1
Flags: W
LayerCount: 2
Fore
SplineSet
341 631 m 0,0,1
 344 634 344 634 349 634 c 0,2,3
 358 634 358 634 374 617 c 2,4,-1
 390 601 l 1,5,-1
 445 604 l 2,6,7
 519 608 519 608 529 608 c 0,8,9
 564 608 564 608 575.5 601 c 128,-1,10
 587 594 587 594 593 573 c 0,11,12
 596 563 596 563 596 556 c 128,-1,13
 596 549 596 549 588 529 c 0,14,15
 581 514 581 514 575 510.5 c 128,-1,16
 569 507 569 507 549 505 c 0,17,18
 540 504 540 504 500 503 c 128,-1,19
 460 502 460 502 429 499.5 c 128,-1,20
 398 497 398 497 398 490 c 0,21,22
 398 488 398 488 405.5 439.5 c 128,-1,23
 413 391 413 391 413 375 c 0,24,25
 413 368 413 368 412 367 c 0,26,27
 407 362 407 362 412 345 c 0,28,29
 417 328 417 328 417 252 c 0,30,31
 417 209 417 209 414 204 c 0,32,33
 413 203 413 203 409 171 c 0,34,35
 402 89 402 89 396 79 c 0,36,37
 394 76 394 76 392 52 c 0,38,39
 388 3 388 3 357 -33 c 0,40,41
 346 -46 346 -46 319 -61 c 128,-1,42
 292 -76 292 -76 270 -80 c 0,43,44
 267 -81 267 -81 258 -81 c 0,45,46
 239 -81 239 -81 216.5 -76.5 c 128,-1,47
 194 -72 194 -72 194 -68 c 0,48,49
 194 -63 194 -63 181 -57 c 0,50,51
 167 -51 167 -51 156.5 -26 c 128,-1,52
 146 -1 146 -1 146 28 c 0,53,54
 146 60 146 60 151 62 c 0,55,56
 154 64 154 64 189 71 c 0,57,58
 209 73 209 73 213 73 c 0,59,60
 224 73 224 73 234 62 c 0,61,62
 246 50 246 50 246.5 39 c 128,-1,63
 247 28 247 28 257 34 c 0,64,65
 265 38 265 38 276.5 54.5 c 128,-1,66
 288 71 288 71 288 79 c 0,67,68
 288 89 288 89 290 90 c 0,69,70
 295 93 295 93 295 105 c 0,71,72
 295 113 295 113 298.5 119 c 128,-1,73
 302 125 302 125 302 129 c 0,74,75
 302 131 302 131 300 139 c 128,-1,76
 298 147 298 147 298 159 c 0,77,78
 298 166 298 166 300 176 c 0,79,80
 307 209 307 209 307 289 c 0,81,82
 307 393 307 393 297 435 c 2,83,-1
 288 475 l 1,84,-1
 250 472 l 2,85,86
 213 468 213 468 180 459 c 0,87,88
 125 441 125 441 102 440 c 0,89,90
 90 440 90 440 77 445 c 0,91,92
 63 450 63 450 59.5 454.5 c 128,-1,93
 56 459 56 459 58 466 c 0,94,95
 60 472 60 472 63.5 496.5 c 128,-1,96
 67 521 67 521 70 528 c 0,97,98
 75 544 75 544 145 552 c 0,99,100
 175 556 175 556 204 565 c 0,101,102
 235 575 235 575 245 575 c 0,103,104
 256 575 256 575 267 579.5 c 128,-1,105
 278 584 278 584 278 589 c 0,106,107
 278 590 278 590 277 590 c 128,-1,108
 276 590 276 590 276 591 c 0,109,110
 273 596 273 596 279 599 c 0,111,112
 285 603 285 603 285 612 c 0,113,114
 285 622 285 622 294 624 c 0,115,116
 337 627 337 627 341 631 c 0,0,1
EndSplineSet
Validated: 1
EndChar

StartChar: K
Encoding: 75 75 37
Width: 584
GlyphClass: 1
Flags: W
LayerCount: 2
Fore
SplineSet
409 725 m 0,0,1
 413 729 413 729 424 729 c 0,2,3
 438 729 438 729 464 723 c 0,4,5
 482 719 482 719 487 715.5 c 128,-1,6
 492 712 492 712 494 699 c 0,7,8
 495 696 495 696 495 691 c 0,9,10
 495 682 495 682 491.5 673 c 128,-1,11
 488 664 488 664 482 653 c 128,-1,12
 476 642 476 642 475 639 c 0,13,14
 444 572 444 572 410 528 c 0,15,16
 385 494 385 494 385 490 c 0,17,18
 385 485 385 485 378 478 c 0,19,20
 364 463 364 463 339.5 430 c 128,-1,21
 315 397 315 397 315 393 c 0,22,23
 315 386 315 386 349 352 c 0,24,25
 357 344 357 344 371 330 c 128,-1,26
 385 316 385 316 403 298.5 c 128,-1,27
 421 281 421 281 429 272 c 0,28,29
 475 226 475 226 475 222 c 0,30,31
 475 217 475 217 503 201 c 0,32,33
 520 191 520 191 524.5 186.5 c 128,-1,34
 529 182 529 182 529 174 c 0,35,36
 529 173 529 173 528.5 169.5 c 128,-1,37
 528 166 528 166 528 164 c 0,38,39
 526 142 526 142 519 131 c 0,40,41
 512 119 512 119 516 119 c 128,-1,42
 520 119 520 119 508 111 c 0,43,44
 500 105 500 105 493 104 c 0,45,46
 491 104 491 104 472 109 c 0,47,48
 450 114 450 114 435.5 124.5 c 128,-1,49
 421 135 421 135 386 170 c 0,50,51
 352 204 352 204 347 204 c 128,-1,52
 342 204 342 204 342 208 c 0,53,54
 342 213 342 213 294 261 c 0,55,56
 247 312 247 312 247 316.5 c 128,-1,57
 247 321 247 321 233 321 c 0,58,59
 211 321 211 321 212 290 c 0,60,61
 212 279 212 279 215 265 c 0,62,63
 218 247 218 247 218 225 c 0,64,65
 218 188 218 188 210 169 c 0,66,67
 203 151 203 151 200 123 c 0,68,69
 198 108 198 108 168 108 c 0,70,71
 157 108 157 108 151 110 c 0,72,73
 132 115 132 115 123 109 c 0,74,75
 116 103 116 103 112 109 c 0,76,77
 109 114 109 114 95 114 c 0,78,79
 84 114 84 114 80 122 c 0,80,81
 76 129 76 129 68.5 129 c 128,-1,82
 61 129 61 129 61 135 c 0,83,84
 61 140 61 140 69.5 140 c 128,-1,85
 78 140 78 140 70 148 c 0,86,87
 57 161 57 161 56 207 c 0,88,89
 56 220 56 220 59 226 c 128,-1,90
 62 232 62 232 68.5 287 c 128,-1,91
 75 342 75 342 78 348 c 0,92,93
 84 357 84 357 80 369 c 0,94,95
 76 381 76 381 72.5 425 c 128,-1,96
 69 469 69 469 67 479 c 0,97,98
 52 552 52 552 51 601 c 0,99,100
 51 604 51 604 51.5 608 c 128,-1,101
 52 612 52 612 52 613 c 0,102,103
 56 638 56 638 84 666 c 0,104,105
 97 679 97 679 115 679 c 0,106,107
 130 679 130 679 130 668 c 0,108,109
 130 662 130 662 137 658.5 c 128,-1,110
 144 655 144 655 155 657 c 0,111,112
 156 657 156 657 157 657.5 c 128,-1,113
 158 658 158 658 159 658 c 0,114,115
 174 658 174 658 182 624.5 c 128,-1,116
 190 591 190 591 195.5 531 c 128,-1,117
 201 471 201 471 201 469 c 0,118,119
 204 459 204 459 204 440 c 2,120,-1
 204 425 l 1,121,-1
 219 445 l 2,122,123
 232 463 232 463 248 479 c 0,124,125
 253 484 253 484 280.5 521 c 128,-1,126
 308 558 308 558 316 564 c 0,127,128
 326 572 326 572 340 601 c 0,129,130
 354 628 354 628 358 628 c 128,-1,131
 362 628 362 628 374 656 c 0,132,133
 401 720 401 720 409 725 c 0,0,1
EndSplineSet
Validated: 33
EndChar

StartChar: L
Encoding: 76 76 38
Width: 460
GlyphClass: 1
Flags: W
LayerCount: 2
Fore
SplineSet
66 664 m 0,0,1
 76 677 76 677 81 677 c 0,2,3
 82 677 82 677 88.5 675 c 128,-1,4
 95 673 95 673 101.5 673 c 128,-1,5
 108 673 108 673 112 674 c 0,6,7
 117 675 117 675 124 675 c 0,8,9
 134 675 134 675 144 665 c 0,10,11
 151 657 151 657 154 641.5 c 128,-1,12
 157 626 157 626 159 564 c 0,13,14
 164 432 164 432 165 425 c 0,15,16
 171 343 171 343 172 259 c 0,17,18
 173 222 173 222 179 216.5 c 128,-1,19
 185 211 185 211 234 204 c 0,20,21
 245 202 245 202 270 202 c 0,22,23
 313 202 313 202 368 212 c 0,24,25
 385 216 385 216 385 208 c 128,-1,26
 385 200 385 200 391.5 186 c 128,-1,27
 398 172 398 172 402 172 c 0,28,29
 405 172 405 172 406 154 c 0,30,31
 406 135 406 135 387 121 c 0,32,33
 361 103 361 103 268 96 c 1,34,-1
 259 96 l 2,35,36
 197 96 197 96 168 110 c 0,37,38
 154 116 154 116 142.5 116 c 128,-1,39
 131 116 131 116 126 112 c 0,40,41
 125 111 125 111 123 111 c 0,42,43
 117 111 117 111 101.5 123 c 128,-1,44
 86 135 86 135 83 135 c 0,45,46
 75 135 75 135 62 147 c 0,47,48
 51 158 51 158 51 166.5 c 128,-1,49
 51 175 51 175 55 191 c 0,50,51
 64 227 64 227 65 311 c 0,52,53
 65 360 65 360 60 384 c 0,54,55
 54 423 54 423 54 532 c 2,56,-1
 54 593 l 2,57,58
 54 631 54 631 56.5 642.5 c 128,-1,59
 59 654 59 654 66 664 c 0,0,1
EndSplineSet
Validated: 1
EndChar

StartChar: M
Encoding: 77 77 39
Width: 675
GlyphClass: 1
Flags: W
LayerCount: 2
Fore
SplineSet
73 486 m 256,0,1
 77 482 77 482 80.5 486 c 128,-1,2
 84 490 84 490 77 490 c 0,3,4
 69 490 69 490 73 486 c 256,0,1
512 499 m 0,5,6
 512 501 512 501 509 501 c 0,7,8
 507 501 507 501 507 499 c 0,9,10
 507 496 507 496 509 496 c 0,11,12
 512 496 512 496 512 499 c 0,5,6
77 501 m 0,13,14
 77 494 77 494 81 497.5 c 128,-1,15
 85 501 85 501 81 505 c 0,16,17
 78 505 78 505 77 501 c 0,13,14
87 541 m 128,-1,19
 87 544 87 544 85 544 c 0,20,21
 82 544 82 544 82 541 c 128,-1,22
 82 538 82 538 85 538 c 0,23,18
 87 538 87 538 87 541 c 128,-1,19
93 559 m 0,24,25
 93 556 93 556 94 555 c 0,26,27
 96 554 96 554 97 557 c 2,28,-1
 96 563 l 2,29,30
 94 563 94 563 93 559 c 0,24,25
512 686 m 0,31,32
 512 690 512 690 539 686 c 0,33,34
 561 684 561 684 567 678 c 128,-1,35
 573 672 573 672 592 634 c 0,36,37
 599 621 599 621 605.5 583.5 c 128,-1,38
 612 546 612 546 612 524 c 0,39,40
 612 517 612 517 611 514 c 0,41,42
 609 500 609 500 612 499 c 0,43,44
 619 495 619 495 620 376 c 0,45,46
 620 220 620 220 610 220 c 0,47,48
 604 220 604 220 611 215 c 0,49,50
 616 212 616 212 620.5 193 c 128,-1,51
 625 174 625 174 625 157 c 0,52,53
 625 149 625 149 623 140 c 0,54,55
 619 128 619 128 612 132 c 0,56,57
 609 134 609 134 608.5 132 c 128,-1,58
 608 130 608 130 608 124 c 128,-1,59
 608 118 608 118 601 116 c 128,-1,60
 594 114 594 114 568 112 c 2,61,-1
 562 112 l 2,62,63
 547 112 547 112 535 129 c 2,64,-1
 520 148 l 1,65,-1
 519 252 l 2,66,67
 517 382 517 382 515 406 c 0,68,69
 515 417 515 417 514 432 c 128,-1,70
 513 447 513 447 512.5 458 c 128,-1,71
 512 469 512 469 512 473 c 0,72,73
 510 490 510 490 508 490 c 0,74,75
 504 490 504 490 494.5 471.5 c 128,-1,76
 485 453 485 453 485 445.5 c 128,-1,77
 485 438 485 438 480 436 c 128,-1,78
 475 434 475 434 464 384 c 0,79,80
 453 333 453 333 440 310 c 0,81,82
 428 288 428 288 424 272 c 0,83,84
 422 265 422 265 406 225.5 c 128,-1,85
 390 186 390 186 384 169 c 0,86,87
 375 141 375 141 368 135 c 128,-1,88
 361 129 361 129 342 128 c 2,89,-1
 335 128 l 2,90,91
 313 128 313 128 304 131 c 0,92,93
 295 133 295 133 293 138.5 c 128,-1,94
 291 144 291 144 290 168 c 0,95,96
 290 199 290 199 276 224 c 0,97,98
 265 244 265 244 255 281 c 0,99,100
 240 331 240 331 221.5 379 c 128,-1,101
 203 427 203 427 199 427 c 128,-1,102
 195 427 195 427 183.5 446 c 128,-1,103
 172 465 172 465 172 472 c 0,104,105
 172 478 172 478 166 481 c 2,106,-1
 165 481 l 2,107,108
 158 481 158 481 157 427 c 0,109,110
 157 421 157 421 156.5 406 c 128,-1,111
 156 391 156 391 156 383 c 0,112,113
 156 364 156 364 156.5 319.5 c 128,-1,114
 157 275 157 275 157 253 c 0,115,116
 157 191 157 191 155 163 c 0,117,118
 153 134 153 134 147.5 129 c 128,-1,119
 142 124 142 124 122 124 c 0,120,121
 107 124 107 124 84 127 c 0,122,123
 64 130 64 130 59.5 133 c 128,-1,124
 55 136 55 136 53 151 c 0,125,126
 52 155 52 155 52 181 c 0,127,128
 52 229 52 229 53 257 c 0,129,130
 54 275 54 275 57 431 c 0,131,132
 61 517 61 517 66 523 c 0,133,134
 70 528 70 528 70 538 c 0,135,136
 70 550 70 550 78 582 c 128,-1,137
 86 614 86 614 93 632 c 0,138,139
 102 654 102 654 113 653 c 0,140,141
 114 653 114 653 116.5 652.5 c 128,-1,142
 119 652 119 652 121 652 c 0,143,144
 138 650 138 650 139 642 c 0,145,146
 142 632 142 632 167 632 c 0,147,148
 169 632 169 632 173.5 632.5 c 128,-1,149
 178 633 178 633 181 633 c 2,150,-1
 182 633 l 2,151,152
 202 633 202 633 214 593 c 0,153,154
 222 569 222 569 225 567 c 0,155,156
 231 563 231 563 227 558 c 128,-1,157
 223 553 223 553 238 539 c 0,158,159
 249 527 249 527 271.5 489 c 128,-1,160
 294 451 294 451 294 443 c 0,161,162
 294 435 294 435 326 384 c 0,163,164
 337 366 337 366 337 351 c 0,165,166
 337 336 337 336 341 336 c 0,167,168
 352 336 352 336 370 413 c 0,169,170
 377 449 377 449 398 507 c 128,-1,171
 419 565 419 565 430 583 c 0,172,173
 438 595 438 595 445 616 c 0,174,175
 453 639 453 639 472.5 662 c 128,-1,176
 492 685 492 685 502 685 c 2,177,-1
 503 685 l 1,178,179
 512 681 512 681 512 686 c 0,31,32
EndSplineSet
Validated: 1
EndChar

StartChar: N
Encoding: 78 78 40
Width: 557
GlyphClass: 1
Flags: W
LayerCount: 2
Fore
SplineSet
112 676 m 0,0,1
 112 679 112 679 113 680 c 0,2,3
 115 681 115 681 116 678 c 2,4,-1
 115 672 l 2,5,6
 113 672 113 672 112 676 c 0,0,1
80 355 m 0,7,8
 80 357 80 357 77 357 c 128,-1,9
 74 357 74 357 74 355 c 0,10,11
 74 352 74 352 77 352 c 128,-1,12
 80 352 80 352 80 355 c 0,7,8
95 524 m 0,13,14
 95 527 95 527 93 527 c 0,15,16
 90 527 90 527 90 524 c 0,17,18
 90 522 90 522 93 522 c 0,19,20
 95 522 95 522 95 524 c 0,13,14
313 413 m 0,21,22
 313 409 313 409 321 399 c 128,-1,23
 329 389 329 389 329 384 c 0,24,25
 329 375 329 375 336 367.5 c 128,-1,26
 343 360 343 360 366 313 c 0,27,28
 385 271 385 271 393 271 c 0,29,30
 396 271 396 271 400 369 c 0,31,32
 408 593 408 593 412 609 c 0,33,34
 413 620 413 620 423 628 c 128,-1,35
 433 636 433 636 444 636 c 0,36,37
 452 636 452 636 456 634 c 0,38,39
 465 629 465 629 475 632 c 0,40,41
 482 635 482 635 496 626 c 0,42,43
 502 621 502 621 504 608.5 c 128,-1,44
 506 596 506 596 506 546 c 2,45,-1
 506 486 l 2,46,47
 504 331 504 331 502 307 c 0,48,49
 499 271 499 271 497 200 c 0,50,51
 495 140 495 140 485 133 c 0,52,53
 476 126 476 126 479 121 c 0,54,55
 483 116 483 116 461 97 c 0,56,57
 443 83 443 83 432 83 c 0,58,59
 426 83 426 83 422 84 c 0,60,61
 392 90 392 90 377 119 c 0,62,63
 372 127 372 127 345 164 c 128,-1,64
 318 201 318 201 313 209 c 0,65,66
 306 221 306 221 297 232 c 0,67,68
 291 240 291 240 247 324 c 0,69,70
 218 380 218 380 189 428 c 128,-1,71
 160 476 160 476 157 473 c 0,72,73
 156 472 156 472 152 373 c 128,-1,74
 148 274 148 274 148 270 c 2,75,-1
 147 266 l 2,76,77
 147 262 147 262 147 256 c 128,-1,78
 147 250 147 250 147 243 c 128,-1,79
 147 236 147 236 147.5 216.5 c 128,-1,80
 148 197 148 197 148 184 c 2,81,-1
 148 161 l 2,82,83
 148 102 148 102 145 98 c 0,84,85
 141 91 141 91 122.5 91 c 128,-1,86
 104 91 104 91 82.5 98 c 128,-1,87
 61 105 61 105 56 115 c 0,88,89
 51 127 51 127 51 212 c 0,90,91
 51 275 51 275 54 355 c 0,92,93
 57 404 57 404 57 428 c 0,94,95
 59 442 59 442 67 442 c 0,96,97
 72 442 72 442 72 452 c 0,98,99
 72 464 72 464 62 482 c 0,100,101
 56 493 56 493 57 495 c 2,102,-1
 57 501 l 2,103,104
 57 507 57 507 55 556 c 0,105,106
 54 570 54 570 54 595 c 0,107,108
 54 645 54 645 72 663 c 0,109,110
 77 668 77 668 86 668 c 0,111,112
 99 668 99 668 110 659 c 0,113,114
 117 654 117 654 124 657 c 0,115,116
 132 660 132 660 132 654 c 0,117,118
 132 647 132 647 140 654.5 c 128,-1,119
 148 662 148 662 151 659 c 2,120,-1
 154 655 l 2,121,122
 156 652 156 652 160 646.5 c 128,-1,123
 164 641 164 641 167 636 c 0,124,125
 183 613 183 613 190 606 c 0,126,127
 202 593 202 593 220.5 566.5 c 128,-1,128
 239 540 239 540 239 536 c 0,129,130
 239 534 239 534 257 506.5 c 128,-1,131
 275 479 275 479 275 476 c 128,-1,132
 275 473 275 473 294 444.5 c 128,-1,133
 313 416 313 416 313 413 c 0,21,22
EndSplineSet
Validated: 33
EndChar

StartChar: O
Encoding: 79 79 41
Width: 653
GlyphClass: 1
Flags: W
LayerCount: 2
Fore
SplineSet
330 555 m 0,0,1
 298 567 298 567 289 567 c 0,2,3
 287 567 287 567 268 565 c 0,4,5
 213 557 213 557 163 487 c 0,6,7
 151 471 151 471 151 426 c 0,8,9
 151 359 151 359 171 328 c 0,10,11
 205 273 205 273 205 261 c 0,12,13
 205 254 205 254 220.5 241.5 c 128,-1,14
 236 229 236 229 247 227 c 0,15,16
 277 218 277 218 300 218 c 0,17,18
 322 218 322 218 337 220 c 0,19,20
 425 228 425 228 457 264.5 c 128,-1,21
 489 301 489 301 492 397 c 2,22,-1
 492 410 l 2,23,24
 492 437 492 437 479 462 c 0,25,26
 463 493 463 493 446 507.5 c 128,-1,27
 429 522 429 522 395 532 c 0,28,29
 384 536 384 536 360.5 544.5 c 128,-1,30
 337 553 337 553 330 555 c 0,0,1
206 656 m 0,31,32
 217 661 217 661 252 662 c 0,33,34
 330 662 330 662 385 642 c 0,35,36
 482 611 482 611 500 597 c 0,37,38
 506 592 506 592 517.5 581.5 c 128,-1,39
 529 571 529 571 535.5 565.5 c 128,-1,40
 542 560 542 560 550 550 c 128,-1,41
 558 540 558 540 563 527 c 0,42,43
 568 518 568 518 575.5 502.5 c 128,-1,44
 583 487 583 487 584 484 c 0,45,46
 590 473 590 473 594 444 c 0,47,48
 599 408 599 408 599 400 c 0,49,50
 599 384 599 384 597 373 c 0,51,52
 596 368 596 368 590 324 c 0,53,54
 584 269 584 269 559 243 c 0,55,56
 547 229 547 229 547 219 c 0,57,58
 547 212 547 212 522 183 c 0,59,60
 497 156 497 156 462 145 c 0,61,62
 429 134 429 134 407 125 c 0,63,64
 385 116 385 116 311 116 c 0,65,66
 260 116 260 116 250 122 c 0,67,68
 239 130 239 130 217 133 c 0,69,70
 193 137 193 137 188 143 c 0,71,72
 183 150 183 150 176 151 c 0,73,74
 164 152 164 152 137.5 186.5 c 128,-1,75
 111 221 111 221 94 260 c 0,76,77
 88 272 88 272 83 275 c 0,78,79
 77 279 77 279 77 288 c 0,80,81
 77 300 77 300 67 321 c 0,82,83
 56 347 56 347 55 420 c 0,84,85
 55 487 55 487 66 519 c 0,86,87
 77 549 77 549 124 595.5 c 128,-1,88
 171 642 171 642 206 656 c 0,31,32
EndSplineSet
Validated: 1
EndChar

StartChar: P
Encoding: 80 80 42
Width: 489
GlyphClass: 1
Flags: W
LayerCount: 2
Fore
SplineSet
245 559 m 0,0,1
 206 567 206 567 185 567 c 0,2,3
 177 567 177 567 175 566 c 0,4,5
 171 563 171 563 171 515 c 0,6,7
 171 498 171 498 171.5 476 c 128,-1,8
 172 454 172 454 172.5 438 c 128,-1,9
 173 422 173 422 173 420 c 0,10,11
 173 406 173 406 175.5 402.5 c 128,-1,12
 178 399 178 399 194 397 c 0,13,14
 198 396 198 396 208 396 c 0,15,16
 233 396 233 396 291 412 c 0,17,18
 311 417 311 417 324 438 c 128,-1,19
 337 459 337 459 337 483 c 0,20,21
 337 519 337 519 311 531 c 0,22,23
 305 534 305 534 296 539.5 c 128,-1,24
 287 545 287 545 281 547.5 c 128,-1,25
 275 550 275 550 265.5 553.5 c 128,-1,26
 256 557 256 557 245 559 c 0,0,1
100 662 m 0,27,28
 122 670 122 670 163 670 c 2,29,-1
 167 670 l 2,30,31
 198 670 198 670 252.5 661.5 c 128,-1,32
 307 653 307 653 327 645 c 0,33,34
 340 640 340 640 371.5 615.5 c 128,-1,35
 403 591 403 591 413 578 c 0,36,37
 436 549 436 549 435 471 c 0,38,39
 435 424 435 424 424 406 c 0,40,41
 422 403 422 403 416 391.5 c 128,-1,42
 410 380 410 380 408 376 c 0,43,44
 401 363 401 363 372 342 c 128,-1,45
 343 321 343 321 329 317 c 0,46,47
 325 316 325 316 310 311 c 128,-1,48
 295 306 295 306 282 303 c 128,-1,49
 269 300 269 300 260 300 c 2,50,-1
 255 300 l 1,51,52
 242 304 242 304 242 299 c 128,-1,53
 242 294 242 294 207 294 c 2,54,-1
 173 294 l 1,55,-1
 173 230 l 1,56,-1
 173 204 l 2,57,58
 173 177 173 177 170.5 167.5 c 128,-1,59
 168 158 168 158 159 142 c 0,60,61
 146 120 146 120 133 121 c 0,62,63
 123 121 123 121 90 136 c 0,64,65
 74 143 74 143 69.5 147.5 c 128,-1,66
 65 152 65 152 65 158 c 0,67,68
 65 159 65 159 65.5 161 c 128,-1,69
 66 163 66 163 66 164 c 0,70,71
 69 207 69 207 69 296 c 0,72,73
 69 579 69 579 55 594 c 0,74,75
 49 601 49 601 56 620 c 0,76,77
 61 636 61 636 69.5 644.5 c 128,-1,78
 78 653 78 653 100 662 c 0,27,28
EndSplineSet
Validated: 33
EndChar

StartChar: Q
Encoding: 81 81 43
Width: 640
GlyphClass: 1
Flags: W
LayerCount: 2
Fore
SplineSet
112 212 m 0,0,1
 112 214 112 214 110 214 c 0,2,3
 107 214 107 214 106 212 c 0,4,5
 106 209 106 209 110 209 c 0,6,7
 112 209 112 209 112 212 c 0,0,1
389 554 m 0,8,9
 353 587 353 587 328 587 c 0,10,11
 321 587 321 587 312 584.5 c 128,-1,12
 303 582 303 582 297 578.5 c 128,-1,13
 291 575 291 575 279 568 c 128,-1,14
 267 561 267 561 260 558 c 0,15,16
 230 543 230 543 216 524.5 c 128,-1,17
 202 506 202 506 182 461 c 0,18,19
 159 409 159 409 160 383 c 0,20,21
 160 380 160 380 160.5 372 c 128,-1,22
 161 364 161 364 161 358 c 0,23,24
 164 310 164 310 175 283 c 0,25,26
 183 260 183 260 204.5 233.5 c 128,-1,27
 226 207 226 207 244 199 c 0,28,29
 262 191 262 191 306 190 c 0,30,31
 319 190 319 190 319 193 c 0,32,33
 319 200 319 200 306 224 c 0,34,35
 284 261 284 261 285 273 c 0,36,37
 285 284 285 284 300 300 c 0,38,39
 334 333 334 333 345 333 c 0,40,41
 347 333 347 333 353 331 c 0,42,43
 362 326 362 326 379 302 c 128,-1,44
 396 278 396 278 403 258 c 0,45,46
 407 247 407 247 410.5 245 c 128,-1,47
 414 243 414 243 421 247 c 0,48,49
 434 254 434 254 448 270 c 128,-1,50
 462 286 462 286 462 294 c 128,-1,51
 462 302 462 302 470 310 c 0,52,53
 475 314 475 314 474 324 c 128,-1,54
 473 334 473 334 478 339 c 0,55,56
 484 346 484 346 484 367 c 0,57,58
 484 398 484 398 469 466 c 0,59,60
 467 477 467 477 451 495 c 128,-1,61
 435 513 435 513 389 554 c 0,8,9
301 680 m 0,62,63
 302 679 302 679 308 679 c 0,64,65
 321 679 321 679 347.5 681.5 c 128,-1,66
 374 684 374 684 376 686 c 2,67,-1
 377 686 l 2,68,69
 382 686 382 686 406 671.5 c 128,-1,70
 430 657 430 657 432 653 c 0,71,72
 437 644 437 644 475 614 c 0,73,74
 514 584 514 584 521.5 577.5 c 128,-1,75
 529 571 529 571 541 555 c 0,76,77
 572 513 572 513 584 432 c 0,78,79
 586 421 586 421 586 397 c 0,80,81
 586 348 586 348 566 281 c 0,82,83
 557 249 557 249 530 208.5 c 128,-1,84
 503 168 503 168 490 167 c 0,85,86
 486 167 486 167 474 157 c 2,87,-1
 463 148 l 1,88,-1
 480 111 l 2,89,90
 497 73 497 73 524 46 c 0,91,92
 555 15 555 15 555 -6 c 0,93,94
 555 -21 555 -21 539 -33 c 0,95,96
 525 -41 525 -41 506 -41 c 0,97,98
 486 -41 486 -41 466 -32 c 0,99,100
 434 -19 434 -19 416 15 c 0,101,102
 411 24 411 24 402.5 36 c 128,-1,103
 394 48 394 48 385 68 c 0,104,105
 372 97 372 97 364 96 c 0,106,107
 363 96 363 96 356 94 c 0,108,109
 347 91 347 91 303 91 c 2,110,-1
 286 91 l 2,111,112
 245 92 245 92 231.5 94 c 128,-1,113
 218 96 218 96 198 109 c 0,114,115
 166 125 166 125 155 140 c 0,116,117
 145 155 145 155 128 164 c 0,118,119
 113 173 113 173 110 185 c 0,120,121
 106 199 106 199 91 223 c 0,122,123
 75 247 75 247 75 258 c 0,124,125
 75 270 75 270 67 284 c 0,126,127
 56 306 56 306 55 366 c 0,128,129
 55 433 55 433 69 458 c 0,130,131
 74 466 74 466 83 490 c 0,132,133
 91 510 91 510 102.5 526.5 c 128,-1,134
 114 543 114 543 121 543 c 0,135,136
 128 545 128 545 125 551 c 0,137,138
 124 553 124 553 124 557 c 0,139,140
 124 574 124 574 150.5 601 c 128,-1,141
 177 628 177 628 218 650 c 0,142,143
 235 660 235 660 262 670.5 c 128,-1,144
 289 681 289 681 298 681 c 0,145,146
 299 681 299 681 301 680 c 0,62,63
EndSplineSet
Validated: 33
EndChar

StartChar: R
Encoding: 82 82 44
Width: 581
GlyphClass: 1
Flags: W
LayerCount: 2
Fore
SplineSet
346 558 m 0,0,1
 338 566 338 566 324 568.5 c 128,-1,2
 310 571 310 571 257 573 c 2,3,-1
 180 577 l 1,4,-1
 184 564 l 2,5,6
 188 555 188 555 190 524 c 0,7,8
 190 521 190 521 192 495.5 c 128,-1,9
 194 470 194 470 195 457 c 2,10,-1
 198 416 l 1,11,-1
 251 419 l 2,12,13
 304 421 304 421 307 424 c 128,-1,14
 310 427 310 427 322 427 c 0,15,16
 331 427 331 427 345.5 440 c 128,-1,17
 360 453 360 453 360 461 c 2,18,-1
 360 462 l 1,19,-1
 359 463 l 2,20,21
 355 468 355 468 365 477 c 0,22,23
 371 483 371 483 371 490 c 0,24,25
 371 499 371 499 367 516 c 0,26,27
 360 546 360 546 346 558 c 0,0,1
101 663 m 0,28,29
 101 666 101 666 98 666 c 0,30,31
 96 666 96 666 96 663 c 0,32,33
 96 661 96 661 98 660 c 0,34,35
 101 661 101 661 101 663 c 0,28,29
526 163 m 0,36,37
 526 159 526 159 515.5 147.5 c 128,-1,38
 505 136 505 136 505 131 c 0,39,40
 505 124 505 124 494 117.5 c 128,-1,41
 483 111 483 111 471 111 c 0,42,43
 470 111 470 111 468 111.5 c 128,-1,44
 466 112 466 112 465 112 c 0,45,46
 452 115 452 115 415 150 c 128,-1,47
 378 185 378 185 357 215 c 0,48,49
 340 239 340 239 310 269.5 c 128,-1,50
 280 300 280 300 265 307 c 0,51,52
 253 313 253 313 234 313 c 2,53,-1
 227 313 l 1,54,-1
 205 311 l 1,55,-1
 203 227 l 2,56,57
 201 142 201 142 197 136 c 0,58,59
 192 131 192 131 167 131 c 2,60,-1
 156 131 l 2,61,62
 133 132 133 132 125.5 135 c 128,-1,63
 118 138 118 138 109 148 c 0,64,65
 101 158 101 158 98.5 167.5 c 128,-1,66
 96 177 96 177 96 210 c 2,67,-1
 96 246 l 1,68,-1
 96 291 l 2,69,70
 96 351 96 351 94 447 c 2,71,-1
 91 567 l 1,72,-1
 71 584 l 2,73,74
 65 589 65 589 61.5 593 c 128,-1,75
 58 597 58 597 57.5 599.5 c 128,-1,76
 57 602 57 602 59 603 c 0,77,78
 67 606 67 606 68 623 c 0,79,80
 68 631 68 631 63 634 c 0,81,82
 61 636 61 636 61 638 c 0,83,84
 61 646 61 646 70.5 658.5 c 128,-1,85
 80 671 80 671 87 671 c 0,86,87
 98 671 98 671 106 677 c 0,88,89
 111 680 111 680 159 680 c 0,90,91
 305 680 305 680 348 669 c 0,92,93
 381 660 381 660 399.5 648 c 128,-1,94
 418 636 418 636 435 612 c 0,95,96
 451 590 451 590 467 534 c 0,97,98
 468 532 468 532 468 524 c 0,99,100
 468 500 468 500 462 469 c 0,101,102
 454 418 454 418 439 399 c 0,103,104
 426 382 426 382 409.5 367 c 128,-1,105
 393 352 393 352 388 352 c 256,106,107
 383 352 383 352 396 331 c 0,108,109
 411 311 411 311 415 310 c 0,110,111
 419 310 419 310 434 285 c 0,112,113
 454 251 454 251 496 215 c 0,114,115
 507 205 507 205 516.5 188.5 c 128,-1,116
 526 172 526 172 526 163 c 0,36,37
EndSplineSet
Validated: 1
EndChar

StartChar: S
Encoding: 83 83 45
Width: 545
GlyphClass: 1
Flags: W
LayerCount: 2
Fore
SplineSet
191 658 m 0,0,1
 227 677 227 677 255 678 c 0,2,3
 263 678 263 678 267 677 c 0,4,5
 281 675 281 675 303 675 c 2,6,-1
 319 675 l 1,7,-1
 331 675 l 2,8,9
 358 675 358 675 376 666 c 0,10,11
 398 654 398 654 401 657 c 0,12,13
 405 658 405 658 414.5 651 c 128,-1,14
 424 644 424 644 427 644 c 0,15,16
 434 644 434 644 434 639 c 128,-1,17
 434 634 434 634 444.5 631 c 128,-1,18
 455 628 455 628 455 620.5 c 128,-1,19
 455 613 455 613 440.5 597 c 128,-1,20
 426 581 426 581 426 568 c 0,21,22
 427 561 427 561 423 558 c 128,-1,23
 419 555 419 555 411 555 c 0,24,25
 398 555 398 555 377 562 c 0,26,27
 352 569 352 569 307 573 c 0,28,29
 299 574 299 574 285 574 c 0,30,31
 256 574 256 574 240.5 564.5 c 128,-1,32
 225 555 225 555 211 528 c 0,33,34
 199 505 199 505 199 497 c 0,35,36
 199 491 199 491 202 484 c 0,37,38
 209 464 209 464 225 458.5 c 128,-1,39
 241 453 241 453 290 453 c 0,40,41
 348 453 348 453 373.5 446.5 c 128,-1,42
 399 440 399 440 418 421 c 0,43,44
 444 394 444 394 476 318 c 0,45,46
 492 284 492 284 493 257 c 0,47,48
 493 240 493 240 484.5 225.5 c 128,-1,49
 476 211 476 211 476 190 c 0,50,51
 475 167 475 167 465.5 145.5 c 128,-1,52
 456 124 456 124 440 114 c 0,53,54
 427 104 427 104 382.5 93.5 c 128,-1,55
 338 83 338 83 309 83 c 0,56,57
 307 83 307 83 303.5 83.5 c 128,-1,58
 300 84 300 84 299 84 c 0,59,60
 293 85 293 85 275.5 87 c 128,-1,61
 258 89 258 89 252 90 c 0,62,63
 176 97 176 97 117 142 c 0,64,65
 79 171 79 171 65 196 c 0,66,67
 57 212 57 212 56 246 c 0,68,69
 56 248 56 248 56.5 252 c 128,-1,70
 57 256 57 256 57 257 c 0,71,72
 57 263 57 263 70 274.5 c 128,-1,73
 83 286 83 286 92 286 c 0,74,75
 95 286 95 286 97 284 c 0,76,77
 105 278 105 278 124 281 c 0,78,79
 137 283 137 283 140.5 281.5 c 128,-1,80
 144 280 144 280 148 269 c 0,81,82
 158 243 158 243 164.5 234.5 c 128,-1,83
 171 226 171 226 182 221 c 0,84,85
 202 212 202 212 206 210 c 0,86,87
 242 190 242 190 317 189 c 0,88,89
 352 189 352 189 364 197 c 0,90,91
 373 203 373 203 373 217 c 0,92,93
 373 228 373 228 372 238 c 0,94,95
 370 257 370 257 370 288 c 0,96,97
 370 305 370 305 360 326 c 128,-1,98
 350 347 350 347 341 348 c 0,99,100
 336 348 336 348 283 350 c 0,101,102
 195 353 195 353 174 366 c 0,103,104
 156 378 156 378 136.5 397 c 128,-1,105
 117 416 117 416 111 429 c 0,106,107
 94 467 94 467 93 485 c 0,108,109
 93 494 93 494 97 502 c 0,110,111
 102 511 102 511 108.5 537.5 c 128,-1,112
 115 564 115 564 122 574 c 0,113,114
 132 592 132 592 132 598 c 0,115,116
 132 606 132 606 153.5 628 c 128,-1,117
 175 650 175 650 191 658 c 0,0,1
EndSplineSet
Validated: 1
EndChar

StartChar: T
Encoding: 84 84 46
Width: 601
GlyphClass: 1
Flags: W
LayerCount: 2
Fore
SplineSet
435 677 m 0,0,1
 442 680 442 680 457 680 c 0,2,3
 482 680 482 680 508 672.5 c 128,-1,4
 534 665 534 665 534 655.5 c 128,-1,5
 534 646 534 646 541 637 c 0,6,7
 545 633 545 633 545 626 c 0,8,9
 545 617 545 617 540 604 c 0,10,11
 535 587 535 587 531 584 c 128,-1,12
 527 581 527 581 514 581 c 0,13,14
 494 581 494 581 473 575 c 0,15,16
 466 573 466 573 444 569.5 c 128,-1,17
 422 566 422 566 414 564 c 0,18,19
 374 557 374 557 366 553 c 128,-1,20
 358 549 358 549 351 528 c 0,21,22
 340 492 340 492 340 351 c 0,23,24
 340 304 340 304 343 289 c 0,25,26
 348 265 348 265 348 210 c 0,27,28
 348 170 348 170 345 160 c 0,29,30
 341 146 341 146 327.5 145.5 c 128,-1,31
 314 145 314 145 300 136 c 0,32,33
 291 130 291 130 287 130 c 0,34,35
 281 130 281 130 269 140 c 0,36,37
 254 152 254 152 250 169 c 0,38,39
 240 222 240 222 240 447 c 0,40,41
 240 522 240 522 243 535 c 0,42,43
 247 551 247 551 246 552 c 128,-1,44
 245 553 245 553 186 557 c 0,45,46
 67 563 67 563 61 567 c 0,47,48
 57 570 57 570 57 589 c 0,49,50
 57 602 57 602 58 611 c 0,51,52
 61 653 61 653 66 662 c 128,-1,53
 71 671 71 671 88 671 c 0,54,55
 108 671 108 671 111.5 665.5 c 128,-1,56
 115 660 115 660 139 660 c 2,57,-1
 153 660 l 2,58,59
 206 660 206 660 212 654 c 0,60,61
 213 653 213 653 220 653 c 0,62,63
 249 653 249 653 336 663 c 128,-1,64
 423 673 423 673 435 677 c 0,0,1
EndSplineSet
Validated: 1
EndChar

StartChar: U
Encoding: 85 85 47
Width: 569
GlyphClass: 1
Flags: W
LayerCount: 2
Fore
SplineSet
446 239 m 0,0,1
 446 241 446 241 443 241 c 0,2,3
 441 241 441 241 441 239 c 0,4,5
 441 236 441 236 443 236 c 0,6,7
 446 236 446 236 446 239 c 0,0,1
428 745 m 0,8,9
 437 749 437 749 462 750 c 0,10,11
 494 750 494 750 497 743 c 0,12,13
 505 724 505 724 505 695 c 0,14,15
 505 690 505 690 504.5 679.5 c 128,-1,16
 504 669 504 669 504 663 c 0,17,18
 504 559 504 559 511 546.5 c 128,-1,19
 518 534 518 534 518 436 c 0,20,21
 518 388 518 388 515 373 c 0,22,23
 514 367 514 367 510 347.5 c 128,-1,24
 506 328 506 328 505 321 c 0,25,26
 502 307 502 307 495.5 296.5 c 128,-1,27
 489 286 489 286 486 275 c 0,28,29
 483 261 483 261 477 243.5 c 128,-1,30
 471 226 471 226 467 212 c 0,31,32
 460 187 460 187 447 180 c 0,33,34
 436 174 436 174 436 169 c 128,-1,35
 436 164 436 164 422 157 c 0,36,37
 395 144 395 144 380 135 c 0,38,39
 350 119 350 119 330 119 c 0,40,41
 319 119 319 119 308 124 c 0,42,43
 297 129 297 129 267 131 c 0,44,45
 230 133 230 133 174 164 c 128,-1,46
 118 195 118 195 118 212 c 0,47,48
 118 219 118 219 111 226 c 0,49,50
 91 246 91 246 88 279 c 0,51,52
 87 289 87 289 82 306 c 128,-1,53
 77 323 77 323 77 338 c 2,54,-1
 77 347 l 1,55,-1
 77 357 l 2,56,57
 77 414 77 414 59 514 c 0,58,59
 55 539 55 539 55 583 c 0,60,61
 55 646 55 646 63 656 c 0,62,63
 69 665 69 665 110 666 c 0,64,65
 139 666 139 666 145 664 c 128,-1,66
 151 662 151 662 155 650.5 c 128,-1,67
 159 639 159 639 159 610 c 2,68,-1
 159 564 l 2,69,70
 159 538 159 538 161 531 c 0,71,72
 172 482 172 482 178 384 c 0,73,74
 182 293 182 293 195 283 c 0,75,76
 203 277 203 277 203 269 c 0,77,78
 203 265 203 265 208 261 c 128,-1,79
 213 257 213 257 220 252.5 c 128,-1,80
 227 248 227 248 228 247 c 0,81,82
 243 229 243 229 298 228 c 0,83,84
 334 228 334 228 357 239 c 0,85,86
 375 247 375 247 381.5 254.5 c 128,-1,87
 388 262 388 262 392 286 c 0,88,89
 395 302 395 302 398 310 c 0,90,91
 402 320 402 320 408.5 366.5 c 128,-1,92
 415 413 415 413 415 432 c 0,93,94
 415 449 415 449 410 496 c 0,95,96
 400 593 400 593 399 664 c 0,97,98
 399 708 399 708 403 721 c 0,99,100
 405 726 405 726 406.5 729.5 c 128,-1,101
 408 733 408 733 409.5 736 c 128,-1,102
 411 739 411 739 412 740.5 c 128,-1,103
 413 742 413 742 414 742 c 0,104,105
 418 740 418 740 428 745 c 0,8,9
EndSplineSet
Validated: 1
EndChar

StartChar: V
Encoding: 86 86 48
Width: 544
GlyphClass: 1
Flags: W
LayerCount: 2
Fore
SplineSet
431 640 m 0,0,1
 436 646 436 646 444 638 c 0,2,3
 453 629 453 629 464 629 c 0,4,5
 476 629 476 629 483 616 c 0,6,7
 488 608 488 608 488 600 c 0,8,9
 488 587 488 587 469 547 c 0,10,11
 456 518 456 518 456 514 c 128,-1,12
 456 510 456 510 444 487 c 0,13,14
 434 469 434 469 434 453 c 0,15,16
 434 439 434 439 424 408.5 c 128,-1,17
 414 378 414 378 413 371 c 0,18,19
 405 343 405 343 400 339 c 0,20,21
 389 326 389 326 383 279 c 0,22,23
 381 265 381 265 373 249 c 128,-1,24
 365 233 365 233 361 219 c 0,25,26
 358 204 358 204 354.5 193 c 128,-1,27
 351 182 351 182 343.5 167.5 c 128,-1,28
 336 153 336 153 332 142 c 2,29,-1
 318 112 l 1,30,-1
 296 115 l 2,31,32
 277 118 277 118 264 123 c 0,33,34
 251 130 251 130 251 126 c 0,35,36
 251 125 251 125 252 123 c 0,37,38
 256 117 256 117 247 117 c 0,39,40
 230 117 230 117 206.5 196.5 c 128,-1,41
 183 276 183 276 179 280 c 0,42,43
 175 284 175 284 175 293 c 0,44,45
 175 303 175 303 170 311 c 0,46,47
 162 326 162 326 150 355 c 128,-1,48
 138 384 138 384 138 388 c 0,49,50
 139 394 139 394 95 483 c 0,51,52
 83 506 83 506 70 545 c 128,-1,53
 57 584 57 584 57 596 c 0,54,55
 57 599 57 599 59.5 605.5 c 128,-1,56
 62 612 62 612 62 616 c 0,57,58
 62 623 62 623 68.5 625 c 128,-1,59
 75 627 75 627 101 627 c 2,60,-1
 121 627 l 2,61,62
 144 627 144 627 149.5 623.5 c 128,-1,63
 155 620 155 620 157 606 c 0,64,65
 168 556 168 556 176 550 c 0,66,67
 183 545 183 545 195.5 512 c 128,-1,68
 208 479 208 479 209 466 c 0,69,70
 209 447 209 447 215 446 c 0,71,72
 218 446 218 446 228 432.5 c 128,-1,73
 238 419 238 419 242 408 c 0,74,75
 259 374 259 374 261 357 c 0,76,77
 274 311 274 311 282 311 c 0,78,79
 284 311 284 311 284 312 c 0,80,81
 318 397 318 397 329 450 c 0,82,83
 337 498 337 498 360 545 c 0,84,85
 365 554 365 554 374.5 582 c 128,-1,86
 384 610 384 610 392 623 c 0,87,88
 398 633 398 633 403 636 c 128,-1,89
 408 639 408 639 415 637 c 0,90,91
 428 633 428 633 431 640 c 0,0,1
EndSplineSet
Validated: 33
EndChar

StartChar: W
Encoding: 87 87 49
Width: 760
GlyphClass: 1
Flags: W
LayerCount: 2
Fore
SplineSet
209 446 m 0,0,1
 209 440 209 440 216.5 430.5 c 128,-1,2
 224 421 224 421 224 417 c 0,3,4
 224 416 224 416 239 367 c 2,5,-1
 252 322 l 1,6,-1
 263 339 l 2,7,8
 270 349 270 349 276 383.5 c 128,-1,9
 282 418 282 418 289 426 c 0,10,11
 295 433 295 433 309 505 c 0,12,13
 326 596 326 596 340 628 c 128,-1,14
 354 660 354 660 379 670 c 0,15,16
 397 676 397 676 403.5 676 c 128,-1,17
 410 676 410 676 410 670 c 128,-1,18
 410 664 410 664 424 659 c 0,19,20
 443 655 443 655 452.5 633.5 c 128,-1,21
 462 612 462 612 470 548 c 1,22,23
 479 512 479 512 480 509 c 0,24,25
 486 492 486 492 493 457.5 c 128,-1,26
 500 423 500 423 505 404 c 0,27,28
 517 362 517 362 523 343 c 0,29,30
 532 312 532 312 536 315 c 0,31,32
 540 316 540 316 544 352 c 128,-1,33
 548 388 548 388 566 480 c 128,-1,34
 584 572 584 572 589 582 c 0,35,36
 593 588 593 588 595 604 c 0,37,38
 595 615 595 615 606 640 c 2,39,-1
 618 664 l 1,40,-1
 644 662 l 2,41,42
 672 660 672 660 684.5 653 c 128,-1,43
 697 646 697 646 701 630 c 0,44,45
 703 625 703 625 703 615 c 0,46,47
 703 604 703 604 698 595 c 0,48,49
 690 581 690 581 681 535 c 0,50,51
 671 485 671 485 663 459 c 0,52,53
 653 426 653 426 652 401 c 0,54,55
 652 381 652 381 644.5 357 c 128,-1,56
 637 333 637 333 637 308 c 2,57,-1
 637 298 l 2,58,59
 637 270 637 270 633 264 c 0,60,61
 628 257 628 257 618.5 202.5 c 128,-1,62
 609 148 609 148 607 142 c 0,63,64
 600 124 600 124 603 121 c 2,65,-1
 604 120 l 1,66,67
 604 111 604 111 555 111 c 0,68,69
 537 111 537 111 525 114 c 0,70,71
 515 117 515 117 501.5 136 c 128,-1,72
 488 155 488 155 488 167 c 0,73,74
 488 176 488 176 467 216 c 0,75,76
 452 247 452 247 428 313 c 128,-1,77
 404 379 404 379 404 393 c 0,78,79
 404 401 404 401 398 414 c 0,80,81
 395 419 395 419 394.5 420 c 128,-1,82
 394 421 394 421 392.5 421.5 c 128,-1,83
 391 422 391 422 389.5 420 c 128,-1,84
 388 418 388 418 386 413 c 0,85,86
 381 404 381 404 371 357 c 0,87,88
 358 299 358 299 333 228 c 0,89,90
 320 192 320 192 319 185 c 0,91,92
 319 177 319 177 308.5 148.5 c 128,-1,93
 298 120 298 120 291 109 c 0,94,95
 285 98 285 98 275 95 c 0,96,97
 259 95 259 95 247 93 c 0,98,99
 233 91 233 91 228.5 92 c 128,-1,100
 224 93 224 93 225 99 c 0,101,102
 226 104 226 104 225 106.5 c 128,-1,103
 224 109 224 109 220 108 c 2,104,-1
 218 108 l 2,105,106
 194 108 194 108 177 195 c 0,107,108
 159 292 159 292 148 319 c 0,109,110
 140 339 140 339 140 351 c 0,111,112
 140 360 140 360 131.5 379.5 c 128,-1,113
 123 399 123 399 123 409 c 0,114,115
 121 423 121 423 119 423 c 128,-1,116
 117 423 117 423 98 470 c 0,117,118
 91 490 91 490 84 503.5 c 128,-1,119
 77 517 77 517 74 527 c 128,-1,120
 71 537 71 537 67 558 c 0,121,122
 60 595 60 595 58 598 c 0,123,124
 57 600 57 600 57 604 c 0,125,126
 57 627 57 627 110 633 c 0,127,128
 128 635 128 635 131 635 c 0,129,130
 144 635 144 635 150.5 622 c 128,-1,131
 157 609 157 609 172 555 c 0,132,133
 187 505 187 505 199 479 c 0,134,135
 209 460 209 460 209 446 c 0,0,1
573 104 m 0,136,137
 573 106 573 106 575 106 c 0,138,139
 578 106 578 106 579 104 c 0,140,141
 579 101 579 101 575 101 c 0,142,143
 573 101 573 101 573 104 c 0,136,137
EndSplineSet
Validated: 1
EndChar

StartChar: X
Encoding: 88 88 50
Width: 560
GlyphClass: 1
Flags: W
LayerCount: 2
Fore
SplineSet
138 497 m 0,0,1
 138 500 138 500 125 514 c 128,-1,2
 112 528 112 528 112 531 c 0,3,4
 112 535 112 535 98 555 c 0,5,6
 79 581 79 581 79 605 c 0,7,8
 79 614 79 614 82 620.5 c 128,-1,9
 85 627 85 627 86 632 c 128,-1,10
 87 637 87 637 88.5 640.5 c 128,-1,11
 90 644 90 644 95 649 c 0,12,13
 103 657 103 657 120 657 c 0,14,15
 139 657 139 657 157 647 c 128,-1,16
 175 637 175 637 175 624 c 0,17,18
 175 615 175 615 221 561.5 c 128,-1,19
 267 508 267 508 275 508 c 0,20,21
 279 508 279 508 283 520 c 0,22,23
 287 531 287 531 321.5 573 c 128,-1,24
 356 615 356 615 359 622 c 0,25,26
 371 641 371 641 403 673 c 0,27,28
 433 703 433 703 438 702 c 0,29,30
 449 702 449 702 466.5 684 c 128,-1,31
 484 666 484 666 488 656 c 0,32,33
 494 645 494 645 495 640 c 0,34,35
 495 633 495 633 487 622 c 0,36,37
 464 580 464 580 421 528 c 0,38,39
 381 482 381 482 381 476 c 0,40,41
 381 471 381 471 377 471 c 128,-1,42
 373 471 373 471 358.5 443.5 c 128,-1,43
 344 416 344 416 344 409 c 0,44,45
 344 403 344 403 354.5 394.5 c 128,-1,46
 365 386 365 386 371 366 c 0,47,48
 374 357 374 357 388 336 c 128,-1,49
 402 315 402 315 422 291 c 128,-1,50
 442 267 442 267 443 265 c 0,51,52
 454 250 454 250 459 248 c 0,53,54
 466 244 466 244 466 238 c 0,55,56
 466 231 466 231 483 210 c 0,57,58
 505 183 505 183 505 174 c 0,59,60
 505 164 505 164 483 146 c 0,61,62
 459 128 459 128 449 128 c 0,63,64
 433 128 433 128 413 145.5 c 128,-1,65
 393 163 393 163 360 207 c 0,66,67
 337 238 337 238 331 243 c 0,68,69
 325 247 325 247 311 267.5 c 128,-1,70
 297 288 297 288 292 299 c 0,71,72
 286 314 286 314 279 312 c 0,73,74
 276 312 276 312 275 307 c 0,75,76
 275 301 275 301 216 223 c 0,77,78
 177 172 177 172 160 137 c 0,79,80
 147 107 147 107 130 108 c 0,81,82
 125 108 125 108 118 111 c 0,83,84
 105 116 105 116 90 110 c 0,85,86
 82 107 82 107 78 106 c 0,87,88
 70 106 70 106 68 122 c 0,89,90
 66 133 66 133 59 141 c 1,91,92
 53 142 53 142 56.5 155 c 128,-1,93
 60 168 60 168 60 169 c 0,94,95
 60 179 60 179 95 230.5 c 128,-1,96
 130 282 130 282 155 308 c 0,97,98
 181 336 181 336 199 373 c 2,99,-1
 217 409 l 1,100,-1
 207 423 l 2,101,102
 199 436 199 436 168 465 c 0,103,104
 138 491 138 491 138 497 c 0,0,1
EndSplineSet
Validated: 33
EndChar

StartChar: Y
Encoding: 89 89 51
Width: 549
GlyphClass: 1
Flags: W
LayerCount: 2
Fore
SplineSet
407 653 m 0,0,1
 418 667 418 667 424 668 c 0,2,3
 432 668 432 668 456 647 c 0,4,5
 463 641 463 641 465 640 c 128,-1,6
 467 639 467 639 470 639.5 c 128,-1,7
 473 640 473 640 482 638 c 0,8,9
 493 633 493 633 494 621 c 0,10,11
 494 611 494 611 483 588 c 0,12,13
 483 587 483 587 461 540 c 0,14,15
 446 507 446 507 418 467 c 0,16,17
 388 424 388 424 388 421 c 0,18,19
 388 416 388 416 368.5 377.5 c 128,-1,20
 349 339 349 339 346 339 c 0,21,22
 342 339 342 339 323.5 291 c 128,-1,23
 305 243 305 243 284 191.5 c 128,-1,24
 263 140 263 140 255 134 c 0,25,26
 250 130 250 130 237 130 c 0,27,28
 221 130 221 130 201 138 c 0,29,30
 170 152 170 152 170 167 c 0,31,32
 170 169 170 169 172 179 c 0,33,34
 173 183 173 183 174 187 c 128,-1,35
 175 191 175 191 174.5 194 c 128,-1,36
 174 197 174 197 173 197 c 128,-1,37
 172 197 172 197 174.5 202 c 128,-1,38
 177 207 177 207 184 219 c 0,39,40
 198 246 198 246 199 253 c 0,41,42
 199 266 199 266 209 290 c 0,43,44
 225 327 225 327 225 339 c 128,-1,45
 225 351 225 351 205 378 c 0,46,47
 187 402 187 402 166 433.5 c 128,-1,48
 145 465 145 465 145 469 c 0,49,50
 145 472 145 472 120 507 c 0,51,52
 72 575 72 575 72 587 c 0,53,54
 72 597 72 597 62 602 c 0,55,56
 55 606 55 606 60 608 c 0,57,58
 68 608 68 608 65 612 c 2,59,-1
 63 613 l 2,60,61
 63 614 63 614 63 615 c 0,62,63
 63 622 63 622 76.5 631 c 128,-1,64
 90 640 90 640 102 640 c 0,65,66
 113 640 113 640 117 645 c 0,67,68
 120 651 120 651 127 651 c 0,69,70
 138 651 138 651 154.5 634.5 c 128,-1,71
 171 618 171 618 184 591 c 0,72,73
 208 549 208 549 219 536 c 0,74,75
 235 518 235 518 235.5 511.5 c 128,-1,76
 236 505 236 505 249 492 c 0,77,78
 263 478 263 478 273 462 c 2,79,-1
 285 444 l 1,80,-1
 294 465 l 2,81,82
 298 474 298 474 329 524 c 0,83,84
 341 542 341 542 367.5 588.5 c 128,-1,85
 394 635 394 635 407 653 c 0,0,1
229 120 m 128,-1,87
 229 123 229 123 232.5 123 c 128,-1,88
 236 123 236 123 236 120 c 128,-1,89
 236 117 236 117 232.5 117 c 128,-1,86
 229 117 229 117 229 120 c 128,-1,87
EndSplineSet
Validated: 1
EndChar

StartChar: Z
Encoding: 90 90 52
Width: 557
GlyphClass: 1
Flags: W
LayerCount: 2
Fore
SplineSet
265 663 m 0,0,1
 267 665 267 665 285 665 c 0,2,3
 298 665 298 665 306 664 c 128,-1,4
 314 663 314 663 330.5 662.5 c 128,-1,5
 347 662 347 662 358.5 660.5 c 128,-1,6
 370 659 370 659 382 656.5 c 128,-1,7
 394 654 394 654 400.5 649 c 128,-1,8
 407 644 407 644 407 635 c 0,9,10
 407 631 407 631 406 628 c 0,11,12
 403 616 403 616 409 611 c 0,13,14
 414 608 414 608 414 595 c 0,15,16
 414 572 414 572 403 553 c 0,17,18
 395 539 395 539 372 484 c 0,19,20
 345 425 345 425 287 365 c 0,21,22
 269 345 269 345 266 330 c 0,23,24
 266 318 266 318 242 284 c 0,25,26
 204 232 204 232 204 216 c 0,27,28
 204 214 204 214 205 213 c 0,29,30
 212 206 212 206 303 206 c 0,31,32
 308 206 308 206 316 206.5 c 128,-1,33
 324 207 324 207 327 207 c 0,34,35
 354 209 354 209 394 209 c 0,36,37
 468 209 468 209 475 183 c 0,38,39
 484 153 484 153 484 111 c 0,40,41
 484 109 484 109 483.5 103.5 c 128,-1,42
 483 98 483 98 483 95 c 0,43,44
 482 70 482 70 402 68 c 0,45,46
 350 66 350 66 330 59 c 0,47,48
 305 52 305 52 301 53 c 0,49,50
 298 54 298 54 231 56 c 0,51,52
 169 58 169 58 147 65 c 0,53,54
 130 72 130 72 120 68 c 1,55,-1
 118 68 l 2,56,57
 110 68 110 68 94.5 78.5 c 128,-1,58
 79 89 79 89 79 95 c 0,59,60
 79 104 79 104 72 111 c 0,61,62
 61 119 61 119 64 139.5 c 128,-1,63
 67 160 67 160 61 160 c 0,64,65
 55 160 55 160 55 166 c 0,66,67
 55 175 55 175 73.5 204 c 128,-1,68
 92 233 92 233 92 236 c 0,69,70
 92 242 92 242 109 258 c 0,71,72
 129 281 129 281 179 380 c 0,73,74
 196 417 196 417 210 430 c 0,75,76
 238 458 238 458 270 514 c 2,77,-1
 289 545 l 1,78,-1
 263 546 l 2,79,80
 256 547 256 547 228.5 547.5 c 128,-1,81
 201 548 201 548 189 548 c 0,82,83
 180 548 180 548 166.5 548.5 c 128,-1,84
 153 549 153 549 145.5 549.5 c 128,-1,85
 138 550 138 550 137 550 c 2,86,-1
 132 550 l 1,87,88
 134 550 134 550 134 548 c 0,89,90
 134 545 134 545 132 545 c 0,91,92
 129 545 129 545 129 548 c 2,93,-1
 129 549 l 1,94,95
 120 546 120 546 118 545 c 0,96,97
 106 540 106 540 98 540 c 0,98,99
 80 540 80 540 72 561 c 0,100,101
 65 586 65 586 65 603 c 0,102,103
 65 623 65 623 72 631 c 0,104,105
 81 638 81 638 83 646 c 0,106,107
 85 653 85 653 215 657 c 0,108,109
 262 660 262 660 265 663 c 0,0,1
494 120 m 128,-1,111
 494 123 494 123 496 123 c 0,112,113
 499 123 499 123 499 120 c 128,-1,114
 499 117 499 117 496 117 c 0,115,110
 494 117 494 117 494 120 c 128,-1,111
EndSplineSet
Validated: 1
EndChar

StartChar: a
Encoding: 97 97 53
Width: 540
GlyphClass: 1
Flags: W
LayerCount: 2
Fore
SplineSet
315 425 m 0,0,1
 314 430 314 430 308.5 431.5 c 128,-1,2
 303 433 303 433 296 429 c 0,3,4
 291 424 291 424 267 424 c 2,5,-1
 261 424 l 1,6,-1
 254 424 l 2,7,8
 235 424 235 424 210 406 c 0,9,10
 183 382 183 382 172 356 c 0,11,12
 159 326 159 326 159 307 c 0,13,14
 159 305 159 305 159.5 299 c 128,-1,15
 160 293 160 293 160 289 c 0,16,17
 162 251 162 251 177 228 c 0,18,19
 192 206 192 206 204 207 c 0,20,21
 216 207 216 207 244 232 c 128,-1,22
 272 257 272 257 286 280 c 0,23,24
 301 307 301 307 307 310 c 0,25,26
 312 314 312 314 309 331 c 0,27,28
 308 335 308 335 308 341 c 0,29,30
 308 353 308 353 314 362 c 0,31,32
 321 372 321 372 322 383 c 0,33,34
 322 386 322 386 319 398 c 0,35,36
 315 423 315 423 315 425 c 0,0,1
199 513 m 0,37,38
 217 522 217 522 240 522 c 0,39,40
 262 522 262 522 279 521 c 0,41,42
 329 519 329 519 366.5 506.5 c 128,-1,43
 404 494 404 494 412 477 c 0,44,45
 417 468 417 468 421 408 c 0,46,47
 426 307 426 307 428.5 280.5 c 128,-1,48
 431 254 431 254 438 232 c 0,49,50
 450 199 450 199 462 188 c 0,51,52
 472 176 472 176 481 161 c 0,53,54
 486 152 486 152 485 148.5 c 128,-1,55
 484 145 484 145 476 138 c 0,56,57
 463 129 463 129 460 131 c 0,58,59
 455 134 455 134 455 128 c 128,-1,60
 455 122 455 122 440 109.5 c 128,-1,61
 425 97 425 97 418 96 c 0,62,63
 408 96 408 96 381 124.5 c 128,-1,64
 354 153 354 153 354 163 c 0,65,66
 354 168 354 168 348 174 c 0,67,68
 343 179 343 179 327 163 c 0,69,70
 289 127 289 127 272 117.5 c 128,-1,71
 255 108 255 108 222 104 c 0,72,73
 199 102 199 102 195 102 c 0,74,75
 178 102 178 102 165 109 c 0,76,77
 152 117 152 117 143 117 c 0,78,79
 133 117 133 117 108.5 143 c 128,-1,80
 84 169 84 169 71 194 c 0,81,82
 55 227 55 227 54 272 c 0,83,84
 54 344 54 344 85 402 c 0,85,86
 100 432 100 432 128 464.5 c 128,-1,87
 156 497 156 497 171 503 c 0,88,89
 181 507 181 507 199 513 c 0,37,38
EndSplineSet
Validated: 33
EndChar

StartChar: b
Encoding: 98 98 54
Width: 449
GlyphClass: 1
Flags: W
LayerCount: 2
Fore
SplineSet
245 428 m 0,0,1
 228 438 228 438 211 438 c 0,2,3
 200 438 200 438 190 434 c 0,4,5
 178 429 178 429 174.5 419 c 128,-1,6
 171 409 171 409 170 372 c 0,7,8
 168 325 168 325 165 318 c 0,9,10
 160 313 160 313 165 306 c 0,11,12
 167 303 167 303 169 252 c 0,13,14
 169 205 169 205 174 198 c 0,15,16
 178 192 178 192 198 191 c 0,17,18
 247 191 247 191 268.5 221.5 c 128,-1,19
 290 252 290 252 290 322 c 2,20,-1
 290 332 l 2,21,22
 289 363 289 363 276.5 390 c 128,-1,23
 264 417 264 417 245 428 c 0,0,1
68 684 m 2,24,25
 79 695 79 695 82 696 c 128,-1,26
 85 697 85 697 90 691 c 0,27,28
 97 682 97 682 105.5 682 c 128,-1,29
 114 682 114 682 114 677 c 128,-1,30
 114 672 114 672 130 672 c 0,31,32
 150 672 150 672 157.5 665.5 c 128,-1,33
 165 659 165 659 165 641 c 2,34,-1
 165 631 l 1,35,-1
 165 618 l 2,36,37
 165 608 165 608 167 599 c 128,-1,38
 169 590 169 590 169 579 c 2,39,-1
 169 566 l 1,40,-1
 168 535 l 1,41,-1
 212 538 l 2,42,43
 216 538 216 538 222.5 538.5 c 128,-1,44
 229 539 229 539 232 539 c 0,45,46
 262 539 262 539 280.5 528.5 c 128,-1,47
 299 518 299 518 329 487 c 0,48,49
 360 455 360 455 374 427 c 128,-1,50
 388 399 388 399 393 360 c 0,51,52
 395 337 395 337 395 326 c 0,53,54
 395 271 395 271 377.5 217.5 c 128,-1,55
 360 164 360 164 333 138 c 0,56,57
 281 90 281 90 207 89 c 2,58,-1
 196 89 l 2,59,60
 162 89 162 89 133 103 c 0,61,62
 106 116 106 116 95 117 c 0,63,64
 88 117 88 117 88 123 c 0,65,66
 88 128 88 128 78 128 c 0,67,68
 67 128 67 128 63.5 133 c 128,-1,69
 60 138 60 138 58 229 c 0,70,71
 56 340 56 340 53 401 c 0,72,73
 51 448 51 448 51 456 c 0,74,75
 51 485 51 485 56 495 c 0,76,77
 60 502 60 502 60 506 c 0,78,79
 60 508 60 508 59 511 c 128,-1,80
 58 514 58 514 58 516 c 0,81,82
 58 520 58 520 61 527 c 0,83,84
 65 540 65 540 60 547.5 c 128,-1,85
 55 555 55 555 53 611 c 2,86,-1
 51 668 l 1,87,-1
 68 684 l 2,24,25
EndSplineSet
Validated: 1
EndChar

StartChar: c
Encoding: 99 99 55
Width: 486
GlyphClass: 1
Flags: W
LayerCount: 2
Fore
SplineSet
359 479 m 0,0,1
 359 481 359 481 356 481 c 128,-1,2
 353 481 353 481 353 479 c 0,3,4
 353 476 353 476 356 476 c 128,-1,5
 359 476 359 476 359 479 c 0,0,1
214 562 m 0,6,7
 232 568 232 568 252 568 c 0,8,9
 283 568 283 568 324 550 c 0,10,11
 346 540 346 540 353.5 532.5 c 128,-1,12
 361 525 361 525 369 511 c 0,13,14
 380 488 380 488 380 483 c 0,15,16
 380 479 380 479 365 467 c 128,-1,17
 350 455 350 455 345 455 c 0,18,19
 341 455 341 455 329 444 c 2,20,-1
 315 434 l 1,21,-1
 287 451 l 2,22,23
 263 464 263 464 252 464 c 0,24,25
 247 464 247 464 245 463 c 0,26,27
 211 455 211 455 176 383 c 0,28,29
 159 347 159 347 159 327 c 0,30,31
 159 311 159 311 160 299 c 0,32,33
 164 253 164 253 169 246 c 0,34,35
 191 221 191 221 250 203 c 2,36,-1
 285 193 l 1,37,-1
 307 216 l 2,38,39
 327 240 327 240 339 261 c 0,40,41
 348 278 348 278 357 279 c 0,42,43
 362 279 362 279 366 278 c 0,44,45
 375 276 375 276 394 272 c 0,46,47
 423 268 423 268 430 240 c 0,48,49
 431 238 431 238 431 232 c 0,50,51
 431 194 431 194 384 145 c 0,52,53
 333 91 333 91 279 91 c 0,54,55
 250 91 250 91 207 108 c 0,56,57
 133 138 133 138 131 142 c 0,58,59
 128 148 128 148 114 155 c 0,60,61
 101 162 101 162 85.5 182.5 c 128,-1,62
 70 203 70 203 66 220 c 0,63,64
 64 227 64 227 57 289 c 0,65,66
 55 316 55 316 55 327 c 0,67,68
 55 390 55 390 70 399 c 0,69,70
 74 402 74 402 74 411 c 0,71,72
 74 417 74 417 99.5 459.5 c 128,-1,73
 125 502 125 502 136 515 c 0,74,75
 164 547 164 547 214 562 c 0,6,7
EndSplineSet
Validated: 1
EndChar

StartChar: d
Encoding: 100 100 56
Width: 543
GlyphClass: 1
Flags: W
LayerCount: 2
Fore
SplineSet
299 450 m 0,0,1
 299 443 299 443 302 447 c 128,-1,2
 305 451 305 451 302 454 c 0,3,4
 300 454 300 454 299 450 c 0,0,1
273 437 m 0,5,6
 237 453 237 453 225 454 c 0,7,8
 221 454 221 454 217 452 c 0,9,10
 205 442 205 442 177 369 c 0,11,12
 162 330 162 330 162 276 c 0,13,14
 162 243 162 243 169 225 c 0,15,16
 177 203 177 203 193 184 c 128,-1,17
 209 165 209 165 219 165 c 0,18,19
 239 165 239 165 263.5 190.5 c 128,-1,20
 288 216 288 216 288 238 c 0,21,22
 288 247 288 247 293 252 c 0,23,24
 297 256 297 256 311 303 c 128,-1,25
 325 350 325 350 325 360 c 0,26,27
 325 368 325 368 314 381 c 0,28,29
 305 390 305 390 301 410 c 0,30,31
 299 420 299 420 293 425 c 128,-1,32
 287 430 287 430 273 437 c 0,5,6
319 466 m 0,33,34
 324 466 324 466 328 472 c 0,35,36
 330 476 330 476 326 476 c 0,37,38
 321 476 321 476 317 470 c 0,39,40
 315 466 315 466 319 466 c 0,33,34
356 694 m 0,41,42
 368 706 368 706 382 707 c 0,43,44
 383 707 383 707 386.5 706.5 c 128,-1,45
 390 706 390 706 392 706 c 0,46,47
 397 706 397 706 405 705.5 c 128,-1,48
 413 705 413 705 418 704 c 128,-1,49
 423 703 423 703 424 703 c 0,50,51
 431 703 431 703 444 681 c 0,52,53
 456 662 456 662 457 645 c 0,54,55
 457 642 457 642 455 611 c 0,56,57
 451 562 451 562 451 501 c 0,58,59
 451 341 451 341 484 134 c 0,60,61
 488 109 488 109 488 108 c 0,62,63
 488 101 488 101 480 87 c 0,64,65
 467 71 467 71 444 71 c 0,66,67
 436 71 436 71 433 75 c 0,68,69
 430 80 430 80 420 74 c 0,70,71
 416 71 416 71 412 71 c 0,72,73
 401 71 401 71 400 87 c 0,74,75
 400 88 400 88 400.5 89.5 c 128,-1,76
 401 91 401 91 401 92 c 0,77,78
 403 101 403 101 396 101 c 0,79,80
 391 101 391 101 385.5 117 c 128,-1,81
 380 133 380 133 380 146 c 2,82,-1
 380 155 l 2,83,84
 380 161 380 161 376 161 c 0,85,86
 368 161 368 161 336 125 c 128,-1,87
 304 89 304 89 279.5 74 c 128,-1,88
 255 59 255 59 225 59 c 0,89,90
 223 59 223 59 218.5 59.5 c 128,-1,91
 214 60 214 60 212 60 c 0,92,93
 174 64 174 64 151 80 c 0,94,95
 125 96 125 96 111.5 112.5 c 128,-1,96
 98 129 98 129 81 165 c 0,97,98
 55 219 55 219 55 265 c 0,99,100
 55 277 55 277 59 312 c 0,101,102
 67 374 67 374 104 454 c 0,103,104
 136 520 136 520 178 542 c 0,105,106
 196 550 196 550 209 550 c 0,107,108
 219 550 219 550 243 547 c 0,109,110
 288 541 288 541 312 524 c 0,111,112
 337 507 337 507 340 510 c 0,113,114
 342 512 342 512 342 535 c 0,115,116
 342 540 342 540 341.5 551.5 c 128,-1,117
 341 563 341 563 341 569 c 0,118,119
 340 593 340 593 340 626 c 0,120,121
 340 658 340 658 343 670.5 c 128,-1,122
 346 683 346 683 356 694 c 0,41,42
EndSplineSet
Validated: 1
EndChar

StartChar: e
Encoding: 101 101 57
Width: 595
GlyphClass: 1
Flags: W
LayerCount: 2
Fore
SplineSet
339 460 m 0,0,1
 335 466 335 466 295 466 c 0,2,3
 254 466 254 466 250 460 c 0,4,5
 247 455 247 455 236.5 455 c 128,-1,6
 226 455 226 455 218 444.5 c 128,-1,7
 210 434 210 434 202 434 c 128,-1,8
 194 434 194 434 183.5 421 c 128,-1,9
 173 408 173 408 173 397 c 0,10,11
 173 390 173 390 175.5 388 c 128,-1,12
 178 386 178 386 190 386 c 0,13,14
 191 386 191 386 230 388 c 0,15,16
 315 392 315 392 357 422 c 0,17,18
 361 425 361 425 366.5 428.5 c 128,-1,19
 372 432 372 432 374.5 434 c 128,-1,20
 377 436 377 436 378 436 c 0,21,22
 379 437 379 437 379 438 c 0,23,24
 379 443 379 443 370 449 c 128,-1,25
 361 455 361 455 354 455 c 0,26,27
 342 455 342 455 339 460 c 0,0,1
250 566 m 0,28,29
 254 567 254 567 260 567.5 c 128,-1,30
 266 568 266 568 269 569 c 128,-1,31
 272 570 272 570 273 570 c 2,32,-1
 276 570 l 2,33,34
 290 570 290 570 332 563.5 c 128,-1,35
 374 557 374 557 382 553 c 0,36,37
 445 526 445 526 466 506 c 0,38,39
 471 501 471 501 479.5 482 c 128,-1,40
 488 463 488 463 488 456 c 2,41,-1
 487 454 l 1,42,-1
 483 434 l 2,43,44
 480 410 480 410 471.5 396 c 128,-1,45
 463 382 463 382 437 358 c 0,46,47
 405 328 405 328 374 323 c 0,48,49
 342 315 342 315 337 309 c 0,50,51
 329 302 329 302 217 293 c 0,52,53
 162 287 162 287 160 285 c 128,-1,54
 158 283 158 283 158 279 c 0,55,56
 158 270 158 270 163.5 255 c 128,-1,57
 169 240 169 240 176 232 c 0,58,59
 190 218 190 218 224 208 c 0,60,61
 249 199 249 199 263 199 c 0,62,63
 270 199 270 199 283 202 c 0,64,65
 306 208 306 208 309 205 c 2,66,-1
 310 205 l 2,67,68
 311 204 311 204 312 204 c 0,69,70
 319 204 319 204 349 213 c 0,71,72
 376 221 376 221 393.5 234.5 c 128,-1,73
 411 248 411 248 446 288 c 0,74,75
 461 304 461 304 471 304 c 0,76,77
 474 304 474 304 483 302 c 128,-1,78
 492 300 492 300 496 299 c 0,79,80
 530 291 530 291 539 275 c 0,81,82
 541 271 541 271 541 267 c 0,83,84
 541 242 541 242 500.5 197.5 c 128,-1,85
 460 153 460 153 419 132 c 0,86,87
 370 106 370 106 324 103 c 0,88,89
 276 100 276 100 271 99 c 0,90,91
 270 99 270 99 267 98.5 c 128,-1,92
 264 98 264 98 262 98 c 0,93,94
 245 98 245 98 208 108 c 0,95,96
 178 116 178 116 146.5 130 c 128,-1,97
 115 144 115 144 115 148.5 c 128,-1,98
 115 153 115 153 96 173 c 0,99,100
 55 220 55 220 55 300 c 2,101,-1
 55 306 l 2,102,103
 55 353 55 353 61 370 c 0,104,105
 66 384 66 384 69 406 c 0,106,107
 73 431 73 431 85 445 c 0,108,109
 99 463 99 463 99 468 c 0,110,111
 99 475 99 475 140.5 510 c 128,-1,112
 182 545 182 545 191 545 c 0,113,114
 199 545 199 545 213 553 c 0,115,116
 224 559 224 559 250 566 c 0,28,29
EndSplineSet
Validated: 1
EndChar

StartChar: f
Encoding: 102 102 58
Width: 535
GlyphClass: 1
Flags: W
LayerCount: 2
Fore
SplineSet
92 484 m 0,0,1
 92 486 92 486 89 486 c 0,2,3
 87 486 87 486 87 484 c 0,4,5
 87 481 87 481 89 481 c 0,6,7
 92 481 92 481 92 484 c 0,0,1
351 685 m 0,8,9
 351 687 351 687 348 687 c 128,-1,10
 345 687 345 687 345 685 c 0,11,12
 345 682 345 682 348 682 c 128,-1,13
 351 682 351 682 351 685 c 0,8,9
398 679 m 0,14,15
 403 682 403 682 400 688 c 0,16,17
 397 695 397 695 394 690 c 0,18,19
 393 688 393 688 393 684 c 0,20,21
 393 681 393 681 394.5 679.5 c 128,-1,22
 396 678 396 678 398 679 c 0,14,15
267 735 m 0,23,24
 290 742 290 742 306 745 c 0,25,26
 319 745 319 745 354 731.5 c 128,-1,27
 389 718 389 718 399 709 c 0,28,29
 411 697 411 697 428 689 c 0,30,31
 442 682 442 682 456 655 c 128,-1,32
 470 628 470 628 470 607 c 0,33,34
 470 589 470 589 466 585 c 0,35,36
 454 577 454 577 440 577 c 0,37,38
 432 577 432 577 427 580 c 0,39,40
 418 587 418 587 406 587 c 0,41,42
 393 587 393 587 374 607 c 0,43,44
 355 629 355 629 328 636 c 2,45,-1
 302 642 l 1,46,-1
 288 625 l 2,47,48
 280 615 280 615 271 590 c 128,-1,49
 262 565 262 565 262 552 c 0,50,51
 262 548 262 548 264 546 c 128,-1,52
 266 544 266 544 284 542 c 0,53,54
 315 537 315 537 317 537 c 0,55,56
 324 537 324 537 325 540 c 0,57,58
 325 545 325 545 347 545 c 0,59,60
 365 545 365 545 411 553 c 0,61,62
 439 558 439 558 444 558 c 0,63,64
 452 558 452 558 456 554.5 c 128,-1,65
 460 551 460 551 465 539 c 0,66,67
 472 526 472 526 464 515 c 0,68,69
 451 498 451 498 467 498 c 0,70,71
 481 498 481 498 481 489 c 0,72,73
 481 486 481 486 477 484 c 0,74,75
 471 480 471 480 474 468 c 0,76,77
 475 466 475 466 475 463 c 0,78,79
 475 455 475 455 451 441 c 0,80,81
 410 419 410 419 326 420 c 2,82,-1
 304 420 l 1,83,-1
 281 420 l 2,84,85
 259 420 259 420 256 411 c 0,86,87
 255 408 255 408 255 398 c 0,88,89
 255 366 255 366 265 339 c 0,90,91
 269 329 269 329 275 299.5 c 128,-1,92
 281 270 281 270 286.5 234 c 128,-1,93
 292 198 292 198 293 191 c 0,94,95
 298 160 298 160 298 141 c 0,96,97
 298 112 298 112 290 99 c 0,98,99
 283 87 283 87 251 83 c 0,100,101
 231 81 231 81 221 81 c 0,102,103
 211 81 211 81 209 82 c 0,104,105
 189 89 189 89 188 128 c 0,106,107
 188 138 188 138 189 143 c 128,-1,108
 190 148 190 148 190 161 c 0,109,110
 190 183 190 183 187 195 c 0,111,112
 182 217 182 217 161 353 c 0,113,114
 154 391 154 391 153 391 c 0,115,116
 149 391 149 391 126 381 c 2,117,-1
 102 370 l 1,118,-1
 87 382 l 2,119,120
 72 394 72 394 72 407 c 0,121,122
 72 413 72 413 77 416 c 0,123,124
 82 420 82 420 77 426 c 0,125,126
 70 433 70 433 74 444 c 0,127,128
 77 454 77 454 68.5 454.5 c 128,-1,129
 60 455 60 455 57.5 461 c 128,-1,130
 55 467 55 467 60 476 c 0,131,132
 64 484 64 484 91 498.5 c 128,-1,133
 118 513 118 513 129 513 c 0,134,135
 143 513 143 513 150.5 525 c 128,-1,136
 158 537 158 537 161 565 c 0,137,138
 164 601 164 601 178 631 c 0,139,140
 192 660 192 660 198 675 c 0,141,142
 205 693 205 693 223.5 710 c 128,-1,143
 242 727 242 727 267 735 c 0,23,24
EndSplineSet
Validated: 33
EndChar

StartChar: g
Encoding: 103 103 59
Width: 514
GlyphClass: 1
Flags: W
LayerCount: 2
Fore
SplineSet
328 452 m 0,0,1
 320 458 320 458 283 460 c 2,2,-1
 266 460 l 2,3,4
 252 460 252 460 245 456.5 c 128,-1,5
 238 453 238 453 225 440 c 0,6,7
 201 416 201 416 166 337 c 0,8,9
 156 315 156 315 156 282 c 0,10,11
 156 224 156 224 181 195 c 0,12,13
 193 183 193 183 203 182 c 0,14,15
 210 182 210 182 215 183 c 0,16,17
 239 187 239 187 252 196.5 c 128,-1,18
 265 206 265 206 289 236 c 0,19,20
 322 277 322 277 324 279 c 0,21,22
 338 297 338 297 338 350 c 2,23,-1
 338 375 l 2,24,25
 337 446 337 446 328 452 c 0,0,1
233 558 m 0,26,27
 243 560 243 560 262 560 c 0,28,29
 293 560 293 560 307 545 c 0,30,31
 314 537 314 537 317 544 c 0,32,33
 320 550 320 550 325 550 c 0,34,35
 333 550 333 550 358 534 c 0,36,37
 382 519 382 519 403 516 c 0,38,39
 418 515 418 515 430 510 c 0,40,41
 453 500 453 500 453 406 c 2,42,-1
 453 396 l 2,43,44
 451 304 451 304 451 294 c 0,45,46
 451 244 451 244 457 212 c 0,47,48
 463 182 463 182 463 113 c 0,49,50
 463 35 463 35 456 6 c 0,51,52
 448 -27 448 -27 428.5 -60.5 c 128,-1,53
 409 -94 409 -94 391 -109 c 0,54,55
 312 -168 312 -168 228 -168 c 2,56,-1
 223 -168 l 2,57,58
 193 -168 193 -168 180.5 -165 c 128,-1,59
 168 -162 168 -162 145 -151 c 0,60,61
 110 -134 110 -134 96 -110 c 128,-1,62
 82 -86 82 -86 82 -75 c 0,63,64
 80 -63 80 -63 76 -59 c 0,65,66
 71 -56 71 -56 71 -30 c 0,67,68
 71 -7 71 -7 82 21 c 128,-1,69
 93 49 93 49 109 63 c 2,70,-1
 121 75 l 1,71,-1
 145 59 l 2,72,73
 171 42 171 42 179.5 32.5 c 128,-1,74
 188 23 188 23 188 10 c 0,75,76
 188 6 188 6 186 -4 c 0,77,78
 185 -9 185 -9 183.5 -17 c 128,-1,79
 182 -25 182 -25 181 -30 c 128,-1,80
 180 -35 180 -35 179 -37 c 0,81,82
 176 -45 176 -45 189 -54 c 0,83,84
 200 -61 200 -61 213 -61 c 0,85,86
 222 -61 222 -61 241 -58 c 0,87,88
 276 -53 276 -53 300 -34 c 0,89,90
 324 -15 324 -15 329 -14.5 c 128,-1,91
 334 -14 334 -14 339 -3 c 0,92,93
 363 56 363 56 362 82 c 0,94,95
 362 85 362 85 361.5 92 c 128,-1,96
 361 99 361 99 361 103 c 0,97,98
 359 143 359 143 355 143 c 0,99,100
 348 143 348 143 334 129 c 0,101,102
 315 111 315 111 249 79 c 0,103,104
 242 75 242 75 221 75 c 0,105,106
 194 75 194 75 174 81 c 0,107,108
 156 86 156 86 130.5 109 c 128,-1,109
 105 132 105 132 94 153 c 0,110,111
 85 173 85 173 78 178 c 0,112,113
 55 198 55 198 55 279 c 2,114,-1
 55 296 l 2,115,116
 57 343 57 343 79 397 c 0,117,118
 98 446 98 446 113 468 c 0,119,120
 123 484 123 484 141.5 503.5 c 128,-1,121
 160 523 160 523 165 523 c 0,122,123
 169 523 169 523 183 538 c 0,124,125
 197 551 197 551 233 558 c 0,26,27
EndSplineSet
Validated: 33
EndChar

StartChar: h
Encoding: 104 104 60
Width: 510
GlyphClass: 1
Flags: W
LayerCount: 2
Fore
SplineSet
91 703 m 2,0,1
 98 704 98 704 108.5 705.5 c 128,-1,2
 119 707 119 707 124.5 707.5 c 128,-1,3
 130 708 130 708 131 708 c 2,4,-1
 133 708 l 2,5,6
 159 708 159 708 159 569 c 2,7,-1
 159 549 l 2,8,9
 159 536 159 536 158.5 515 c 128,-1,10
 158 494 158 494 158 486 c 2,11,-1
 159 460 l 2,12,13
 160 460 160 460 188 488 c 0,14,15
 205 506 205 506 217.5 513.5 c 128,-1,16
 230 521 230 521 255 528 c 0,17,18
 288 537 288 537 294 538 c 2,19,-1
 296 538 l 2,20,21
 299 535 299 535 308 540 c 0,22,23
 309 541 309 541 314 541 c 0,24,25
 329 541 329 541 358.5 526.5 c 128,-1,26
 388 512 388 512 392 502 c 0,27,28
 396 491 396 491 415 464.5 c 128,-1,29
 434 438 434 438 438 431 c 0,30,31
 443 421 443 421 450.5 382 c 128,-1,32
 458 343 458 343 458 325 c 0,33,34
 458 318 458 318 457 316 c 0,35,36
 454 311 454 311 452 213 c 0,37,38
 450 133 450 133 444 109.5 c 128,-1,39
 438 86 438 86 422 82 c 1,40,-1
 418 82 l 2,41,42
 410 82 410 82 390 91.5 c 128,-1,43
 370 101 370 101 365 101 c 0,44,45
 357 101 357 101 351 109 c 0,46,47
 347 115 347 115 347 249 c 0,48,49
 347 345 347 345 345 367 c 128,-1,50
 343 389 343 389 335 404 c 0,51,52
 318 432 318 432 316 433 c 0,53,54
 311 438 311 438 305 438 c 0,55,56
 288 438 288 438 261 409 c 128,-1,57
 234 380 234 380 213 336 c 0,58,59
 179 267 179 267 171 171 c 0,60,61
 166 121 166 121 160 115 c 128,-1,62
 154 109 154 109 114 104 c 0,63,64
 91 102 91 102 88 102 c 0,65,66
 76 102 76 102 76 108.5 c 128,-1,67
 76 115 76 115 70 119 c 0,68,69
 63 122 63 122 61 178 c 0,70,71
 59 246 59 246 55 265 c 0,72,73
 51 281 51 281 51 345 c 0,74,75
 51 387 51 387 52 413 c 0,76,77
 53 452 53 452 54.5 531.5 c 128,-1,78
 56 611 56 611 56 616 c 2,79,-1
 57 700 l 1,80,-1
 91 703 l 2,0,1
EndSplineSet
Validated: 1
EndChar

StartChar: i
Encoding: 105 105 61
Width: 235
GlyphClass: 1
Flags: W
LayerCount: 2
Fore
SplineSet
90 712 m 0,0,1
 90 719 90 719 123 719 c 0,2,3
 147 719 147 719 153.5 716.5 c 128,-1,4
 160 714 160 714 168 702 c 0,5,6
 182 684 182 684 182 664 c 0,7,8
 182 647 182 647 172 623 c 0,9,10
 149 574 149 574 116 573 c 0,11,12
 99 573 99 573 82 586 c 0,13,14
 70 595 70 595 65.5 602 c 128,-1,15
 61 609 61 609 59 624 c 2,16,-1
 59 632 l 2,17,18
 59 652 59 652 67 675 c 128,-1,19
 75 698 75 698 82 701 c 0,20,21
 90 706 90 706 90 712 c 0,0,1
87 541 m 0,22,23
 94 548 94 548 120.5 548 c 128,-1,24
 147 548 147 548 154.5 541 c 128,-1,25
 162 534 162 534 154.5 523.5 c 128,-1,26
 147 513 147 513 160.5 500.5 c 128,-1,27
 174 488 174 488 169 483 c 0,28,29
 167 481 167 481 164 437 c 128,-1,30
 161 393 161 393 159 348 c 128,-1,31
 157 303 157 303 156 300 c 0,32,33
 155 298 155 298 155 291 c 0,34,35
 155 272 155 272 160.5 240 c 128,-1,36
 166 208 166 208 170 203 c 0,37,38
 173 200 173 200 173 186 c 0,39,40
 173 155 173 155 163 132 c 0,41,42
 158 123 158 123 147.5 116 c 128,-1,43
 137 109 137 109 128 109 c 0,44,45
 123 109 123 109 121 110 c 0,46,47
 117 113 117 113 95 115 c 0,48,49
 83 115 83 115 77.5 118.5 c 128,-1,50
 72 122 72 122 65 135 c 0,51,52
 55 154 55 154 52 183 c 0,53,54
 51 207 51 207 51 263 c 0,55,56
 51 343 51 343 53 394 c 0,57,58
 55 490 55 490 67 511 c 0,59,60
 76 530 76 530 87 541 c 0,22,23
EndSplineSet
Validated: 1
EndChar

StartChar: j
Encoding: 106 106 62
Width: 430
GlyphClass: 1
Flags: W
LayerCount: 2
Fore
SplineSet
357 627 m 0,0,1
 357 629 357 629 354 629 c 128,-1,2
 351 629 351 629 351 627 c 0,3,4
 351 624 351 624 354 624 c 128,-1,5
 357 624 357 624 357 627 c 0,0,1
274.5 685 m 128,-1,7
 290 691 290 691 300 691 c 0,8,9
 311 691 311 691 328 682 c 0,10,11
 368 658 368 658 368 623 c 0,12,13
 368 600 368 600 362.5 595 c 128,-1,14
 357 590 357 590 357 582 c 0,15,16
 357 563 357 563 308 557 c 0,17,18
 299 556 299 556 287 556 c 0,19,20
 272 556 272 556 257 569 c 0,21,22
 240 584 240 584 236 608 c 0,23,24
 234 620 234 620 233 624 c 0,25,26
 233 636 233 636 245 654 c 0,27,6
 259 679 259 679 274.5 685 c 128,-1,7
306 500 m 0,28,29
 311 512 311 512 333 502 c 0,30,31
 346 496 346 496 351 479 c 128,-1,32
 356 462 356 462 359 419 c 0,33,34
 362 375 362 375 364.5 334 c 128,-1,35
 367 293 367 293 368.5 263.5 c 128,-1,36
 370 234 370 234 370 232 c 0,37,38
 372 212 372 212 375 209 c 128,-1,39
 378 206 378 206 378 158 c 0,40,41
 378 112 378 112 361 63 c 0,42,43
 325 -40 325 -40 287 -76 c 0,44,45
 247 -113 247 -113 189 -113 c 0,46,47
 182 -113 182 -113 168 -111 c 0,48,49
 133 -103 133 -103 129 -101 c 0,50,51
 106 -97 106 -97 84.5 -67.5 c 128,-1,52
 63 -38 63 -38 59 -6 c 0,53,54
 58 -1 58 -1 58 9 c 0,55,56
 58 41 58 41 83 93 c 0,57,58
 103 136 103 136 125 136 c 0,59,60
 129 136 129 136 132 135 c 0,61,62
 166 126 166 126 178.5 119 c 128,-1,63
 191 112 191 112 191 98 c 0,64,65
 191 88 191 88 181 60 c 0,66,67
 167 26 167 26 167 10 c 0,68,69
 167 0 167 0 170 -2 c 128,-1,70
 173 -4 173 -4 187 -4 c 0,71,72
 206 -4 206 -4 213 0 c 0,73,74
 222 6 222 6 243 50 c 0,75,76
 272 107 272 107 271 158 c 0,77,78
 271 181 271 181 268 214 c 0,79,80
 262 281 262 281 260 359 c 0,81,82
 257 445 257 445 252 452 c 0,83,84
 246 460 246 460 249 467 c 0,85,86
 251 472 251 472 270 482 c 128,-1,87
 289 492 289 492 297 492 c 0,88,89
 302 492 302 492 306 500 c 0,28,29
EndSplineSet
Validated: 33
EndChar

StartChar: k
Encoding: 107 107 63
Width: 467
GlyphClass: 1
Flags: W
LayerCount: 2
Fore
SplineSet
293 148 m 0,0,1
 288 148 288 148 276 159 c 128,-1,2
 264 170 264 170 259 170 c 0,3,4
 251 170 251 170 225 196 c 0,5,6
 218 202 218 202 202 217 c 128,-1,7
 186 232 186 232 181 238 c 2,8,-1
 163 254 l 1,9,-1
 159 224 l 2,10,11
 157 199 157 199 157 193 c 128,-1,12
 157 187 157 187 159 178 c 128,-1,13
 161 169 161 169 161 164 c 0,14,15
 161 148 161 148 155 135 c 0,16,17
 148 120 148 120 138 120 c 0,18,19
 133 120 133 120 129 121 c 0,20,21
 116 122 116 122 116 119 c 0,22,23
 120 112 120 112 110 110 c 0,24,25
 104 108 104 108 103 112 c 256,26,27
 103 116 103 116 86 119 c 0,28,29
 69 123 69 123 59 142 c 0,30,31
 52 157 52 157 52 193 c 0,32,33
 52 219 52 219 53 238 c 0,34,35
 57 313 57 313 62 324 c 0,36,37
 66 332 66 332 69 498 c 0,38,39
 70 613 70 613 71.5 638.5 c 128,-1,40
 73 664 73 664 80 669 c 0,41,42
 87 675 87 675 109 675 c 0,43,44
 128 675 128 675 133 670 c 0,45,46
 136 667 136 667 147 667 c 0,47,48
 174 667 174 667 174 630 c 0,49,50
 174 611 174 611 173 563.5 c 128,-1,51
 172 516 172 516 172 494 c 0,52,53
 172 417 172 417 174 415 c 2,54,-1
 175 415 l 2,55,56
 181 415 181 415 202 438 c 0,57,58
 228 466 228 466 233 466 c 0,59,60
 240 466 240 466 240.5 470 c 128,-1,61
 241 474 241 474 253.5 488.5 c 128,-1,62
 266 503 266 503 270 503 c 0,63,64
 273 503 273 503 301 532 c 0,65,66
 326 558 326 558 334 558 c 0,67,68
 335 558 335 558 343 556 c 0,69,70
 349 554 349 554 352.5 550.5 c 128,-1,71
 356 547 356 547 355 545 c 0,72,73
 353 542 353 542 357 542 c 2,74,-1
 361 543 l 2,75,76
 362 543 362 543 362 543 c 1,77,-1
 365 544 l 2,78,79
 371 544 371 544 376 533.5 c 128,-1,80
 381 523 381 523 386 523 c 128,-1,81
 391 523 391 523 395 507 c 1,82,-1
 395 501 l 2,83,84
 395 492 395 492 387 481.5 c 128,-1,85
 379 471 379 471 348 440 c 0,86,87
 297 391 297 391 294 391 c 0,88,89
 289 391 289 391 289 385 c 0,90,91
 289 380 289 380 270 363.5 c 128,-1,92
 251 347 251 347 240 343 c 0,93,94
 231 339 231 339 230 334 c 0,95,96
 230 326 230 326 281.5 285 c 128,-1,97
 333 244 333 244 368 223 c 0,98,99
 397 206 397 206 405 199.5 c 128,-1,100
 413 193 413 193 413 185 c 0,101,102
 413 181 413 181 412 178 c 0,103,104
 402 124 402 124 384 120 c 0,105,106
 372 118 372 118 366 118 c 0,107,108
 332 118 332 118 314 135 c 0,109,110
 301 148 301 148 293 148 c 0,0,1
EndSplineSet
Validated: 1
EndChar

StartChar: l
Encoding: 108 108 64
Width: 198
GlyphClass: 1
Flags: W
LayerCount: 2
Fore
SplineSet
89 656 m 2,0,1
 95 657 95 657 102.5 657.5 c 128,-1,2
 110 658 110 658 113.5 658.5 c 128,-1,3
 117 659 117 659 118 659 c 2,4,-1
 119 659 l 2,5,6
 129 659 129 659 138 637 c 0,7,8
 147 613 147 613 147 460 c 0,9,10
 147 395 147 395 144 357 c 0,11,12
 138 276 138 276 136 223 c 0,13,14
 133 155 133 155 129 134 c 128,-1,15
 125 113 125 113 114 113 c 0,16,17
 113 113 113 113 111.5 113.5 c 128,-1,18
 110 114 110 114 109 114 c 0,19,20
 104 115 104 115 78 121 c 0,21,22
 51 125 51 125 51 171 c 0,23,24
 51 186 51 186 52 195 c 0,25,26
 60 300 60 300 62 516 c 2,27,-1
 63 653 l 1,28,-1
 89 656 l 2,0,1
EndSplineSet
Validated: 1
EndChar

StartChar: m
Encoding: 109 109 65
Width: 673
GlyphClass: 1
Flags: W
LayerCount: 2
Fore
SplineSet
457 495 m 128,-1,1
 457 498 457 498 455 498 c 0,2,3
 452 498 452 498 452 495 c 128,-1,4
 452 492 452 492 455 492 c 0,5,0
 457 492 457 492 457 495 c 128,-1,1
220 516 m 0,6,7
 231 528 231 528 244 528 c 0,8,9
 245 528 245 528 248 527.5 c 128,-1,10
 251 527 251 527 253 527 c 0,11,12
 280 523 280 523 293.5 507.5 c 128,-1,13
 307 492 307 492 330 438 c 0,14,15
 341 412 341 412 345 413 c 0,16,17
 350 413 350 413 359 430 c 0,18,19
 383 474 383 474 429 500 c 0,20,21
 464 519 464 519 503 520 c 2,22,-1
 520 520 l 2,23,24
 535 520 535 520 541.5 517 c 128,-1,25
 548 514 548 514 562 501 c 0,26,27
 599 464 599 464 599 418 c 0,28,29
 599 405 599 405 604 399 c 0,30,31
 610 393 610 393 615.5 319.5 c 128,-1,32
 621 246 621 246 621 187 c 0,33,34
 621 149 621 149 617.5 141 c 128,-1,35
 614 133 614 133 587 133 c 0,36,37
 570 133 570 133 565.5 137 c 128,-1,38
 561 141 561 141 554 141 c 0,39,40
 538 141 538 141 538 180 c 0,41,42
 538 182 538 182 538.5 185.5 c 128,-1,43
 539 189 539 189 539 191 c 2,44,-1
 539 201 l 2,45,46
 539 233 539 233 532.5 314.5 c 128,-1,47
 526 396 526 396 522 416 c 0,48,49
 516 445 516 445 498 444 c 0,50,51
 474 444 474 444 447 409.5 c 128,-1,52
 420 375 420 375 406 326 c 0,53,54
 374 213 374 213 369 158 c 0,55,56
 366 127 366 127 361.5 117.5 c 128,-1,57
 357 108 357 108 346 108 c 2,58,-1
 342 108 l 1,59,-1
 336 108 l 2,60,61
 331 108 331 108 324 106 c 128,-1,62
 317 104 317 104 314 104 c 0,63,64
 308 104 308 104 299 110 c 0,65,66
 287 117 287 117 284.5 126 c 128,-1,67
 282 135 282 135 281 188 c 0,68,69
 281 205 281 205 280 232 c 128,-1,70
 279 259 279 259 278.5 278.5 c 128,-1,71
 278 298 278 298 278 307 c 0,72,73
 277 325 277 325 275.5 337.5 c 128,-1,74
 274 350 274 350 271.5 361.5 c 128,-1,75
 269 373 269 373 267.5 377.5 c 128,-1,76
 266 382 266 382 261 395.5 c 128,-1,77
 256 409 256 409 254 415 c 0,78,79
 248 438 248 438 241 437 c 0,80,81
 236 437 236 437 224 420 c 0,82,83
 207 392 207 392 198 381 c 0,84,85
 169 344 169 344 152 279.5 c 128,-1,86
 135 215 135 215 135 145 c 0,87,88
 135 113 135 113 125.5 102 c 128,-1,89
 116 91 116 91 88 91 c 0,90,91
 61 91 61 91 55 98 c 0,92,93
 51 102 51 102 51 140 c 0,94,95
 51 148 51 148 53 234 c 0,96,97
 58 410 58 410 58 426 c 0,98,99
 60 493 60 493 62 497 c 0,100,101
 66 503 66 503 83 503 c 0,102,103
 110 503 110 503 123 492 c 0,104,105
 133 482 133 482 133 473 c 0,106,107
 133 466 133 466 132 461 c 0,108,109
 130 447 130 447 130 444 c 0,110,111
 130 433 130 433 134 433 c 128,-1,112
 138 433 138 433 148 450 c 0,113,114
 157 466 157 466 177 485.5 c 128,-1,115
 197 505 197 505 203 505 c 2,116,-1
 204 505 l 2,117,118
 207 503 207 503 220 516 c 0,6,7
EndSplineSet
Validated: 33
EndChar

StartChar: n
Encoding: 110 110 66
Width: 461
GlyphClass: 1
Flags: W
LayerCount: 2
Fore
SplineSet
219 527 m 0,0,1
 242 538 242 538 258 539 c 0,2,3
 270 539 270 539 295 532 c 0,4,5
 344 519 344 519 366 481 c 0,6,7
 375 466 375 466 378 433 c 128,-1,8
 381 400 381 400 385 294 c 0,9,10
 391 163 391 163 401 142 c 0,11,12
 407 130 407 130 408 118 c 0,13,14
 408 104 408 104 396 92 c 0,15,16
 388 84 388 84 381 84 c 0,17,18
 373 84 373 84 358 89 c 0,19,20
 335 96 335 96 326 113.5 c 128,-1,21
 317 131 317 131 315 167 c 0,22,23
 313 200 313 200 308 237 c 0,24,25
 304 265 304 265 300 350 c 0,26,27
 297 420 297 420 294 434.5 c 128,-1,28
 291 449 291 449 279 454 c 0,29,30
 276 456 276 456 268 456 c 0,31,32
 245 456 245 456 212 409 c 0,33,34
 172 355 172 355 155.5 307 c 128,-1,35
 139 259 139 259 139 194 c 0,36,37
 139 142 139 142 133 130 c 0,38,39
 129 121 129 121 123.5 119 c 128,-1,40
 118 117 118 117 94 117 c 2,41,-1
 60 117 l 1,42,-1
 55 135 l 2,43,44
 52 146 52 146 52 173 c 0,45,46
 52 230 52 230 61 281 c 0,47,48
 65 297 65 297 66 356 c 2,49,-1
 66 388 l 1,50,-1
 66 421 l 2,51,52
 66 468 66 468 68 476 c 0,53,54
 74 492 74 492 111 493 c 0,55,56
 142 493 142 493 150 481 c 0,57,58
 154 475 154 475 175 496 c 0,59,60
 193 512 193 512 219 527 c 0,0,1
EndSplineSet
Validated: 1
EndChar

StartChar: o
Encoding: 111 111 67
Width: 487
GlyphClass: 1
Flags: W
LayerCount: 2
Fore
SplineSet
332 382 m 0,0,1
 295 425 295 425 258 425 c 0,2,3
 241 425 241 425 222 418 c 0,4,5
 181 402 181 402 168 375.5 c 128,-1,6
 155 349 155 349 155 284 c 2,7,-1
 155 263 l 2,8,9
 157 225 157 225 208 204 c 0,10,11
 218 199 218 199 227 199 c 0,12,13
 237 199 237 199 253 204 c 0,14,15
 277 212 277 212 289.5 221.5 c 128,-1,16
 302 231 302 231 326 261 c 0,17,18
 343 283 343 283 347 292.5 c 128,-1,19
 351 302 351 302 351 326 c 0,20,21
 351 349 351 349 348 357.5 c 128,-1,22
 345 366 345 366 332 382 c 0,0,1
173 519 m 0,23,24
 179 522 179 522 204 522 c 0,25,26
 208 522 208 522 217 521.5 c 128,-1,27
 226 521 226 521 231 521 c 0,28,29
 279 519 279 519 313 503 c 0,30,31
 369 474 369 474 411 411 c 0,32,33
 433 377 433 377 432 355 c 0,34,35
 432 350 432 350 430 319 c 0,36,37
 418 178 418 178 287 128 c 0,38,39
 246 113 246 113 229 113 c 0,40,41
 212 113 212 113 179 126 c 0,42,43
 128 146 128 146 91.5 193 c 128,-1,44
 55 240 55 240 55 286 c 0,45,46
 55 355 55 355 76 397 c 0,47,48
 87 420 87 420 87 429 c 0,49,50
 87 436 87 436 124 475 c 128,-1,51
 161 514 161 514 173 519 c 0,23,24
EndSplineSet
Validated: 33
EndChar

StartChar: p
Encoding: 112 112 68
Width: 466
GlyphClass: 1
Flags: W
LayerCount: 2
Fore
SplineSet
282 446 m 0,0,1
 269 454 269 454 263 455 c 0,2,3
 255 455 255 455 226 436.5 c 128,-1,4
 197 418 197 418 181 403 c 2,5,-1
 155 379 l 1,6,-1
 157 292 l 2,7,8
 160 205 160 205 166 202 c 0,9,10
 173 200 173 200 180 192.5 c 128,-1,11
 187 185 187 185 207 185 c 0,12,13
 227 185 227 185 250 208 c 0,14,15
 272 230 272 230 283 254 c 0,16,17
 294 280 294 280 300 284 c 0,18,19
 307 289 307 289 318 322 c 128,-1,20
 329 355 329 355 329 372 c 0,21,22
 329 389 329 389 313.5 414 c 128,-1,23
 298 439 298 439 282 446 c 0,0,1
215 532 m 0,24,25
 232 539 232 539 257 540 c 0,26,27
 285 540 285 540 312 530.5 c 128,-1,28
 339 521 339 521 351 507 c 0,29,30
 364 492 364 492 371 492 c 0,31,32
 379 492 379 492 385 483 c 0,33,34
 414 448 414 448 414 388 c 0,35,36
 414 288 414 288 343 175 c 0,37,38
 328 150 328 150 306.5 128 c 128,-1,39
 285 106 285 106 276 106 c 0,40,41
 266 106 266 106 263 103 c 0,42,43
 260 98 260 98 203 98 c 2,44,-1
 146 98 l 1,45,-1
 148 32 l 2,46,47
 148 25 148 25 149 13.5 c 128,-1,48
 150 2 150 2 150 -2 c 0,49,50
 150 -39 150 -39 143 -48 c 128,-1,51
 136 -57 136 -57 112.5 -57 c 128,-1,52
 89 -57 89 -57 79 -49 c 0,53,54
 72 -42 72 -42 68 18 c 0,55,56
 61 120 61 120 56 129 c 0,57,58
 53 133 53 133 53 151 c 0,59,60
 53 180 53 180 62 239 c 0,61,62
 68 275 68 275 73 339 c 0,63,64
 79 456 79 456 81.5 482.5 c 128,-1,65
 84 509 84 509 89 517 c 0,66,67
 97 528 97 528 116 528 c 0,68,69
 144 528 144 528 157 510 c 0,70,71
 163 502 163 502 181 514 c 0,72,73
 207 529 207 529 215 532 c 0,24,25
EndSplineSet
Validated: 1
EndChar

StartChar: q
Encoding: 113 113 69
Width: 545
GlyphClass: 1
Flags: W
LayerCount: 2
Fore
SplineSet
303 423 m 0,0,1
 303 416 303 416 307 419.5 c 128,-1,2
 311 423 311 423 307 427 c 0,3,4
 304 427 304 427 303 423 c 0,0,1
264 431 m 0,5,6
 247 443 247 443 228 443 c 0,7,8
 211 443 211 443 197 433 c 0,9,10
 182 421 182 421 162 390 c 0,11,12
 148 366 148 366 145 354 c 128,-1,13
 142 342 142 342 140 296 c 0,14,15
 140 288 140 288 139.5 276.5 c 128,-1,16
 139 265 139 265 139 261 c 0,17,18
 139 233 139 233 153 208 c 0,19,20
 169 178 169 178 177 172 c 0,21,22
 182 167 182 167 186 167 c 0,23,24
 191 167 191 167 209 185 c 0,25,26
 253 231 253 231 279 302 c 0,27,28
 296 352 296 352 296 391 c 0,29,30
 296 418 296 418 287 418 c 0,31,32
 281 418 281 418 264 431 c 0,5,6
311 520 m 0,33,34
 315 539 315 539 322.5 544.5 c 128,-1,35
 330 550 330 550 354 550 c 0,36,37
 383 550 383 550 391 537 c 0,38,39
 397 528 397 528 397 514 c 0,40,41
 397 506 397 506 394 482 c 0,42,43
 386 423 386 423 385 394 c 0,44,45
 381 338 381 338 378 330 c 0,46,47
 375 323 375 323 369.5 174 c 128,-1,48
 364 25 364 25 364 5 c 1,49,-1
 372 15 l 2,50,51
 379 26 379 26 388 44 c 0,52,53
 418 101 418 101 433 101 c 0,54,55
 436 101 436 101 442 97 c 0,56,57
 448 92 448 92 467 87 c 0,58,59
 478 84 478 84 481 80 c 128,-1,60
 484 76 484 76 486 65 c 2,61,-1
 486 59 l 2,62,63
 486 43 486 43 478 32 c 0,64,65
 467 17 467 17 467 13.5 c 128,-1,66
 467 10 467 10 451 -13 c 0,67,68
 436 -35 436 -35 425 -62 c 0,69,70
 415 -88 415 -88 395.5 -122.5 c 128,-1,71
 376 -157 376 -157 367 -165 c 0,72,73
 357 -175 357 -175 334 -177 c 0,74,75
 332 -177 332 -177 328 -177.5 c 128,-1,76
 324 -178 324 -178 323 -178 c 0,77,78
 310 -178 310 -178 297 -166 c 0,79,80
 288 -158 288 -158 285 -147.5 c 128,-1,81
 282 -137 282 -137 280 -104 c 0,82,83
 279 -90 279 -90 279 -62 c 0,84,85
 279 -36 279 -36 280 -31 c 0,86,87
 286 10 286 10 286 97 c 0,88,89
 286 143 286 143 283 143 c 0,90,91
 278 143 278 143 268 131 c 0,92,93
 255 115 255 115 231 98 c 128,-1,94
 207 81 207 81 194 79 c 0,95,96
 190 78 190 78 182 78 c 0,97,98
 132 78 132 78 87 163 c 0,99,100
 55 226 55 226 55 297 c 0,101,102
 55 358 55 358 80 413 c 0,103,104
 90 436 90 436 115 466.5 c 128,-1,105
 140 497 140 497 158 508 c 0,106,107
 188 525 188 525 226 525 c 0,108,109
 263 525 263 525 294 510 c 0,110,111
 304 505 304 505 306.5 506.5 c 128,-1,112
 309 508 309 508 311 520 c 0,33,34
EndSplineSet
Validated: 1
EndChar

StartChar: r
Encoding: 114 114 70
Width: 385
GlyphClass: 1
Flags: W
LayerCount: 2
Fore
SplineSet
207 426 m 128,-1,1
 207 429 207 429 204 429 c 0,2,3
 202 429 202 429 202 426 c 128,-1,4
 202 423 202 423 204 423 c 0,5,0
 207 423 207 423 207 426 c 128,-1,1
93 503 m 0,6,7
 101 503 101 503 109 497.5 c 128,-1,8
 117 492 117 492 126 492 c 0,9,10
 139 492 139 492 142 481 c 0,11,12
 145 472 145 472 150 472 c 0,13,14
 153 472 153 472 168 484 c 0,15,16
 183 497 183 497 207 505 c 0,17,18
 229 512 229 512 246 512 c 0,19,20
 264 512 264 512 281 503 c 0,21,22
 291 497 291 497 309 487 c 0,23,24
 329 478 329 478 330 462 c 0,25,26
 330 455 330 455 327 442 c 0,27,28
 320 409 320 409 301 410 c 0,29,30
 290 410 290 410 272 420 c 0,31,32
 250 432 250 432 238 432 c 0,33,34
 220 432 220 432 206 404 c 0,35,36
 197 387 197 387 186 379 c 0,37,38
 175 368 175 368 175 361 c 0,39,40
 175 353 175 353 170 345 c 0,41,42
 144 296 144 296 140 239 c 0,43,44
 136 170 136 170 130 147 c 0,45,46
 128 140 128 140 110 140 c 2,47,-1
 96 140 l 2,48,49
 63 142 63 142 58 147 c 0,50,51
 52 153 52 153 52 199 c 0,52,53
 52 236 52 236 56 271.5 c 128,-1,54
 60 307 60 307 66 307 c 0,55,56
 72 307 72 307 65 312 c 0,57,58
 57 316 57 316 56 371 c 0,59,60
 56 447 56 447 69 478 c 0,61,62
 80 503 80 503 93 503 c 0,6,7
EndSplineSet
Validated: 33
EndChar

StartChar: s
Encoding: 115 115 71
Width: 417
GlyphClass: 1
Flags: W
LayerCount: 2
Fore
SplineSet
145 516 m 0,0,1
 172 533 172 533 212 534 c 0,2,3
 216 534 216 534 226 533 c 128,-1,4
 236 532 236 532 241 532 c 0,5,6
 282 531 282 531 294 519 c 0,7,8
 305 508 305 508 310 508 c 0,9,10
 316 508 316 508 319 498 c 0,11,12
 320 497 320 497 321 494 c 0,13,14
 321 486 321 486 303 460 c 0,15,16
 292 444 292 444 286 439 c 128,-1,17
 280 434 280 434 269 434 c 2,18,-1
 264 434 l 1,19,-1
 253 434 l 2,20,21
 177 434 177 434 154 406 c 0,22,23
 149 399 149 399 148 395 c 0,24,25
 148 388 148 388 165 388 c 0,26,27
 174 388 174 388 180 389 c 0,28,29
 192 391 192 391 197 391 c 0,30,31
 210 391 210 391 257 368 c 0,32,33
 300 346 300 346 322.5 323.5 c 128,-1,34
 345 301 345 301 355 269 c 0,35,36
 363 241 363 241 364 220 c 0,37,38
 364 172 364 172 331 133 c 0,39,40
 314 114 314 114 299 107 c 128,-1,41
 284 100 284 100 240 93 c 0,42,43
 204 87 204 87 192.5 87 c 128,-1,44
 181 87 181 87 163 93 c 0,45,46
 140 101 140 101 127 101 c 0,47,48
 123 101 123 101 111.5 108 c 128,-1,49
 100 115 100 115 96 115 c 2,50,-1
 94 115 l 1,51,-1
 93 115 l 2,52,53
 88 115 88 115 78.5 127.5 c 128,-1,54
 69 140 69 140 69 146 c 0,55,56
 69 153 69 153 60 160 c 0,57,58
 53 166 53 166 53 179 c 0,59,60
 53 189 53 189 54 196 c 0,61,62
 56 220 56 220 59.5 226.5 c 128,-1,63
 63 233 63 233 75 233 c 0,64,65
 83 233 83 233 98 230 c 0,66,67
 129 224 129 224 136 211 c 128,-1,68
 143 198 143 198 150 196 c 0,69,70
 154 196 154 196 166 194 c 0,71,72
 176 192 176 192 180 191 c 0,73,74
 189 191 189 191 225 196 c 0,75,76
 281 202 281 202 282 224 c 0,77,78
 282 226 282 226 280 234 c 0,79,80
 275 250 275 250 257 266 c 0,81,82
 241 280 241 280 210 281 c 0,83,84
 182 281 182 281 182 286 c 0,85,86
 182 288 182 288 183 289 c 0,87,88
 185 294 185 294 182.5 295.5 c 128,-1,89
 180 297 180 297 171 296 c 0,90,91
 170 296 170 296 168 295.5 c 128,-1,92
 166 295 166 295 165 295 c 0,93,94
 140 295 140 295 106 320 c 128,-1,95
 72 345 72 345 63 370 c 0,96,97
 60 381 60 381 60 392 c 0,98,99
 60 422 60 422 75 454 c 128,-1,100
 90 486 90 486 110 496 c 0,101,102
 138 510 138 510 145 516 c 0,0,1
EndSplineSet
Validated: 1
EndChar

StartChar: t
Encoding: 116 116 72
Width: 408
GlyphClass: 1
Flags: W
LayerCount: 2
Fore
SplineSet
163 587 m 0,0,1
 167 589 167 589 178 589 c 0,2,3
 197 589 197 589 217 581 c 0,4,5
 225 577 225 577 227 571 c 128,-1,6
 229 565 229 565 229 547 c 2,7,-1
 229 518 l 1,8,-1
 266 521 l 2,9,10
 278 522 278 522 296 522 c 0,11,12
 316 522 316 522 323 517 c 128,-1,13
 330 512 330 512 330 500 c 0,14,15
 330 484 330 484 324 467 c 0,16,17
 320 456 320 456 313 453 c 128,-1,18
 306 450 306 450 272 444 c 2,19,-1
 227 436 l 1,20,-1
 222 413 l 2,21,22
 219 393 219 393 217 323 c 2,23,-1
 217 311 l 2,24,25
 217 222 217 222 249 181 c 2,26,-1
 262 164 l 1,27,-1
 273 175 l 2,28,29
 286 186 286 186 304 186 c 0,30,31
 320 186 320 186 330 177 c 0,32,33
 338 169 338 169 348 161 c 0,34,35
 356 154 356 154 348 139 c 0,36,37
 329 103 329 103 304 91 c 0,38,39
 292 85 292 85 265 85 c 0,40,41
 234 85 234 85 224 93 c 0,42,43
 216 101 216 101 210 101 c 0,44,45
 199 101 199 101 172.5 147 c 128,-1,46
 146 193 146 193 145 213 c 0,47,48
 145 228 145 228 140 247 c 0,49,50
 135 264 135 264 135 319 c 0,51,52
 135 366 135 366 137 393 c 2,53,-1
 140 439 l 1,54,-1
 106 436 l 2,55,56
 98 435 98 435 85 435 c 0,57,58
 71 435 71 435 66 442 c 128,-1,59
 61 449 61 449 58 470 c 0,60,61
 57 474 57 474 57 480 c 0,62,63
 57 513 57 513 94 513 c 0,64,65
 108 513 108 513 131 517 c 0,66,67
 149 520 149 520 150 527 c 0,68,69
 150 532 150 532 148 537 c 0,70,71
 147 542 147 542 147 552 c 0,72,73
 148 580 148 580 163 587 c 0,0,1
EndSplineSet
Validated: 1
EndChar

StartChar: u
Encoding: 117 117 73
Width: 500
GlyphClass: 1
Flags: W
LayerCount: 2
Fore
SplineSet
330 505 m 0,0,1
 336 512 336 512 354.5 512 c 128,-1,2
 373 512 373 512 390 505 c 0,3,4
 404 499 404 499 406.5 494 c 128,-1,5
 409 489 409 489 410 464 c 0,6,7
 413 195 413 195 435 145 c 0,8,9
 445 121 445 121 445 109 c 0,10,11
 445 94 445 94 427 84.5 c 128,-1,12
 409 75 409 75 396 75 c 0,13,14
 379 75 379 75 370 95 c 0,15,16
 368 98 368 98 364.5 105.5 c 128,-1,17
 361 113 361 113 358.5 117.5 c 128,-1,18
 356 122 356 122 355 124 c 0,19,20
 350 132 350 132 350 151 c 0,21,22
 350 173 350 173 343 172 c 0,23,24
 335 172 335 172 306 142 c 0,25,26
 281 116 281 116 264.5 106.5 c 128,-1,27
 248 97 248 97 225 97 c 0,28,29
 213 97 213 97 195 100 c 0,30,31
 161 105 161 105 142 118 c 0,32,33
 125 129 125 129 106 158.5 c 128,-1,34
 87 188 87 188 87 204 c 0,35,36
 87 216 87 216 79 257 c 128,-1,37
 71 298 71 298 71 326 c 0,38,39
 71 360 71 360 63 386 c 0,40,41
 55 416 55 416 55 447 c 0,42,43
 55 470 55 470 60 473 c 0,44,45
 66 477 66 477 62 482 c 128,-1,46
 58 487 58 487 69 498 c 0,47,48
 77 506 77 506 101 506 c 0,49,50
 134 506 134 506 142 495 c 0,51,52
 154 480 154 480 155 423 c 0,53,54
 155 407 155 407 154 399 c 0,55,56
 154 397 154 397 153.5 393 c 128,-1,57
 153 389 153 389 153 387 c 0,58,59
 153 372 153 372 159.5 345 c 128,-1,60
 166 318 166 318 166 302 c 2,61,-1
 166 295 l 1,62,-1
 166 286 l 2,63,64
 166 223 166 223 180 199 c 0,65,66
 186 189 186 189 207 184 c 0,67,68
 210 183 210 183 215 183 c 0,69,70
 250 183 250 183 278 243 c 0,71,72
 294 277 294 277 298.5 295.5 c 128,-1,73
 303 314 303 314 306 357 c 0,74,75
 317 488 317 488 330 505 c 0,0,1
EndSplineSet
Validated: 1
EndChar

StartChar: v
Encoding: 118 118 74
Width: 477
GlyphClass: 1
Flags: W
LayerCount: 2
Fore
SplineSet
118 513 m 0,0,1
 124 513 124 513 134.5 499 c 128,-1,2
 145 485 145 485 145 477 c 0,3,4
 145 468 145 468 153 461 c 0,5,6
 161 452 161 452 177 418.5 c 128,-1,7
 193 385 193 385 193 377 c 128,-1,8
 193 369 193 369 203.5 335 c 128,-1,9
 214 301 214 301 222 283 c 0,10,11
 229 267 229 267 229 252 c 0,12,13
 229 240 229 240 232 240 c 0,14,15
 237 240 237 240 250 269 c 0,16,17
 299 386 299 386 306 407 c 0,18,19
 310 419 310 419 319.5 434 c 128,-1,20
 329 449 329 449 332 460 c 0,21,22
 336 476 336 476 346 490 c 0,23,24
 357 507 357 507 374 508 c 0,25,26
 388 508 388 508 406 498 c 0,27,28
 422 489 422 489 422 479 c 0,29,30
 422 477 422 477 420 469 c 0,31,32
 417 455 417 455 402 428 c 0,33,34
 392 409 392 409 387 386 c 0,35,36
 384 372 384 372 359.5 316 c 128,-1,37
 335 260 335 260 335 259 c 0,38,39
 330 239 330 239 324.5 235.5 c 128,-1,40
 319 232 319 232 319 223 c 0,41,42
 319 215 319 215 309 190 c 0,43,44
 301 175 301 175 292 141 c 0,45,46
 280 96 280 96 242 96 c 0,47,48
 241 96 241 96 236.5 96.5 c 128,-1,49
 232 97 232 97 230 97 c 0,50,51
 206 100 206 100 194 116 c 0,52,53
 170 146 170 146 161 182 c 0,54,55
 144 267 144 267 130 299 c 0,56,57
 124 312 124 312 117.5 340 c 128,-1,58
 111 368 111 368 103 381 c 0,59,60
 57 472 57 472 57 487 c 0,61,62
 57 494 57 494 82.5 503.5 c 128,-1,63
 108 513 108 513 118 513 c 0,0,1
EndSplineSet
Validated: 1
EndChar

StartChar: w
Encoding: 119 119 75
Width: 651
GlyphClass: 1
Flags: W
LayerCount: 2
Fore
SplineSet
282 504 m 2,0,-1
 295 518 l 1,1,-1
 309 508 l 2,2,3
 322 498 322 498 341 494 c 0,4,5
 353 491 353 491 363 478.5 c 128,-1,6
 373 466 373 466 373 451 c 0,7,8
 373 442 373 442 379.5 426.5 c 128,-1,9
 386 411 386 411 395 393 c 128,-1,10
 404 375 404 375 407 370 c 0,11,12
 412 359 412 359 421 335 c 128,-1,13
 430 311 430 311 436 298 c 2,14,-1
 442 280 l 1,15,-1
 460 322 l 2,16,17
 476 362 476 362 484 376 c 0,18,19
 492 387 492 387 497 411 c 0,20,21
 502 445 502 445 515.5 476.5 c 128,-1,22
 529 508 529 508 538 508 c 0,23,24
 548 508 548 508 568 499 c 128,-1,25
 588 490 588 490 593 484 c 0,26,27
 597 479 597 479 597 471 c 0,28,29
 597 457 597 457 578 417 c 0,30,31
 566 392 566 392 565 381 c 0,32,33
 565 375 565 375 561 368 c 128,-1,34
 557 361 557 361 557 356 c 0,35,36
 557 349 557 349 536 296 c 0,37,38
 516 244 516 244 515 231 c 0,39,40
 515 217 515 217 499 184 c 0,41,42
 484 149 484 149 483 143 c 0,43,44
 483 136 483 136 474 125 c 0,45,46
 467 115 467 115 450 115 c 0,47,48
 448 115 448 115 443 115.5 c 128,-1,49
 438 116 438 116 435 116 c 0,50,51
 415 117 415 117 409.5 120 c 128,-1,52
 404 123 404 123 399 135 c 0,53,54
 393 149 393 149 393 163 c 0,55,56
 393 173 393 173 387 179 c 0,57,58
 371 194 371 194 364 249 c 0,59,60
 360 276 360 276 351 289 c 0,61,62
 342 306 342 306 330 340 c 0,63,64
 320 371 320 371 314 371 c 0,65,66
 310 371 310 371 306 350 c 0,67,68
 303 338 303 338 292.5 315.5 c 128,-1,69
 282 293 282 293 280 282 c 0,70,71
 276 262 276 262 269 250 c 0,72,73
 258 227 258 227 241 181.5 c 128,-1,74
 224 136 224 136 223 127 c 0,75,76
 222 117 222 117 198 116 c 2,77,-1
 177 116 l 2,78,79
 149 116 149 116 146 119 c 0,80,81
 142 123 142 123 130.5 160.5 c 128,-1,82
 119 198 119 198 119 207 c 0,83,84
 119 215 119 215 104.5 280.5 c 128,-1,85
 90 346 90 346 87 373 c 0,86,87
 81 417 81 417 75 423 c 0,88,89
 57 445 57 445 56 469 c 0,90,91
 56 480 56 480 61.5 486.5 c 128,-1,92
 67 493 67 493 82 501 c 0,93,94
 107 512 107 512 112 512 c 0,95,96
 119 512 119 512 125 502 c 0,97,98
 140 478 140 478 158.5 415 c 128,-1,99
 177 352 177 352 177 324 c 0,100,101
 177 310 177 310 182 290 c 128,-1,102
 187 270 187 270 191 270 c 0,103,104
 194 270 194 270 196.5 286.5 c 128,-1,105
 199 303 199 303 215 338 c 0,106,107
 232 375 232 375 232 379 c 0,108,109
 236 405 236 405 253.5 448 c 128,-1,110
 271 491 271 491 282 504 c 2,0,-1
EndSplineSet
Validated: 1
EndChar

StartChar: x
Encoding: 120 120 76
Width: 448
GlyphClass: 1
Flags: W
LayerCount: 2
Fore
SplineSet
142 280 m 0,0,1
 143 281 143 281 158.5 303 c 128,-1,2
 174 325 174 325 174 328 c 0,3,4
 174 333 174 333 164 349.5 c 128,-1,5
 154 366 154 366 142 377 c 0,6,7
 133 386 133 386 111.5 411.5 c 128,-1,8
 90 437 90 437 85 442 c 0,9,10
 68 460 68 460 68 475 c 0,11,12
 68 488 68 488 82 503 c 0,13,14
 99 523 99 523 116 523 c 0,15,16
 129 523 129 523 137 509 c 0,17,18
 145 496 145 496 183.5 449.5 c 128,-1,19
 222 403 222 403 226 403 c 0,20,21
 228 403 228 403 238.5 416 c 128,-1,22
 249 429 249 429 259.5 444.5 c 128,-1,23
 270 460 270 460 281 473 c 2,24,-1
 290 486 l 2,25,26
 294 490 294 490 302 507 c 0,27,28
 310 522 310 522 318 522 c 0,29,30
 323 522 323 522 328 521 c 0,31,32
 341 518 341 518 358 518 c 0,33,34
 372 518 372 518 378 502 c 0,35,36
 380 492 380 492 380 489 c 0,37,38
 380 479 380 479 365 453 c 0,39,40
 345 418 345 418 315 375 c 0,41,42
 284 329 284 329 285 326 c 0,43,44
 285 320 285 320 346 225 c 0,45,46
 369 191 369 191 387 160 c 0,47,48
 393 149 393 149 393 144.5 c 128,-1,49
 393 140 393 140 384 128 c 0,50,51
 364 103 364 103 347 103 c 0,52,53
 340 103 340 103 333 106 c 0,54,55
 318 114 318 114 314 120 c 0,56,57
 313 123 313 123 284 171 c 0,58,59
 257 211 257 211 248 230 c 0,60,61
 238 252 238 252 229 252 c 0,62,63
 226 252 226 252 225 251 c 0,64,65
 219 247 219 247 199 218.5 c 128,-1,66
 179 190 179 190 179 185 c 0,67,68
 179 179 179 179 150 140 c 0,69,70
 132 115 132 115 124.5 109 c 128,-1,71
 117 103 117 103 105 103 c 2,72,-1
 98 103 l 2,73,74
 75 105 75 105 65 115 c 0,75,76
 56 123 56 123 55 130 c 0,77,78
 55 135 55 135 58 144 c 0,79,80
 65 166 65 166 84 193 c 0,81,82
 106 225 106 225 105.5 227.5 c 128,-1,83
 105 230 105 230 123.5 253.5 c 128,-1,84
 142 277 142 277 142 280 c 0,0,1
EndSplineSet
Validated: 33
EndChar

StartChar: y
Encoding: 121 121 77
Width: 436
GlyphClass: 1
Flags: W
LayerCount: 2
Fore
SplineSet
62 501 m 0,0,1
 70 513 70 513 85 510 c 0,2,3
 89 509 89 509 100.5 507 c 128,-1,4
 112 505 112 505 120 502.5 c 128,-1,5
 128 500 128 500 132 496 c 0,6,7
 136 490 136 490 140 431 c 0,8,9
 147 298 147 298 170 253 c 0,10,11
 177 239 177 239 191.5 225.5 c 128,-1,12
 206 212 206 212 214 212 c 0,13,14
 219 213 219 213 239 243 c 128,-1,15
 259 273 259 273 259 281 c 0,16,17
 259 289 259 289 267 303 c 0,18,19
 287 341 287 341 288 403 c 0,20,21
 288 413 288 413 286 436 c 0,22,23
 284 450 284 450 284 471 c 0,24,25
 284 486 284 486 286 488 c 0,26,27
 296 498 296 498 333 499 c 0,28,29
 342 499 342 499 346 498 c 0,30,31
 360 496 360 496 364.5 481.5 c 128,-1,32
 369 467 369 467 373 412 c 0,33,34
 384 235 384 235 384 195 c 0,35,36
 384 157 384 157 381 129 c 0,37,38
 365 -13 365 -13 327 -70 c 0,39,40
 302 -107 302 -107 287.5 -118 c 128,-1,41
 273 -129 273 -129 239 -139 c 0,42,43
 205 -149 205 -149 194.5 -149.5 c 128,-1,44
 184 -150 184 -150 166 -143 c 0,45,46
 140 -135 140 -135 119 -112 c 0,47,48
 114 -107 114 -107 107.5 -99.5 c 128,-1,49
 101 -92 101 -92 97 -87.5 c 128,-1,50
 93 -83 93 -83 92 -81 c 0,51,52
 85 -74 85 -74 75 -44.5 c 128,-1,53
 65 -15 65 -15 61 5 c 0,54,55
 59 19 59 19 59 26 c 0,56,57
 59 62 59 62 78 82 c 2,58,-1
 91 95 l 1,59,-1
 116 84 l 2,60,61
 134 76 134 76 140 71 c 128,-1,62
 146 66 146 66 146 56 c 0,63,64
 146 51 146 51 145 48 c 0,65,66
 145 47 145 47 144.5 45 c 128,-1,67
 144 43 144 43 144 41 c 0,68,69
 144 24 144 24 152.5 -3.5 c 128,-1,70
 161 -31 161 -31 169 -41 c 0,71,72
 177 -53 177 -53 193 -59 c 0,73,74
 201 -61 201 -61 204 -61 c 0,75,76
 218 -61 218 -61 230.5 -52.5 c 128,-1,77
 243 -44 243 -44 246 -32 c 0,78,79
 249 -19 249 -19 264 6 c 0,80,81
 284 41 284 41 294 128 c 0,82,83
 294 132 294 132 294.5 136 c 128,-1,84
 295 140 295 140 295.5 142.5 c 128,-1,85
 296 145 296 145 296 148 c 128,-1,86
 296 151 296 151 296 153 c 0,87,88
 296 158 296 158 294 158 c 128,-1,89
 292 158 292 158 288 154 c 0,90,91
 274 143 274 143 249.5 130 c 128,-1,92
 225 117 225 117 217 117 c 0,93,94
 145 117 145 117 103.5 195 c 128,-1,95
 62 273 62 273 56 420 c 0,96,97
 54 459 54 459 54 465 c 0,98,99
 54 490 54 490 62 501 c 0,0,1
EndSplineSet
Validated: 1
EndChar

StartChar: z
Encoding: 122 122 78
Width: 443
GlyphClass: 1
Flags: W
LayerCount: 2
Fore
SplineSet
200 527 m 128,-1,1
 202 529 202 529 215 529 c 0,2,3
 238 529 238 529 272.5 524.5 c 128,-1,4
 307 520 307 520 317 516 c 0,5,6
 333 509 333 509 345.5 497 c 128,-1,7
 358 485 358 485 358 476 c 0,8,9
 358 447 358 447 260 299 c 0,10,11
 197 205 197 205 194 196 c 0,12,13
 192 190 192 190 194.5 187.5 c 128,-1,14
 197 185 197 185 207 185 c 0,15,16
 220 185 220 185 261 194 c 0,17,18
 299 201 299 201 317 201 c 0,19,20
 363 201 363 201 382 173 c 0,21,22
 388 163 388 163 388 159.5 c 128,-1,23
 388 156 388 156 382 145 c 0,24,25
 378 140 378 140 373.5 130 c 128,-1,26
 369 120 369 120 364 114 c 128,-1,27
 359 108 359 108 350 105 c 0,28,29
 344 103 344 103 332.5 99 c 128,-1,30
 321 95 321 95 318 94.5 c 128,-1,31
 315 94 315 94 304.5 91 c 128,-1,32
 294 88 294 88 287 87.5 c 128,-1,33
 280 87 280 87 262.5 84.5 c 128,-1,34
 245 82 245 82 225.5 80 c 128,-1,35
 206 78 206 78 174 75 c 0,36,37
 167 74 167 74 157.5 73 c 128,-1,38
 148 72 148 72 143.5 71.5 c 128,-1,39
 139 71 139 71 135 71 c 0,40,41
 123 71 123 71 116 81 c 0,42,43
 108 93 108 93 87 112 c 0,44,45
 70 129 70 129 70 136 c 0,46,47
 70 141 70 141 73 151 c 0,48,49
 78 163 78 163 112.5 222 c 128,-1,50
 147 281 147 281 173 319 c 0,51,52
 176 325 176 325 183.5 335.5 c 128,-1,53
 191 346 191 346 193 349 c 0,54,55
 199 358 199 358 204 361 c 0,56,57
 211 366 211 366 211 372 c 0,58,59
 211 374 211 374 231.5 409 c 128,-1,60
 252 444 252 444 252 447 c 0,61,62
 252 448 252 448 248 449 c 0,63,64
 243 449 243 449 220 444 c 0,65,66
 195 440 195 440 164 440 c 0,67,68
 146 440 146 440 136 441 c 0,69,70
 99 443 99 443 88 446.5 c 128,-1,71
 77 450 77 450 68 459 c 0,72,73
 57 469 57 469 56 478 c 0,74,75
 56 486 56 486 68 486 c 0,76,77
 75 486 75 486 81 502 c 128,-1,78
 87 518 87 518 91 519 c 0,79,80
 92 519 92 519 145 522 c 128,-1,0
 198 525 198 525 200 527 c 128,-1,1
EndSplineSet
Validated: 1
EndChar

StartChar: hyphen
Encoding: 45 45 80
Width: 1024
Flags: W
LayerCount: 2
Fore
SplineSet
397 312 m 24,0,1
 379 376 379 376 390 389 c 25,2,3
 394 393 394 393 472 400 c 24,4,5
 530 405 530 405 568 405 c 24,6,-1
 670 399 l 24,7,-1
 732 404 l 24,8,9
 800 403 800 403 810 396 c 24,10,11
 833 379 833 379 817 343 c 24,12,13
 815 338 815 338 772 310 c 24,14,15
 756 299 756 299 745 295 c 24,16,17
 716 285 716 285 695 284 c 24,18,19
 690 283 690 283 609 288 c 24,20,-1
 533 292 l 24,21,-1
 466 289 l 24,22,23
 461 289 461 289 440 295 c 24,24,25
 423 300 423 300 415 303 c 24,26,27
 398 310 398 310 397 312 c 24,0,1
EndSplineSet
Validated: 33
EndChar

StartChar: plus
Encoding: 43 43 81
Width: 801
Flags: W
LayerCount: 2
Fore
SplineSet
468 531 m 29,0,-1
 497 560 l 29,1,-1
 532 543 l 29,2,-1
 558 513 l 28,3,-1
 552 470 l 28,4,-1
 549 412 l 28,5,-1
 549 390 l 28,6,-1
 655 402 l 29,7,-1
 718 372 l 28,8,-1
 705 304 l 28,9,-1
 703 273 l 28,10,-1
 621 249 l 28,11,-1
 572 259 l 28,12,-1
 545 244 l 28,13,-1
 549 207 l 28,14,-1
 544 148 l 28,15,-1
 542 97 l 28,16,-1
 496 103 l 28,17,-1
 460 103 l 28,18,-1
 446 109 l 28,19,-1
 439 131 l 28,20,-1
 444 169 l 28,21,-1
 438 199 l 28,22,-1
 437 229 l 28,23,-1
 431 251 l 29,24,-1
 371 256 l 28,25,-1
 286 259 l 28,26,-1
 266 261 l 28,27,-1
 254 321 l 28,28,-1
 269 372 l 28,29,-1
 305 387 l 28,30,-1
 339 379 l 28,31,-1
 372 373 l 28,32,-1
 425 373 l 28,33,-1
 429 440 l 28,34,-1
 436 490 l 28,35,-1
 464 523 l 28,36,-1
 468 531 l 29,0,-1
EndSplineSet
Validated: 1
EndChar

StartChar: asterisk
Encoding: 42 42 82
Width: 1024
Flags: W
LayerCount: 2
Fore
SplineSet
316 265 m 0,0,1
 329 286 329 286 342 307 c 0,2,-1
 403 335 l 0,3,-1
 388 359 l 0,4,5
 318 357 318 357 314 369 c 0,6,7
 295 410 295 410 333 442 c 28,8,9
 339 447 339 447 407 436 c 0,10,-1
 447 413 l 24,11,12
 471 432 471 432 476 491 c 24,13,14
 479 531 479 531 456 516 c 24,15,16
 486 535 486 535 519 517 c 24,17,18
 537 507 537 507 544 468 c 24,19,20
 553 426 553 426 539 420 c 24,21,-1
 627 502 l 24,22,23
 693 524 693 524 680 469 c 24,24,25
 679 467 679 467 602 396 c 24,26,27
 584 380 584 380 583 380 c 24,28,-1
 686 349 l 24,29,-1
 751 323 l 24,30,31
 718 295 718 295 626 299 c 24,32,33
 597 299 597 299 588 329 c 25,34,-1
 643 245 l 0,35,-1
 609 227 l 24,36,-1
 554 267 l 0,37,-1
 517 252 l 0,38,-1
 496 194 l 1,39,-1
 443 190 l 0,40,-1
 422 221 l 1,41,-1
 459 286 l 1,42,-1
 440 292 l 0,43,-1
 316 265 l 0,0,1
EndSplineSet
Validated: 37
EndChar

StartChar: equal
Encoding: 61 61 83
Width: 602
Flags: W
HStem: 208 120<378 475.836> 213 116<105.104 439> 409 116<96.1035 362.152 393 471.334>
LayerCount: 2
Fore
SplineSet
104 236 m 24,0,1
 86 300 86 300 97 313 c 25,2,3
 101 317 101 317 179 324 c 24,4,5
 237 329 237 329 276 329 c 24,6,-1
 378 323 l 24,7,-1
 439 328 l 24,8,9
 507 327 507 327 517 320 c 24,10,11
 540 303 540 303 525 267 c 24,12,13
 523 262 523 262 480 233 c 24,14,15
 464 222 464 222 452 219 c 24,16,17
 423 209 423 209 403 208 c 24,18,19
 398 207 398 207 317 211 c 24,20,-1
 241 216 l 24,21,-1
 173 213 l 24,22,23
 168 213 168 213 148 219 c 24,24,25
 131 224 131 224 122 227 c 24,26,27
 105 234 105 234 104 236 c 24,0,1
95 432 m 24,28,29
 77 496 77 496 88 510 c 25,30,31
 92 514 92 514 170 521 c 24,32,33
 228 526 228 526 267 525 c 24,34,-1
 369 519 l 24,35,-1
 430 525 l 24,36,37
 498 524 498 524 508 517 c 24,38,39
 531 500 531 500 515 464 c 24,40,41
 513 459 513 459 470 430 c 24,42,43
 454 419 454 419 443 415 c 24,44,45
 414 405 414 405 393 404 c 24,46,47
 388 403 388 403 308 408 c 24,48,-1
 232 412 l 24,49,-1
 164 409 l 24,50,51
 159 409 159 409 138 415 c 24,52,53
 121 420 121 420 113 424 c 24,54,55
 96 430 96 430 95 432 c 24,28,29
EndSplineSet
Validated: 33
EndChar

StartChar: less
Encoding: 60 60 84
Width: 600
Flags: W
LayerCount: 2
Fore
SplineSet
510 552 m 1048,0,-1
510 555 m 25,1,2
 472 577 472 577 454 577 c 24,3,4
 440 577 440 577 395 556 c 24,5,6
 346 534 346 534 308 512 c 24,7,8
 257 481 257 481 245 477 c 0,9,10
 142 441 142 441 94 393 c 0,11,12
 72 372 72 372 100 344 c 0,13,-1
 164 295 l 0,14,15
 164 293 164 293 232 270 c 0,16,17
 263 259 263 259 295 249 c 0,18,19
 329 237 329 237 343 223 c 24,20,21
 361 209 361 209 409 203 c 24,22,23
 412 203 412 203 471 195 c 128,-1,24
 530 187 530 187 525 215 c 0,25,26
 519 254 519 254 481 273 c 0,27,-1
 411 300 l 0,28,29
 379 311 379 311 359 298 c 0,30,31
 388 317 388 317 334 329 c 24,32,33
 303 336 303 336 297 342 c 0,34,35
 266 369 266 369 276 378 c 25,36,37
 282 384 282 384 409 454 c 24,38,39
 414 457 414 457 464 481 c 24,40,-1
 516 507 l 24,41,42
 526 516 526 516 523 538 c 24,43,44
 522 548 522 548 510 555 c 25,1,2
EndSplineSet
Validated: 41
EndChar

StartChar: greater
Encoding: 62 62 85
Width: 600
Flags: W
LayerCount: 2
Fore
SplineSet
93 561 m 1048,0,-1
93 564 m 25,1,2
 131 586 131 586 150 586 c 24,3,4
 164 586 164 586 209 566 c 24,5,6
 258 544 258 544 295 521 c 24,7,8
 346 490 346 490 359 486 c 0,9,10
 462 450 462 450 510 402 c 0,11,12
 532 381 532 381 504 353 c 0,13,-1
 439 304 l 0,14,15
 439 302 439 302 372 280 c 0,16,17
 341 269 341 269 309 258 c 0,18,19
 275 246 275 246 261 232 c 24,20,21
 243 218 243 218 195 212 c 24,22,23
 192 212 192 212 133 204 c 128,-1,24
 74 196 74 196 78 224 c 0,25,26
 84 263 84 263 122 282 c 0,27,-1
 193 309 l 0,28,29
 225 320 225 320 244 307 c 0,30,31
 215 326 215 326 269 338 c 24,32,33
 300 345 300 345 306 351 c 0,34,35
 337 378 337 378 328 387 c 25,36,37
 322 393 322 393 194 463 c 24,38,39
 189 466 189 466 139 491 c 24,40,-1
 88 516 l 24,41,42
 78 525 78 525 81 547 c 24,43,44
 81 557 81 557 93 564 c 25,1,2
EndSplineSet
Validated: 33
EndChar
